<?xml version="1.0" encoding="utf-8" standalone="no"?>
<!DOCTYPE svg PUBLIC "-//W3C//DTD SVG 1.1//EN"
  "http://www.w3.org/Graphics/SVG/1.1/DTD/svg11.dtd">
<svg xmlns:xlink="http://www.w3.org/1999/xlink" width="706.68375pt" height="420.745312pt" viewBox="0 0 706.68375 420.745312" xmlns="http://www.w3.org/2000/svg" version="1.1">
 <metadata>
  <rdf:RDF xmlns:dc="http://purl.org/dc/elements/1.1/" xmlns:cc="http://creativecommons.org/ns#" xmlns:rdf="http://www.w3.org/1999/02/22-rdf-syntax-ns#">
   <cc:Work>
    <dc:type rdf:resource="http://purl.org/dc/dcmitype/StillImage"/>
    <dc:date>2026-05-23T12:47:07.022514</dc:date>
    <dc:format>image/svg+xml</dc:format>
    <dc:creator>
     <cc:Agent>
      <dc:title>Matplotlib v3.10.9, https://matplotlib.org/</dc:title>
     </cc:Agent>
    </dc:creator>
   </cc:Work>
  </rdf:RDF>
 </metadata>
 <defs>
  <style type="text/css">*{stroke-linejoin: round; stroke-linecap: butt}</style>
 </defs>
 <g id="figure_1">
  <g id="patch_1">
   <path d="M 0 420.745312 
L 706.68375 420.745312 
L 706.68375 0 
L 0 0 
z
" style="fill: #ffffff"/>
  </g>
  <g id="axes_1">
   <g id="patch_2">
    <path d="M 49.40375 379.317812 
L 699.48375 379.317812 
L 699.48375 23.837812 
L 49.40375 23.837812 
z
" style="fill: #ffffff"/>
   </g>
   <g id="matplotlib.axis_1">
    <g id="xtick_1">
     <g id="line2d_1">
      <path d="M 56.482049 379.317812 
L 56.482049 23.837812 
" clip-path="url(#p635c271007)" style="fill: none; stroke-dasharray: 2.96,1.28; stroke-dashoffset: 0; stroke: #b0b0b0; stroke-opacity: 0.3; stroke-width: 0.8"/>
     </g>
     <g id="line2d_2">
      <defs>
       <path id="ma15b53500b" d="M 0 0 
L 0 3.5 
" style="stroke: #000000; stroke-width: 0.8"/>
      </defs>
      <g>
       <use xlink:href="#ma15b53500b" x="56.482049" y="379.317812" style="stroke: #000000; stroke-width: 0.8"/>
      </g>
     </g>
     <g id="text_1">
      <!-- 0 -->
      <g transform="translate(52.664549 395.435937) scale(0.12 -0.12)">
       <defs>
        <path id="DejaVuSans-30" d="M 2034 4250 
Q 1547 4250 1301 3770 
Q 1056 3291 1056 2328 
Q 1056 1369 1301 889 
Q 1547 409 2034 409 
Q 2525 409 2770 889 
Q 3016 1369 3016 2328 
Q 3016 3291 2770 3770 
Q 2525 4250 2034 4250 
z
M 2034 4750 
Q 2819 4750 3233 4129 
Q 3647 3509 3647 2328 
Q 3647 1150 3233 529 
Q 2819 -91 2034 -91 
Q 1250 -91 836 529 
Q 422 1150 422 2328 
Q 422 3509 836 4129 
Q 1250 4750 2034 4750 
z
" transform="scale(0.015625)"/>
       </defs>
       <use xlink:href="#DejaVuSans-30"/>
      </g>
     </g>
    </g>
    <g id="xtick_2">
     <g id="line2d_3">
      <path d="M 168.836007 379.317812 
L 168.836007 23.837812 
" clip-path="url(#p635c271007)" style="fill: none; stroke-dasharray: 2.96,1.28; stroke-dashoffset: 0; stroke: #b0b0b0; stroke-opacity: 0.3; stroke-width: 0.8"/>
     </g>
     <g id="line2d_4">
      <g>
       <use xlink:href="#ma15b53500b" x="168.836007" y="379.317812" style="stroke: #000000; stroke-width: 0.8"/>
      </g>
     </g>
     <g id="text_2">
      <!-- 500 -->
      <g transform="translate(157.383507 395.435937) scale(0.12 -0.12)">
       <defs>
        <path id="DejaVuSans-35" d="M 691 4666 
L 3169 4666 
L 3169 4134 
L 1269 4134 
L 1269 2991 
Q 1406 3038 1543 3061 
Q 1681 3084 1819 3084 
Q 2600 3084 3056 2656 
Q 3513 2228 3513 1497 
Q 3513 744 3044 326 
Q 2575 -91 1722 -91 
Q 1428 -91 1123 -41 
Q 819 9 494 109 
L 494 744 
Q 775 591 1075 516 
Q 1375 441 1709 441 
Q 2250 441 2565 725 
Q 2881 1009 2881 1497 
Q 2881 1984 2565 2268 
Q 2250 2553 1709 2553 
Q 1456 2553 1204 2497 
Q 953 2441 691 2322 
L 691 4666 
z
" transform="scale(0.015625)"/>
       </defs>
       <use xlink:href="#DejaVuSans-35"/>
       <use xlink:href="#DejaVuSans-30" transform="translate(63.623047 0)"/>
       <use xlink:href="#DejaVuSans-30" transform="translate(127.246094 0)"/>
      </g>
     </g>
    </g>
    <g id="xtick_3">
     <g id="line2d_5">
      <path d="M 281.189965 379.317812 
L 281.189965 23.837812 
" clip-path="url(#p635c271007)" style="fill: none; stroke-dasharray: 2.96,1.28; stroke-dashoffset: 0; stroke: #b0b0b0; stroke-opacity: 0.3; stroke-width: 0.8"/>
     </g>
     <g id="line2d_6">
      <g>
       <use xlink:href="#ma15b53500b" x="281.189965" y="379.317812" style="stroke: #000000; stroke-width: 0.8"/>
      </g>
     </g>
     <g id="text_3">
      <!-- 1000 -->
      <g transform="translate(265.919965 395.435937) scale(0.12 -0.12)">
       <defs>
        <path id="DejaVuSans-31" d="M 794 531 
L 1825 531 
L 1825 4091 
L 703 3866 
L 703 4441 
L 1819 4666 
L 2450 4666 
L 2450 531 
L 3481 531 
L 3481 0 
L 794 0 
L 794 531 
z
" transform="scale(0.015625)"/>
       </defs>
       <use xlink:href="#DejaVuSans-31"/>
       <use xlink:href="#DejaVuSans-30" transform="translate(63.623047 0)"/>
       <use xlink:href="#DejaVuSans-30" transform="translate(127.246094 0)"/>
       <use xlink:href="#DejaVuSans-30" transform="translate(190.869141 0)"/>
      </g>
     </g>
    </g>
    <g id="xtick_4">
     <g id="line2d_7">
      <path d="M 393.543923 379.317812 
L 393.543923 23.837812 
" clip-path="url(#p635c271007)" style="fill: none; stroke-dasharray: 2.96,1.28; stroke-dashoffset: 0; stroke: #b0b0b0; stroke-opacity: 0.3; stroke-width: 0.8"/>
     </g>
     <g id="line2d_8">
      <g>
       <use xlink:href="#ma15b53500b" x="393.543923" y="379.317812" style="stroke: #000000; stroke-width: 0.8"/>
      </g>
     </g>
     <g id="text_4">
      <!-- 1500 -->
      <g transform="translate(378.273923 395.435937) scale(0.12 -0.12)">
       <use xlink:href="#DejaVuSans-31"/>
       <use xlink:href="#DejaVuSans-35" transform="translate(63.623047 0)"/>
       <use xlink:href="#DejaVuSans-30" transform="translate(127.246094 0)"/>
       <use xlink:href="#DejaVuSans-30" transform="translate(190.869141 0)"/>
      </g>
     </g>
    </g>
    <g id="xtick_5">
     <g id="line2d_9">
      <path d="M 505.897881 379.317812 
L 505.897881 23.837812 
" clip-path="url(#p635c271007)" style="fill: none; stroke-dasharray: 2.96,1.28; stroke-dashoffset: 0; stroke: #b0b0b0; stroke-opacity: 0.3; stroke-width: 0.8"/>
     </g>
     <g id="line2d_10">
      <g>
       <use xlink:href="#ma15b53500b" x="505.897881" y="379.317812" style="stroke: #000000; stroke-width: 0.8"/>
      </g>
     </g>
     <g id="text_5">
      <!-- 2000 -->
      <g transform="translate(490.627881 395.435937) scale(0.12 -0.12)">
       <defs>
        <path id="DejaVuSans-32" d="M 1228 531 
L 3431 531 
L 3431 0 
L 469 0 
L 469 531 
Q 828 903 1448 1529 
Q 2069 2156 2228 2338 
Q 2531 2678 2651 2914 
Q 2772 3150 2772 3378 
Q 2772 3750 2511 3984 
Q 2250 4219 1831 4219 
Q 1534 4219 1204 4116 
Q 875 4013 500 3803 
L 500 4441 
Q 881 4594 1212 4672 
Q 1544 4750 1819 4750 
Q 2544 4750 2975 4387 
Q 3406 4025 3406 3419 
Q 3406 3131 3298 2873 
Q 3191 2616 2906 2266 
Q 2828 2175 2409 1742 
Q 1991 1309 1228 531 
z
" transform="scale(0.015625)"/>
       </defs>
       <use xlink:href="#DejaVuSans-32"/>
       <use xlink:href="#DejaVuSans-30" transform="translate(63.623047 0)"/>
       <use xlink:href="#DejaVuSans-30" transform="translate(127.246094 0)"/>
       <use xlink:href="#DejaVuSans-30" transform="translate(190.869141 0)"/>
      </g>
     </g>
    </g>
    <g id="xtick_6">
     <g id="line2d_11">
      <path d="M 618.251838 379.317812 
L 618.251838 23.837812 
" clip-path="url(#p635c271007)" style="fill: none; stroke-dasharray: 2.96,1.28; stroke-dashoffset: 0; stroke: #b0b0b0; stroke-opacity: 0.3; stroke-width: 0.8"/>
     </g>
     <g id="line2d_12">
      <g>
       <use xlink:href="#ma15b53500b" x="618.251838" y="379.317812" style="stroke: #000000; stroke-width: 0.8"/>
      </g>
     </g>
     <g id="text_6">
      <!-- 2500 -->
      <g transform="translate(602.981838 395.435937) scale(0.12 -0.12)">
       <use xlink:href="#DejaVuSans-32"/>
       <use xlink:href="#DejaVuSans-35" transform="translate(63.623047 0)"/>
       <use xlink:href="#DejaVuSans-30" transform="translate(127.246094 0)"/>
       <use xlink:href="#DejaVuSans-30" transform="translate(190.869141 0)"/>
      </g>
     </g>
    </g>
    <g id="text_7">
     <!-- Frequency [Hz] -->
     <g transform="translate(329.198125 411.049687) scale(0.12 -0.12)">
      <defs>
       <path id="DejaVuSans-46" d="M 628 4666 
L 3309 4666 
L 3309 4134 
L 1259 4134 
L 1259 2759 
L 3109 2759 
L 3109 2228 
L 1259 2228 
L 1259 0 
L 628 0 
L 628 4666 
z
" transform="scale(0.015625)"/>
       <path id="DejaVuSans-72" d="M 2631 2963 
Q 2534 3019 2420 3045 
Q 2306 3072 2169 3072 
Q 1681 3072 1420 2755 
Q 1159 2438 1159 1844 
L 1159 0 
L 581 0 
L 581 3500 
L 1159 3500 
L 1159 2956 
Q 1341 3275 1631 3429 
Q 1922 3584 2338 3584 
Q 2397 3584 2469 3576 
Q 2541 3569 2628 3553 
L 2631 2963 
z
" transform="scale(0.015625)"/>
       <path id="DejaVuSans-65" d="M 3597 1894 
L 3597 1613 
L 953 1613 
Q 991 1019 1311 708 
Q 1631 397 2203 397 
Q 2534 397 2845 478 
Q 3156 559 3463 722 
L 3463 178 
Q 3153 47 2828 -22 
Q 2503 -91 2169 -91 
Q 1331 -91 842 396 
Q 353 884 353 1716 
Q 353 2575 817 3079 
Q 1281 3584 2069 3584 
Q 2775 3584 3186 3129 
Q 3597 2675 3597 1894 
z
M 3022 2063 
Q 3016 2534 2758 2815 
Q 2500 3097 2075 3097 
Q 1594 3097 1305 2825 
Q 1016 2553 972 2059 
L 3022 2063 
z
" transform="scale(0.015625)"/>
       <path id="DejaVuSans-71" d="M 947 1747 
Q 947 1113 1208 752 
Q 1469 391 1925 391 
Q 2381 391 2643 752 
Q 2906 1113 2906 1747 
Q 2906 2381 2643 2742 
Q 2381 3103 1925 3103 
Q 1469 3103 1208 2742 
Q 947 2381 947 1747 
z
M 2906 525 
Q 2725 213 2448 61 
Q 2172 -91 1784 -91 
Q 1150 -91 751 415 
Q 353 922 353 1747 
Q 353 2572 751 3078 
Q 1150 3584 1784 3584 
Q 2172 3584 2448 3432 
Q 2725 3281 2906 2969 
L 2906 3500 
L 3481 3500 
L 3481 -1331 
L 2906 -1331 
L 2906 525 
z
" transform="scale(0.015625)"/>
       <path id="DejaVuSans-75" d="M 544 1381 
L 544 3500 
L 1119 3500 
L 1119 1403 
Q 1119 906 1312 657 
Q 1506 409 1894 409 
Q 2359 409 2629 706 
Q 2900 1003 2900 1516 
L 2900 3500 
L 3475 3500 
L 3475 0 
L 2900 0 
L 2900 538 
Q 2691 219 2414 64 
Q 2138 -91 1772 -91 
Q 1169 -91 856 284 
Q 544 659 544 1381 
z
M 1991 3584 
L 1991 3584 
z
" transform="scale(0.015625)"/>
       <path id="DejaVuSans-6e" d="M 3513 2113 
L 3513 0 
L 2938 0 
L 2938 2094 
Q 2938 2591 2744 2837 
Q 2550 3084 2163 3084 
Q 1697 3084 1428 2787 
Q 1159 2491 1159 1978 
L 1159 0 
L 581 0 
L 581 3500 
L 1159 3500 
L 1159 2956 
Q 1366 3272 1645 3428 
Q 1925 3584 2291 3584 
Q 2894 3584 3203 3211 
Q 3513 2838 3513 2113 
z
" transform="scale(0.015625)"/>
       <path id="DejaVuSans-63" d="M 3122 3366 
L 3122 2828 
Q 2878 2963 2633 3030 
Q 2388 3097 2138 3097 
Q 1578 3097 1268 2742 
Q 959 2388 959 1747 
Q 959 1106 1268 751 
Q 1578 397 2138 397 
Q 2388 397 2633 464 
Q 2878 531 3122 666 
L 3122 134 
Q 2881 22 2623 -34 
Q 2366 -91 2075 -91 
Q 1284 -91 818 406 
Q 353 903 353 1747 
Q 353 2603 823 3093 
Q 1294 3584 2113 3584 
Q 2378 3584 2631 3529 
Q 2884 3475 3122 3366 
z
" transform="scale(0.015625)"/>
       <path id="DejaVuSans-79" d="M 2059 -325 
Q 1816 -950 1584 -1140 
Q 1353 -1331 966 -1331 
L 506 -1331 
L 506 -850 
L 844 -850 
Q 1081 -850 1212 -737 
Q 1344 -625 1503 -206 
L 1606 56 
L 191 3500 
L 800 3500 
L 1894 763 
L 2988 3500 
L 3597 3500 
L 2059 -325 
z
" transform="scale(0.015625)"/>
       <path id="DejaVuSans-20" transform="scale(0.015625)"/>
       <path id="DejaVuSans-5b" d="M 550 4863 
L 1875 4863 
L 1875 4416 
L 1125 4416 
L 1125 -397 
L 1875 -397 
L 1875 -844 
L 550 -844 
L 550 4863 
z
" transform="scale(0.015625)"/>
       <path id="DejaVuSans-48" d="M 628 4666 
L 1259 4666 
L 1259 2753 
L 3553 2753 
L 3553 4666 
L 4184 4666 
L 4184 0 
L 3553 0 
L 3553 2222 
L 1259 2222 
L 1259 0 
L 628 0 
L 628 4666 
z
" transform="scale(0.015625)"/>
       <path id="DejaVuSans-7a" d="M 353 3500 
L 3084 3500 
L 3084 2975 
L 922 459 
L 3084 459 
L 3084 0 
L 275 0 
L 275 525 
L 2438 3041 
L 353 3041 
L 353 3500 
z
" transform="scale(0.015625)"/>
       <path id="DejaVuSans-5d" d="M 1947 4863 
L 1947 -844 
L 622 -844 
L 622 -397 
L 1369 -397 
L 1369 4416 
L 622 4416 
L 622 4863 
L 1947 4863 
z
" transform="scale(0.015625)"/>
      </defs>
      <use xlink:href="#DejaVuSans-46"/>
      <use xlink:href="#DejaVuSans-72" transform="translate(50.269531 0)"/>
      <use xlink:href="#DejaVuSans-65" transform="translate(89.132812 0)"/>
      <use xlink:href="#DejaVuSans-71" transform="translate(150.65625 0)"/>
      <use xlink:href="#DejaVuSans-75" transform="translate(214.132812 0)"/>
      <use xlink:href="#DejaVuSans-65" transform="translate(277.511719 0)"/>
      <use xlink:href="#DejaVuSans-6e" transform="translate(339.035156 0)"/>
      <use xlink:href="#DejaVuSans-63" transform="translate(402.414062 0)"/>
      <use xlink:href="#DejaVuSans-79" transform="translate(457.394531 0)"/>
      <use xlink:href="#DejaVuSans-20" transform="translate(516.574219 0)"/>
      <use xlink:href="#DejaVuSans-5b" transform="translate(548.361328 0)"/>
      <use xlink:href="#DejaVuSans-48" transform="translate(587.375 0)"/>
      <use xlink:href="#DejaVuSans-7a" transform="translate(662.570312 0)"/>
      <use xlink:href="#DejaVuSans-5d" transform="translate(715.060547 0)"/>
     </g>
    </g>
   </g>
   <g id="matplotlib.axis_2">
    <g id="ytick_1">
     <g id="line2d_13">
      <path d="M 49.40375 358.471658 
L 699.48375 358.471658 
" clip-path="url(#p635c271007)" style="fill: none; stroke-dasharray: 2.96,1.28; stroke-dashoffset: 0; stroke: #b0b0b0; stroke-opacity: 0.3; stroke-width: 0.8"/>
     </g>
     <g id="line2d_14">
      <defs>
       <path id="ma55dcdb94b" d="M 0 0 
L -3.5 0 
" style="stroke: #000000; stroke-width: 0.8"/>
      </defs>
      <g>
       <use xlink:href="#ma55dcdb94b" x="49.40375" y="358.471658" style="stroke: #000000; stroke-width: 0.8"/>
      </g>
     </g>
     <g id="text_8">
      <!-- 0.0 -->
      <g transform="translate(23.32 363.03072) scale(0.12 -0.12)">
       <defs>
        <path id="DejaVuSans-2e" d="M 684 794 
L 1344 794 
L 1344 0 
L 684 0 
L 684 794 
z
" transform="scale(0.015625)"/>
       </defs>
       <use xlink:href="#DejaVuSans-30"/>
       <use xlink:href="#DejaVuSans-2e" transform="translate(63.623047 0)"/>
       <use xlink:href="#DejaVuSans-30" transform="translate(95.410156 0)"/>
      </g>
     </g>
    </g>
    <g id="ytick_2">
     <g id="line2d_15">
      <path d="M 49.40375 313.943878 
L 699.48375 313.943878 
" clip-path="url(#p635c271007)" style="fill: none; stroke-dasharray: 2.96,1.28; stroke-dashoffset: 0; stroke: #b0b0b0; stroke-opacity: 0.3; stroke-width: 0.8"/>
     </g>
     <g id="line2d_16">
      <g>
       <use xlink:href="#ma55dcdb94b" x="49.40375" y="313.943878" style="stroke: #000000; stroke-width: 0.8"/>
      </g>
     </g>
     <g id="text_9">
      <!-- 0.5 -->
      <g transform="translate(23.32 318.50294) scale(0.12 -0.12)">
       <use xlink:href="#DejaVuSans-30"/>
       <use xlink:href="#DejaVuSans-2e" transform="translate(63.623047 0)"/>
       <use xlink:href="#DejaVuSans-35" transform="translate(95.410156 0)"/>
      </g>
     </g>
    </g>
    <g id="ytick_3">
     <g id="line2d_17">
      <path d="M 49.40375 269.416098 
L 699.48375 269.416098 
" clip-path="url(#p635c271007)" style="fill: none; stroke-dasharray: 2.96,1.28; stroke-dashoffset: 0; stroke: #b0b0b0; stroke-opacity: 0.3; stroke-width: 0.8"/>
     </g>
     <g id="line2d_18">
      <g>
       <use xlink:href="#ma55dcdb94b" x="49.40375" y="269.416098" style="stroke: #000000; stroke-width: 0.8"/>
      </g>
     </g>
     <g id="text_10">
      <!-- 1.0 -->
      <g transform="translate(23.32 273.975161) scale(0.12 -0.12)">
       <use xlink:href="#DejaVuSans-31"/>
       <use xlink:href="#DejaVuSans-2e" transform="translate(63.623047 0)"/>
       <use xlink:href="#DejaVuSans-30" transform="translate(95.410156 0)"/>
      </g>
     </g>
    </g>
    <g id="ytick_4">
     <g id="line2d_19">
      <path d="M 49.40375 224.888318 
L 699.48375 224.888318 
" clip-path="url(#p635c271007)" style="fill: none; stroke-dasharray: 2.96,1.28; stroke-dashoffset: 0; stroke: #b0b0b0; stroke-opacity: 0.3; stroke-width: 0.8"/>
     </g>
     <g id="line2d_20">
      <g>
       <use xlink:href="#ma55dcdb94b" x="49.40375" y="224.888318" style="stroke: #000000; stroke-width: 0.8"/>
      </g>
     </g>
     <g id="text_11">
      <!-- 1.5 -->
      <g transform="translate(23.32 229.447381) scale(0.12 -0.12)">
       <use xlink:href="#DejaVuSans-31"/>
       <use xlink:href="#DejaVuSans-2e" transform="translate(63.623047 0)"/>
       <use xlink:href="#DejaVuSans-35" transform="translate(95.410156 0)"/>
      </g>
     </g>
    </g>
    <g id="ytick_5">
     <g id="line2d_21">
      <path d="M 49.40375 180.360538 
L 699.48375 180.360538 
" clip-path="url(#p635c271007)" style="fill: none; stroke-dasharray: 2.96,1.28; stroke-dashoffset: 0; stroke: #b0b0b0; stroke-opacity: 0.3; stroke-width: 0.8"/>
     </g>
     <g id="line2d_22">
      <g>
       <use xlink:href="#ma55dcdb94b" x="49.40375" y="180.360538" style="stroke: #000000; stroke-width: 0.8"/>
      </g>
     </g>
     <g id="text_12">
      <!-- 2.0 -->
      <g transform="translate(23.32 184.919601) scale(0.12 -0.12)">
       <use xlink:href="#DejaVuSans-32"/>
       <use xlink:href="#DejaVuSans-2e" transform="translate(63.623047 0)"/>
       <use xlink:href="#DejaVuSans-30" transform="translate(95.410156 0)"/>
      </g>
     </g>
    </g>
    <g id="ytick_6">
     <g id="line2d_23">
      <path d="M 49.40375 135.832759 
L 699.48375 135.832759 
" clip-path="url(#p635c271007)" style="fill: none; stroke-dasharray: 2.96,1.28; stroke-dashoffset: 0; stroke: #b0b0b0; stroke-opacity: 0.3; stroke-width: 0.8"/>
     </g>
     <g id="line2d_24">
      <g>
       <use xlink:href="#ma55dcdb94b" x="49.40375" y="135.832759" style="stroke: #000000; stroke-width: 0.8"/>
      </g>
     </g>
     <g id="text_13">
      <!-- 2.5 -->
      <g transform="translate(23.32 140.391821) scale(0.12 -0.12)">
       <use xlink:href="#DejaVuSans-32"/>
       <use xlink:href="#DejaVuSans-2e" transform="translate(63.623047 0)"/>
       <use xlink:href="#DejaVuSans-35" transform="translate(95.410156 0)"/>
      </g>
     </g>
    </g>
    <g id="ytick_7">
     <g id="line2d_25">
      <path d="M 49.40375 91.304979 
L 699.48375 91.304979 
" clip-path="url(#p635c271007)" style="fill: none; stroke-dasharray: 2.96,1.28; stroke-dashoffset: 0; stroke: #b0b0b0; stroke-opacity: 0.3; stroke-width: 0.8"/>
     </g>
     <g id="line2d_26">
      <g>
       <use xlink:href="#ma55dcdb94b" x="49.40375" y="91.304979" style="stroke: #000000; stroke-width: 0.8"/>
      </g>
     </g>
     <g id="text_14">
      <!-- 3.0 -->
      <g transform="translate(23.32 95.864041) scale(0.12 -0.12)">
       <defs>
        <path id="DejaVuSans-33" d="M 2597 2516 
Q 3050 2419 3304 2112 
Q 3559 1806 3559 1356 
Q 3559 666 3084 287 
Q 2609 -91 1734 -91 
Q 1441 -91 1130 -33 
Q 819 25 488 141 
L 488 750 
Q 750 597 1062 519 
Q 1375 441 1716 441 
Q 2309 441 2620 675 
Q 2931 909 2931 1356 
Q 2931 1769 2642 2001 
Q 2353 2234 1838 2234 
L 1294 2234 
L 1294 2753 
L 1863 2753 
Q 2328 2753 2575 2939 
Q 2822 3125 2822 3475 
Q 2822 3834 2567 4026 
Q 2313 4219 1838 4219 
Q 1578 4219 1281 4162 
Q 984 4106 628 3988 
L 628 4550 
Q 988 4650 1302 4700 
Q 1616 4750 1894 4750 
Q 2613 4750 3031 4423 
Q 3450 4097 3450 3541 
Q 3450 3153 3228 2886 
Q 3006 2619 2597 2516 
z
" transform="scale(0.015625)"/>
       </defs>
       <use xlink:href="#DejaVuSans-33"/>
       <use xlink:href="#DejaVuSans-2e" transform="translate(63.623047 0)"/>
       <use xlink:href="#DejaVuSans-30" transform="translate(95.410156 0)"/>
      </g>
     </g>
    </g>
    <g id="ytick_8">
     <g id="line2d_27">
      <path d="M 49.40375 46.777199 
L 699.48375 46.777199 
" clip-path="url(#p635c271007)" style="fill: none; stroke-dasharray: 2.96,1.28; stroke-dashoffset: 0; stroke: #b0b0b0; stroke-opacity: 0.3; stroke-width: 0.8"/>
     </g>
     <g id="line2d_28">
      <g>
       <use xlink:href="#ma55dcdb94b" x="49.40375" y="46.777199" style="stroke: #000000; stroke-width: 0.8"/>
      </g>
     </g>
     <g id="text_15">
      <!-- 3.5 -->
      <g transform="translate(23.32 51.336262) scale(0.12 -0.12)">
       <use xlink:href="#DejaVuSans-33"/>
       <use xlink:href="#DejaVuSans-2e" transform="translate(63.623047 0)"/>
       <use xlink:href="#DejaVuSans-35" transform="translate(95.410156 0)"/>
      </g>
     </g>
    </g>
    <g id="text_16">
     <!-- $|Z|$ [$\Omega$] -->
     <g transform="translate(16.44 220.957812) rotate(-90) scale(0.12 -0.12)">
      <defs>
       <path id="DejaVuSans-7c" d="M 1344 4891 
L 1344 -1509 
L 813 -1509 
L 813 4891 
L 1344 4891 
z
" transform="scale(0.015625)"/>
       <path id="DejaVuSans-Oblique-5a" d="M 838 4666 
L 4500 4666 
L 4409 4184 
L 794 531 
L 3769 531 
L 3669 0 
L -141 0 
L -50 481 
L 3566 4134 
L 738 4134 
L 838 4666 
z
" transform="scale(0.015625)"/>
       <path id="DejaVuSans-3a9" d="M 4647 556 
L 4647 0 
L 2772 0 
L 2772 556 
Q 3325 859 3634 1378 
Q 3944 1897 3944 2528 
Q 3944 3278 3531 3731 
Q 3119 4184 2444 4184 
Q 1769 4184 1355 3729 
Q 941 3275 941 2528 
Q 941 1897 1250 1378 
Q 1563 859 2119 556 
L 2119 0 
L 244 0 
L 244 556 
L 1241 556 
Q 747 991 519 1456 
Q 294 1922 294 2497 
Q 294 3491 894 4106 
Q 1491 4722 2444 4722 
Q 3391 4722 3994 4106 
Q 4594 3494 4594 2528 
Q 4594 1922 4372 1459 
Q 4150 997 3647 556 
L 4647 556 
z
" transform="scale(0.015625)"/>
      </defs>
      <use xlink:href="#DejaVuSans-7c" transform="translate(0 0.578125)"/>
      <use xlink:href="#DejaVuSans-Oblique-5a" transform="translate(33.691406 0.578125)"/>
      <use xlink:href="#DejaVuSans-7c" transform="translate(102.197266 0.578125)"/>
      <use xlink:href="#DejaVuSans-20" transform="translate(135.888672 0.578125)"/>
      <use xlink:href="#DejaVuSans-5b" transform="translate(167.675781 0.578125)"/>
      <use xlink:href="#DejaVuSans-3a9" transform="translate(206.689453 0.578125)"/>
      <use xlink:href="#DejaVuSans-5d" transform="translate(283.105469 0.578125)"/>
     </g>
    </g>
    <g id="text_17">
     <!-- 1e13 -->
     <g transform="translate(49.40375 20.837812) scale(0.12 -0.12)">
      <use xlink:href="#DejaVuSans-31"/>
      <use xlink:href="#DejaVuSans-65" transform="translate(63.623047 0)"/>
      <use xlink:href="#DejaVuSans-31" transform="translate(125.146484 0)"/>
      <use xlink:href="#DejaVuSans-33" transform="translate(188.769531 0)"/>
     </g>
    </g>
   </g>
   <g id="line2d_29">
    <path d="M 78.952841 358.471658 
L 565.191732 358.361247 
L 578.787033 358.381975 
L 585.407354 358.607715 
L 590.609034 358.997422 
L 595.219614 359.558149 
L 599.948415 360.370358 
L 605.268315 361.516573 
L 610.706435 362.675233 
L 614.134815 363.119361 
L 616.144556 363.142655 
L 618.154296 362.889604 
L 619.927596 362.361127 
L 621.228016 361.743244 
L 622.528436 360.890162 
L 623.828856 359.758048 
L 625.129276 358.302597 
L 626.429696 356.473564 
L 627.730116 354.215088 
L 629.030536 351.466774 
L 630.094517 348.823244 
L 631.276717 345.431243 
L 633.759337 336.367099 
L 634.705097 332.088132 
L 635.059757 330.456497 
L 637.778817 315.26071 
L 638.133477 312.931508 
L 639.197457 305.56844 
L 639.433897 304.085196 
L 641.443637 287.417964 
L 641.680077 285.082382 
L 642.507617 276.825922 
L 642.625837 277.439562 
L 643.098717 270.749254 
L 643.808037 264.155317 
L 644.162697 259.61791 
L 644.280917 258.997149 
L 644.635577 253.418273 
L 644.753797 253.565315 
L 645.699558 242.619537 
L 645.817778 238.862613 
L 645.935998 238.94786 
L 646.054218 240.254879 
L 646.172438 235.276593 
L 646.290658 235.630989 
L 646.408878 233.602589 
L 646.527098 233.494642 
L 646.645318 231.597552 
L 646.763538 232.37794 
L 646.999978 224.894159 
L 647.118198 225.290318 
L 647.236418 221.730333 
L 647.354638 223.657853 
L 647.709298 213.781421 
L 647.827518 217.799629 
L 647.945738 216.195229 
L 648.182178 208.983968 
L 648.300398 207.321422 
L 648.418618 208.830272 
L 648.536838 208.11441 
L 648.655058 205.060131 
L 648.773278 205.105751 
L 648.891498 200.315172 
L 649.009718 203.323404 
L 649.127938 195.270944 
L 649.246158 195.22316 
L 649.600818 189.297286 
L 649.719038 192.260948 
L 649.837258 187.789151 
L 649.955478 187.929185 
L 650.073698 185.803445 
L 650.191918 181.175387 
L 650.310138 181.349982 
L 650.428358 181.907108 
L 650.546578 173.506343 
L 650.664798 177.903852 
L 650.901238 166.180279 
L 651.019458 169.733015 
L 651.137678 166.407128 
L 651.255898 169.941936 
L 651.374118 169.920124 
L 651.492338 162.680673 
L 651.610558 169.286244 
L 651.846998 156.342801 
L 651.965218 158.423496 
L 652.201658 146.747091 
L 652.556318 154.792004 
L 652.792758 139.616829 
L 652.910978 140.980962 
L 653.029198 147.540762 
L 653.147418 137.156627 
L 653.265638 140.980063 
L 653.383858 136.216867 
L 653.502078 136.639125 
L 653.738518 126.613917 
L 653.856738 125.766214 
L 653.974958 135.125336 
L 654.211398 113.196068 
L 654.329618 115.492883 
L 654.447838 114.76938 
L 654.684278 120.777242 
L 654.802498 107.45916 
L 654.920718 107.872593 
L 655.038938 119.078173 
L 655.157158 118.012173 
L 655.275378 118.834578 
L 655.393598 104.036437 
L 655.511818 108.777283 
L 655.630038 89.865185 
L 655.748258 105.119832 
L 655.866478 96.079312 
L 655.984698 107.582699 
L 656.221138 86.343112 
L 656.339358 89.234923 
L 656.457578 99.77196 
L 656.575798 94.629507 
L 656.694018 75.542488 
L 656.812238 86.306156 
L 656.930458 71.597446 
L 657.048678 80.187042 
L 657.166898 73.88287 
L 657.285118 83.040943 
L 657.403338 73.464735 
L 657.521558 82.841728 
L 657.639778 69.197849 
L 657.757998 74.696751 
L 657.876218 71.928485 
L 657.994438 72.578381 
L 658.112658 80.257216 
L 658.349098 57.515078 
L 658.467318 79.051102 
L 658.585538 63.126114 
L 658.703758 65.922364 
L 658.821978 54.32438 
L 658.940198 62.590872 
L 659.058418 60.314514 
L 659.176638 46.826063 
L 659.413078 62.259608 
L 659.531298 41.319331 
L 659.767738 63.708583 
L 659.885958 48.166608 
L 660.004178 64.886325 
L 660.122398 65.127205 
L 660.240618 62.146651 
L 660.477058 39.995994 
L 660.595278 43.880011 
L 660.713498 57.228439 
L 660.831719 57.13087 
L 660.949939 52.743237 
L 661.068159 43.522623 
L 661.304599 52.642299 
L 661.422819 47.380263 
L 661.659259 70.587995 
L 662.013919 46.891571 
L 662.132139 50.062134 
L 662.250359 60.660361 
L 662.486799 54.963157 
L 662.605019 60.550523 
L 662.723239 59.862377 
L 662.841459 61.510518 
L 663.077899 66.845795 
L 663.196119 53.060356 
L 663.314339 62.925787 
L 663.432559 43.090659 
L 663.550779 73.714109 
L 663.668999 66.944568 
L 663.905439 73.167041 
L 664.023659 85.14811 
L 664.141879 71.221134 
L 664.260099 77.341384 
L 664.378319 68.227204 
L 664.496539 93.893795 
L 664.732979 79.371578 
L 664.851199 87.052378 
L 664.969419 76.184274 
L 665.205859 98.306383 
L 665.324079 104.801693 
L 665.442299 104.59116 
L 665.560519 107.181067 
L 666.151619 131.734062 
L 666.269839 131.087051 
L 666.506279 140.151006 
L 667.097379 171.755551 
L 667.215599 169.958203 
L 667.452039 188.895539 
L 667.688479 197.718841 
L 668.516019 248.57159 
L 669.698219 338.00207 
L 669.934659 358.471658 
L 669.934659 358.471658 
" clip-path="url(#p635c271007)" style="fill: none; stroke: #1f77b4; stroke-width: 2.2; stroke-linecap: square"/>
   </g>
   <g id="patch_3">
    <path d="M 49.40375 379.317812 
L 49.40375 23.837812 
" style="fill: none; stroke: #000000; stroke-width: 0.8; stroke-linejoin: miter; stroke-linecap: square"/>
   </g>
   <g id="patch_4">
    <path d="M 49.40375 379.317812 
L 699.48375 379.317812 
" style="fill: none; stroke: #000000; stroke-width: 0.8; stroke-linejoin: miter; stroke-linecap: square"/>
   </g>
   <g id="text_18">
    <!-- Global Lagrange Interpolation -->
    <g transform="translate(269.875781 17.837812) scale(0.14 -0.14)">
     <defs>
      <path id="DejaVuSans-47" d="M 3809 666 
L 3809 1919 
L 2778 1919 
L 2778 2438 
L 4434 2438 
L 4434 434 
Q 4069 175 3628 42 
Q 3188 -91 2688 -91 
Q 1594 -91 976 548 
Q 359 1188 359 2328 
Q 359 3472 976 4111 
Q 1594 4750 2688 4750 
Q 3144 4750 3555 4637 
Q 3966 4525 4313 4306 
L 4313 3634 
Q 3963 3931 3569 4081 
Q 3175 4231 2741 4231 
Q 1884 4231 1454 3753 
Q 1025 3275 1025 2328 
Q 1025 1384 1454 906 
Q 1884 428 2741 428 
Q 3075 428 3337 486 
Q 3600 544 3809 666 
z
" transform="scale(0.015625)"/>
      <path id="DejaVuSans-6c" d="M 603 4863 
L 1178 4863 
L 1178 0 
L 603 0 
L 603 4863 
z
" transform="scale(0.015625)"/>
      <path id="DejaVuSans-6f" d="M 1959 3097 
Q 1497 3097 1228 2736 
Q 959 2375 959 1747 
Q 959 1119 1226 758 
Q 1494 397 1959 397 
Q 2419 397 2687 759 
Q 2956 1122 2956 1747 
Q 2956 2369 2687 2733 
Q 2419 3097 1959 3097 
z
M 1959 3584 
Q 2709 3584 3137 3096 
Q 3566 2609 3566 1747 
Q 3566 888 3137 398 
Q 2709 -91 1959 -91 
Q 1206 -91 779 398 
Q 353 888 353 1747 
Q 353 2609 779 3096 
Q 1206 3584 1959 3584 
z
" transform="scale(0.015625)"/>
      <path id="DejaVuSans-62" d="M 3116 1747 
Q 3116 2381 2855 2742 
Q 2594 3103 2138 3103 
Q 1681 3103 1420 2742 
Q 1159 2381 1159 1747 
Q 1159 1113 1420 752 
Q 1681 391 2138 391 
Q 2594 391 2855 752 
Q 3116 1113 3116 1747 
z
M 1159 2969 
Q 1341 3281 1617 3432 
Q 1894 3584 2278 3584 
Q 2916 3584 3314 3078 
Q 3713 2572 3713 1747 
Q 3713 922 3314 415 
Q 2916 -91 2278 -91 
Q 1894 -91 1617 61 
Q 1341 213 1159 525 
L 1159 0 
L 581 0 
L 581 4863 
L 1159 4863 
L 1159 2969 
z
" transform="scale(0.015625)"/>
      <path id="DejaVuSans-61" d="M 2194 1759 
Q 1497 1759 1228 1600 
Q 959 1441 959 1056 
Q 959 750 1161 570 
Q 1363 391 1709 391 
Q 2188 391 2477 730 
Q 2766 1069 2766 1631 
L 2766 1759 
L 2194 1759 
z
M 3341 1997 
L 3341 0 
L 2766 0 
L 2766 531 
Q 2569 213 2275 61 
Q 1981 -91 1556 -91 
Q 1019 -91 701 211 
Q 384 513 384 1019 
Q 384 1609 779 1909 
Q 1175 2209 1959 2209 
L 2766 2209 
L 2766 2266 
Q 2766 2663 2505 2880 
Q 2244 3097 1772 3097 
Q 1472 3097 1187 3025 
Q 903 2953 641 2809 
L 641 3341 
Q 956 3463 1253 3523 
Q 1550 3584 1831 3584 
Q 2591 3584 2966 3190 
Q 3341 2797 3341 1997 
z
" transform="scale(0.015625)"/>
      <path id="DejaVuSans-4c" d="M 628 4666 
L 1259 4666 
L 1259 531 
L 3531 531 
L 3531 0 
L 628 0 
L 628 4666 
z
" transform="scale(0.015625)"/>
      <path id="DejaVuSans-67" d="M 2906 1791 
Q 2906 2416 2648 2759 
Q 2391 3103 1925 3103 
Q 1463 3103 1205 2759 
Q 947 2416 947 1791 
Q 947 1169 1205 825 
Q 1463 481 1925 481 
Q 2391 481 2648 825 
Q 2906 1169 2906 1791 
z
M 3481 434 
Q 3481 -459 3084 -895 
Q 2688 -1331 1869 -1331 
Q 1566 -1331 1297 -1286 
Q 1028 -1241 775 -1147 
L 775 -588 
Q 1028 -725 1275 -790 
Q 1522 -856 1778 -856 
Q 2344 -856 2625 -561 
Q 2906 -266 2906 331 
L 2906 616 
Q 2728 306 2450 153 
Q 2172 0 1784 0 
Q 1141 0 747 490 
Q 353 981 353 1791 
Q 353 2603 747 3093 
Q 1141 3584 1784 3584 
Q 2172 3584 2450 3431 
Q 2728 3278 2906 2969 
L 2906 3500 
L 3481 3500 
L 3481 434 
z
" transform="scale(0.015625)"/>
      <path id="DejaVuSans-49" d="M 628 4666 
L 1259 4666 
L 1259 0 
L 628 0 
L 628 4666 
z
" transform="scale(0.015625)"/>
      <path id="DejaVuSans-74" d="M 1172 4494 
L 1172 3500 
L 2356 3500 
L 2356 3053 
L 1172 3053 
L 1172 1153 
Q 1172 725 1289 603 
Q 1406 481 1766 481 
L 2356 481 
L 2356 0 
L 1766 0 
Q 1100 0 847 248 
Q 594 497 594 1153 
L 594 3053 
L 172 3053 
L 172 3500 
L 594 3500 
L 594 4494 
L 1172 4494 
z
" transform="scale(0.015625)"/>
      <path id="DejaVuSans-70" d="M 1159 525 
L 1159 -1331 
L 581 -1331 
L 581 3500 
L 1159 3500 
L 1159 2969 
Q 1341 3281 1617 3432 
Q 1894 3584 2278 3584 
Q 2916 3584 3314 3078 
Q 3713 2572 3713 1747 
Q 3713 922 3314 415 
Q 2916 -91 2278 -91 
Q 1894 -91 1617 61 
Q 1341 213 1159 525 
z
M 3116 1747 
Q 3116 2381 2855 2742 
Q 2594 3103 2138 3103 
Q 1681 3103 1420 2742 
Q 1159 2381 1159 1747 
Q 1159 1113 1420 752 
Q 1681 391 2138 391 
Q 2594 391 2855 752 
Q 3116 1113 3116 1747 
z
" transform="scale(0.015625)"/>
      <path id="DejaVuSans-69" d="M 603 3500 
L 1178 3500 
L 1178 0 
L 603 0 
L 603 3500 
z
M 603 4863 
L 1178 4863 
L 1178 4134 
L 603 4134 
L 603 4863 
z
" transform="scale(0.015625)"/>
     </defs>
     <use xlink:href="#DejaVuSans-47"/>
     <use xlink:href="#DejaVuSans-6c" transform="translate(77.490234 0)"/>
     <use xlink:href="#DejaVuSans-6f" transform="translate(105.273438 0)"/>
     <use xlink:href="#DejaVuSans-62" transform="translate(166.455078 0)"/>
     <use xlink:href="#DejaVuSans-61" transform="translate(229.931641 0)"/>
     <use xlink:href="#DejaVuSans-6c" transform="translate(291.210938 0)"/>
     <use xlink:href="#DejaVuSans-20" transform="translate(318.994141 0)"/>
     <use xlink:href="#DejaVuSans-4c" transform="translate(350.78125 0)"/>
     <use xlink:href="#DejaVuSans-61" transform="translate(406.494141 0)"/>
     <use xlink:href="#DejaVuSans-67" transform="translate(467.773438 0)"/>
     <use xlink:href="#DejaVuSans-72" transform="translate(531.25 0)"/>
     <use xlink:href="#DejaVuSans-61" transform="translate(572.363281 0)"/>
     <use xlink:href="#DejaVuSans-6e" transform="translate(633.642578 0)"/>
     <use xlink:href="#DejaVuSans-67" transform="translate(697.021484 0)"/>
     <use xlink:href="#DejaVuSans-65" transform="translate(760.498047 0)"/>
     <use xlink:href="#DejaVuSans-20" transform="translate(822.021484 0)"/>
     <use xlink:href="#DejaVuSans-49" transform="translate(853.808594 0)"/>
     <use xlink:href="#DejaVuSans-6e" transform="translate(883.300781 0)"/>
     <use xlink:href="#DejaVuSans-74" transform="translate(946.679688 0)"/>
     <use xlink:href="#DejaVuSans-65" transform="translate(985.888672 0)"/>
     <use xlink:href="#DejaVuSans-72" transform="translate(1047.412109 0)"/>
     <use xlink:href="#DejaVuSans-70" transform="translate(1088.525391 0)"/>
     <use xlink:href="#DejaVuSans-6f" transform="translate(1152.001953 0)"/>
     <use xlink:href="#DejaVuSans-6c" transform="translate(1213.183594 0)"/>
     <use xlink:href="#DejaVuSans-61" transform="translate(1240.966797 0)"/>
     <use xlink:href="#DejaVuSans-74" transform="translate(1302.246094 0)"/>
     <use xlink:href="#DejaVuSans-69" transform="translate(1341.455078 0)"/>
     <use xlink:href="#DejaVuSans-6f" transform="translate(1369.238281 0)"/>
     <use xlink:href="#DejaVuSans-6e" transform="translate(1430.419922 0)"/>
    </g>
   </g>
   <g id="PathCollection_1">
    <defs>
     <path id="m15748660c5" d="M 0 3.354102 
C 0.889518 3.354102 1.742724 3.000693 2.371708 2.371708 
C 3.000693 1.742724 3.354102 0.889518 3.354102 0 
C 3.354102 -0.889518 3.000693 -1.742724 2.371708 -2.371708 
C 1.742724 -3.000693 0.889518 -3.354102 0 -3.354102 
C -0.889518 -3.354102 -1.742724 -3.000693 -2.371708 -2.371708 
C -3.000693 -1.742724 -3.354102 -0.889518 -3.354102 0 
C -3.354102 0.889518 -3.000693 1.742724 -2.371708 2.371708 
C -1.742724 3.000693 -0.889518 3.354102 0 3.354102 
z
" style="stroke: #000000"/>
    </defs>
    <g clip-path="url(#p635c271007)">
     <use xlink:href="#m15748660c5" x="78.952841" y="358.471658" style="stroke: #000000"/>
     <use xlink:href="#m15748660c5" x="83.446999" y="358.471658" style="stroke: #000000"/>
     <use xlink:href="#m15748660c5" x="89.064697" y="358.471658" style="stroke: #000000"/>
     <use xlink:href="#m15748660c5" x="94.682395" y="358.471658" style="stroke: #000000"/>
     <use xlink:href="#m15748660c5" x="101.423632" y="358.471658" style="stroke: #000000"/>
     <use xlink:href="#m15748660c5" x="109.28841" y="358.471658" style="stroke: #000000"/>
     <use xlink:href="#m15748660c5" x="117.153187" y="358.471658" style="stroke: #000000"/>
     <use xlink:href="#m15748660c5" x="126.141503" y="358.471658" style="stroke: #000000"/>
     <use xlink:href="#m15748660c5" x="136.253359" y="358.471658" style="stroke: #000000"/>
     <use xlink:href="#m15748660c5" x="147.488755" y="358.471658" style="stroke: #000000"/>
     <use xlink:href="#m15748660c5" x="159.847691" y="358.471658" style="stroke: #000000"/>
     <use xlink:href="#m15748660c5" x="173.330165" y="358.471658" style="stroke: #000000"/>
     <use xlink:href="#m15748660c5" x="187.93618" y="358.471658" style="stroke: #000000"/>
     <use xlink:href="#m15748660c5" x="203.665734" y="358.471658" style="stroke: #000000"/>
     <use xlink:href="#m15748660c5" x="220.518828" y="358.471658" style="stroke: #000000"/>
     <use xlink:href="#m15748660c5" x="238.495461" y="358.471658" style="stroke: #000000"/>
     <use xlink:href="#m15748660c5" x="257.595634" y="358.471658" style="stroke: #000000"/>
     <use xlink:href="#m15748660c5" x="277.819346" y="358.471658" style="stroke: #000000"/>
     <use xlink:href="#m15748660c5" x="299.166598" y="358.471658" style="stroke: #000000"/>
     <use xlink:href="#m15748660c5" x="321.63739" y="358.471658" style="stroke: #000000"/>
     <use xlink:href="#m15748660c5" x="346.355261" y="358.471658" style="stroke: #000000"/>
     <use xlink:href="#m15748660c5" x="373.32021" y="358.471658" style="stroke: #000000"/>
     <use xlink:href="#m15748660c5" x="402.532239" y="358.471658" style="stroke: #000000"/>
     <use xlink:href="#m15748660c5" x="433.991348" y="358.471658" style="stroke: #000000"/>
     <use xlink:href="#m15748660c5" x="467.697535" y="358.471658" style="stroke: #000000"/>
     <use xlink:href="#m15748660c5" x="503.650802" y="358.471658" style="stroke: #000000"/>
     <use xlink:href="#m15748660c5" x="541.851147" y="358.471658" style="stroke: #000000"/>
     <use xlink:href="#m15748660c5" x="582.298572" y="358.471658" style="stroke: #000000"/>
     <use xlink:href="#m15748660c5" x="624.993076" y="358.471658" style="stroke: #000000"/>
     <use xlink:href="#m15748660c5" x="669.934659" y="358.471658" style="stroke: #000000"/>
    </g>
   </g>
   <g id="legend_1">
    <g id="patch_5">
     <path d="M 56.40375 75.872187 
L 244.094375 75.872187 
Q 246.094375 75.872187 246.094375 73.872187 
L 246.094375 30.837812 
Q 246.094375 28.837812 244.094375 28.837812 
L 56.40375 28.837812 
Q 54.40375 28.837812 54.40375 30.837812 
L 54.40375 73.872187 
Q 54.40375 75.872187 56.40375 75.872187 
z
" style="fill: #ffffff; opacity: 0.8; stroke: #cccccc; stroke-linejoin: miter"/>
    </g>
    <g id="PathCollection_2">
     <g>
      <use xlink:href="#m15748660c5" x="68.40375" y="37.81125" style="stroke: #000000"/>
     </g>
    </g>
    <g id="text_19">
     <!-- Experimental data -->
     <g transform="translate(86.40375 40.43625) scale(0.1 -0.1)">
      <defs>
       <path id="DejaVuSans-45" d="M 628 4666 
L 3578 4666 
L 3578 4134 
L 1259 4134 
L 1259 2753 
L 3481 2753 
L 3481 2222 
L 1259 2222 
L 1259 531 
L 3634 531 
L 3634 0 
L 628 0 
L 628 4666 
z
" transform="scale(0.015625)"/>
       <path id="DejaVuSans-78" d="M 3513 3500 
L 2247 1797 
L 3578 0 
L 2900 0 
L 1881 1375 
L 863 0 
L 184 0 
L 1544 1831 
L 300 3500 
L 978 3500 
L 1906 2253 
L 2834 3500 
L 3513 3500 
z
" transform="scale(0.015625)"/>
       <path id="DejaVuSans-6d" d="M 3328 2828 
Q 3544 3216 3844 3400 
Q 4144 3584 4550 3584 
Q 5097 3584 5394 3201 
Q 5691 2819 5691 2113 
L 5691 0 
L 5113 0 
L 5113 2094 
Q 5113 2597 4934 2840 
Q 4756 3084 4391 3084 
Q 3944 3084 3684 2787 
Q 3425 2491 3425 1978 
L 3425 0 
L 2847 0 
L 2847 2094 
Q 2847 2600 2669 2842 
Q 2491 3084 2119 3084 
Q 1678 3084 1418 2786 
Q 1159 2488 1159 1978 
L 1159 0 
L 581 0 
L 581 3500 
L 1159 3500 
L 1159 2956 
Q 1356 3278 1631 3431 
Q 1906 3584 2284 3584 
Q 2666 3584 2933 3390 
Q 3200 3197 3328 2828 
z
" transform="scale(0.015625)"/>
       <path id="DejaVuSans-64" d="M 2906 2969 
L 2906 4863 
L 3481 4863 
L 3481 0 
L 2906 0 
L 2906 525 
Q 2725 213 2448 61 
Q 2172 -91 1784 -91 
Q 1150 -91 751 415 
Q 353 922 353 1747 
Q 353 2572 751 3078 
Q 1150 3584 1784 3584 
Q 2172 3584 2448 3432 
Q 2725 3281 2906 2969 
z
M 947 1747 
Q 947 1113 1208 752 
Q 1469 391 1925 391 
Q 2381 391 2643 752 
Q 2906 1113 2906 1747 
Q 2906 2381 2643 2742 
Q 2381 3103 1925 3103 
Q 1469 3103 1208 2742 
Q 947 2381 947 1747 
z
" transform="scale(0.015625)"/>
      </defs>
      <use xlink:href="#DejaVuSans-45"/>
      <use xlink:href="#DejaVuSans-78" transform="translate(63.183594 0)"/>
      <use xlink:href="#DejaVuSans-70" transform="translate(122.363281 0)"/>
      <use xlink:href="#DejaVuSans-65" transform="translate(185.839844 0)"/>
      <use xlink:href="#DejaVuSans-72" transform="translate(247.363281 0)"/>
      <use xlink:href="#DejaVuSans-69" transform="translate(288.476562 0)"/>
      <use xlink:href="#DejaVuSans-6d" transform="translate(316.259766 0)"/>
      <use xlink:href="#DejaVuSans-65" transform="translate(413.671875 0)"/>
      <use xlink:href="#DejaVuSans-6e" transform="translate(475.195312 0)"/>
      <use xlink:href="#DejaVuSans-74" transform="translate(538.574219 0)"/>
      <use xlink:href="#DejaVuSans-61" transform="translate(577.783203 0)"/>
      <use xlink:href="#DejaVuSans-6c" transform="translate(639.0625 0)"/>
      <use xlink:href="#DejaVuSans-20" transform="translate(666.845703 0)"/>
      <use xlink:href="#DejaVuSans-64" transform="translate(698.632812 0)"/>
      <use xlink:href="#DejaVuSans-61" transform="translate(762.109375 0)"/>
      <use xlink:href="#DejaVuSans-74" transform="translate(823.388672 0)"/>
      <use xlink:href="#DejaVuSans-61" transform="translate(862.597656 0)"/>
     </g>
    </g>
    <g id="line2d_30">
     <path d="M 58.40375 51.614375 
L 68.40375 51.614375 
L 78.40375 51.614375 
" style="fill: none; stroke: #1f77b4; stroke-width: 2.2; stroke-linecap: square"/>
    </g>
    <g id="text_20">
     <!-- Lagrange (deg=29, nodes=30) -->
     <g transform="translate(86.40375 55.114375) scale(0.1 -0.1)">
      <defs>
       <path id="DejaVuSans-28" d="M 1984 4856 
Q 1566 4138 1362 3434 
Q 1159 2731 1159 2009 
Q 1159 1288 1364 580 
Q 1569 -128 1984 -844 
L 1484 -844 
Q 1016 -109 783 600 
Q 550 1309 550 2009 
Q 550 2706 781 3412 
Q 1013 4119 1484 4856 
L 1984 4856 
z
" transform="scale(0.015625)"/>
       <path id="DejaVuSans-3d" d="M 678 2906 
L 4684 2906 
L 4684 2381 
L 678 2381 
L 678 2906 
z
M 678 1631 
L 4684 1631 
L 4684 1100 
L 678 1100 
L 678 1631 
z
" transform="scale(0.015625)"/>
       <path id="DejaVuSans-39" d="M 703 97 
L 703 672 
Q 941 559 1184 500 
Q 1428 441 1663 441 
Q 2288 441 2617 861 
Q 2947 1281 2994 2138 
Q 2813 1869 2534 1725 
Q 2256 1581 1919 1581 
Q 1219 1581 811 2004 
Q 403 2428 403 3163 
Q 403 3881 828 4315 
Q 1253 4750 1959 4750 
Q 2769 4750 3195 4129 
Q 3622 3509 3622 2328 
Q 3622 1225 3098 567 
Q 2575 -91 1691 -91 
Q 1453 -91 1209 -44 
Q 966 3 703 97 
z
M 1959 2075 
Q 2384 2075 2632 2365 
Q 2881 2656 2881 3163 
Q 2881 3666 2632 3958 
Q 2384 4250 1959 4250 
Q 1534 4250 1286 3958 
Q 1038 3666 1038 3163 
Q 1038 2656 1286 2365 
Q 1534 2075 1959 2075 
z
" transform="scale(0.015625)"/>
       <path id="DejaVuSans-2c" d="M 750 794 
L 1409 794 
L 1409 256 
L 897 -744 
L 494 -744 
L 750 256 
L 750 794 
z
" transform="scale(0.015625)"/>
       <path id="DejaVuSans-73" d="M 2834 3397 
L 2834 2853 
Q 2591 2978 2328 3040 
Q 2066 3103 1784 3103 
Q 1356 3103 1142 2972 
Q 928 2841 928 2578 
Q 928 2378 1081 2264 
Q 1234 2150 1697 2047 
L 1894 2003 
Q 2506 1872 2764 1633 
Q 3022 1394 3022 966 
Q 3022 478 2636 193 
Q 2250 -91 1575 -91 
Q 1294 -91 989 -36 
Q 684 19 347 128 
L 347 722 
Q 666 556 975 473 
Q 1284 391 1588 391 
Q 1994 391 2212 530 
Q 2431 669 2431 922 
Q 2431 1156 2273 1281 
Q 2116 1406 1581 1522 
L 1381 1569 
Q 847 1681 609 1914 
Q 372 2147 372 2553 
Q 372 3047 722 3315 
Q 1072 3584 1716 3584 
Q 2034 3584 2315 3537 
Q 2597 3491 2834 3397 
z
" transform="scale(0.015625)"/>
       <path id="DejaVuSans-29" d="M 513 4856 
L 1013 4856 
Q 1481 4119 1714 3412 
Q 1947 2706 1947 2009 
Q 1947 1309 1714 600 
Q 1481 -109 1013 -844 
L 513 -844 
Q 928 -128 1133 580 
Q 1338 1288 1338 2009 
Q 1338 2731 1133 3434 
Q 928 4138 513 4856 
z
" transform="scale(0.015625)"/>
      </defs>
      <use xlink:href="#DejaVuSans-4c"/>
      <use xlink:href="#DejaVuSans-61" transform="translate(55.712891 0)"/>
      <use xlink:href="#DejaVuSans-67" transform="translate(116.992188 0)"/>
      <use xlink:href="#DejaVuSans-72" transform="translate(180.46875 0)"/>
      <use xlink:href="#DejaVuSans-61" transform="translate(221.582031 0)"/>
      <use xlink:href="#DejaVuSans-6e" transform="translate(282.861328 0)"/>
      <use xlink:href="#DejaVuSans-67" transform="translate(346.240234 0)"/>
      <use xlink:href="#DejaVuSans-65" transform="translate(409.716797 0)"/>
      <use xlink:href="#DejaVuSans-20" transform="translate(471.240234 0)"/>
      <use xlink:href="#DejaVuSans-28" transform="translate(503.027344 0)"/>
      <use xlink:href="#DejaVuSans-64" transform="translate(542.041016 0)"/>
      <use xlink:href="#DejaVuSans-65" transform="translate(605.517578 0)"/>
      <use xlink:href="#DejaVuSans-67" transform="translate(667.041016 0)"/>
      <use xlink:href="#DejaVuSans-3d" transform="translate(730.517578 0)"/>
      <use xlink:href="#DejaVuSans-32" transform="translate(814.306641 0)"/>
      <use xlink:href="#DejaVuSans-39" transform="translate(877.929688 0)"/>
      <use xlink:href="#DejaVuSans-2c" transform="translate(941.552734 0)"/>
      <use xlink:href="#DejaVuSans-20" transform="translate(973.339844 0)"/>
      <use xlink:href="#DejaVuSans-6e" transform="translate(1005.126953 0)"/>
      <use xlink:href="#DejaVuSans-6f" transform="translate(1068.505859 0)"/>
      <use xlink:href="#DejaVuSans-64" transform="translate(1129.6875 0)"/>
      <use xlink:href="#DejaVuSans-65" transform="translate(1193.164062 0)"/>
      <use xlink:href="#DejaVuSans-73" transform="translate(1254.6875 0)"/>
      <use xlink:href="#DejaVuSans-3d" transform="translate(1306.787109 0)"/>
      <use xlink:href="#DejaVuSans-33" transform="translate(1390.576172 0)"/>
      <use xlink:href="#DejaVuSans-30" transform="translate(1454.199219 0)"/>
      <use xlink:href="#DejaVuSans-29" transform="translate(1517.822266 0)"/>
     </g>
    </g>
    <g id="PathCollection_3">
     <defs>
      <path id="m2326e82442" d="M -4.031129 4.031129 
L 4.031129 -4.031129 
M -4.031129 -4.031129 
L 4.031129 4.031129 
" style="stroke: #1f77b4; stroke-width: 2.2"/>
     </defs>
     <g>
      <use xlink:href="#m2326e82442" x="68.40375" y="67.1675" style="fill: #1f77b4; stroke: #1f77b4; stroke-width: 2.2"/>
     </g>
    </g>
    <g id="text_21">
     <!-- Interpolation nodes -->
     <g transform="translate(86.40375 69.7925) scale(0.1 -0.1)">
      <use xlink:href="#DejaVuSans-49"/>
      <use xlink:href="#DejaVuSans-6e" transform="translate(29.492188 0)"/>
      <use xlink:href="#DejaVuSans-74" transform="translate(92.871094 0)"/>
      <use xlink:href="#DejaVuSans-65" transform="translate(132.080078 0)"/>
      <use xlink:href="#DejaVuSans-72" transform="translate(193.603516 0)"/>
      <use xlink:href="#DejaVuSans-70" transform="translate(234.716797 0)"/>
      <use xlink:href="#DejaVuSans-6f" transform="translate(298.193359 0)"/>
      <use xlink:href="#DejaVuSans-6c" transform="translate(359.375 0)"/>
      <use xlink:href="#DejaVuSans-61" transform="translate(387.158203 0)"/>
      <use xlink:href="#DejaVuSans-74" transform="translate(448.4375 0)"/>
      <use xlink:href="#DejaVuSans-69" transform="translate(487.646484 0)"/>
      <use xlink:href="#DejaVuSans-6f" transform="translate(515.429688 0)"/>
      <use xlink:href="#DejaVuSans-6e" transform="translate(576.611328 0)"/>
      <use xlink:href="#DejaVuSans-20" transform="translate(639.990234 0)"/>
      <use xlink:href="#DejaVuSans-6e" transform="translate(671.777344 0)"/>
      <use xlink:href="#DejaVuSans-6f" transform="translate(735.15625 0)"/>
      <use xlink:href="#DejaVuSans-64" transform="translate(796.337891 0)"/>
      <use xlink:href="#DejaVuSans-65" transform="translate(859.814453 0)"/>
      <use xlink:href="#DejaVuSans-73" transform="translate(921.337891 0)"/>
     </g>
    </g>
   </g>
   <g id="PathCollection_4">
    <g clip-path="url(#p635c271007)">
     <use xlink:href="#m2326e82442" x="78.952841" y="358.471658" style="fill: #1f77b4; stroke: #1f77b4; stroke-width: 2.2"/>
     <use xlink:href="#m2326e82442" x="83.446999" y="358.471658" style="fill: #1f77b4; stroke: #1f77b4; stroke-width: 2.2"/>
     <use xlink:href="#m2326e82442" x="89.064697" y="358.471658" style="fill: #1f77b4; stroke: #1f77b4; stroke-width: 2.2"/>
     <use xlink:href="#m2326e82442" x="94.682395" y="358.471658" style="fill: #1f77b4; stroke: #1f77b4; stroke-width: 2.2"/>
     <use xlink:href="#m2326e82442" x="101.423632" y="358.471658" style="fill: #1f77b4; stroke: #1f77b4; stroke-width: 2.2"/>
     <use xlink:href="#m2326e82442" x="109.28841" y="358.471658" style="fill: #1f77b4; stroke: #1f77b4; stroke-width: 2.2"/>
     <use xlink:href="#m2326e82442" x="117.153187" y="358.471658" style="fill: #1f77b4; stroke: #1f77b4; stroke-width: 2.2"/>
     <use xlink:href="#m2326e82442" x="126.141503" y="358.471658" style="fill: #1f77b4; stroke: #1f77b4; stroke-width: 2.2"/>
     <use xlink:href="#m2326e82442" x="136.253359" y="358.471658" style="fill: #1f77b4; stroke: #1f77b4; stroke-width: 2.2"/>
     <use xlink:href="#m2326e82442" x="147.488755" y="358.471658" style="fill: #1f77b4; stroke: #1f77b4; stroke-width: 2.2"/>
     <use xlink:href="#m2326e82442" x="159.847691" y="358.471658" style="fill: #1f77b4; stroke: #1f77b4; stroke-width: 2.2"/>
     <use xlink:href="#m2326e82442" x="173.330165" y="358.471658" style="fill: #1f77b4; stroke: #1f77b4; stroke-width: 2.2"/>
     <use xlink:href="#m2326e82442" x="187.93618" y="358.471658" style="fill: #1f77b4; stroke: #1f77b4; stroke-width: 2.2"/>
     <use xlink:href="#m2326e82442" x="203.665734" y="358.471658" style="fill: #1f77b4; stroke: #1f77b4; stroke-width: 2.2"/>
     <use xlink:href="#m2326e82442" x="220.518828" y="358.471658" style="fill: #1f77b4; stroke: #1f77b4; stroke-width: 2.2"/>
     <use xlink:href="#m2326e82442" x="238.495461" y="358.471658" style="fill: #1f77b4; stroke: #1f77b4; stroke-width: 2.2"/>
     <use xlink:href="#m2326e82442" x="257.595634" y="358.471658" style="fill: #1f77b4; stroke: #1f77b4; stroke-width: 2.2"/>
     <use xlink:href="#m2326e82442" x="277.819346" y="358.471658" style="fill: #1f77b4; stroke: #1f77b4; stroke-width: 2.2"/>
     <use xlink:href="#m2326e82442" x="299.166598" y="358.471658" style="fill: #1f77b4; stroke: #1f77b4; stroke-width: 2.2"/>
     <use xlink:href="#m2326e82442" x="321.63739" y="358.471658" style="fill: #1f77b4; stroke: #1f77b4; stroke-width: 2.2"/>
     <use xlink:href="#m2326e82442" x="346.355261" y="358.471658" style="fill: #1f77b4; stroke: #1f77b4; stroke-width: 2.2"/>
     <use xlink:href="#m2326e82442" x="373.32021" y="358.471658" style="fill: #1f77b4; stroke: #1f77b4; stroke-width: 2.2"/>
     <use xlink:href="#m2326e82442" x="402.532239" y="358.471658" style="fill: #1f77b4; stroke: #1f77b4; stroke-width: 2.2"/>
     <use xlink:href="#m2326e82442" x="433.991348" y="358.471658" style="fill: #1f77b4; stroke: #1f77b4; stroke-width: 2.2"/>
     <use xlink:href="#m2326e82442" x="467.697535" y="358.471658" style="fill: #1f77b4; stroke: #1f77b4; stroke-width: 2.2"/>
     <use xlink:href="#m2326e82442" x="503.650802" y="358.471658" style="fill: #1f77b4; stroke: #1f77b4; stroke-width: 2.2"/>
     <use xlink:href="#m2326e82442" x="541.851147" y="358.471658" style="fill: #1f77b4; stroke: #1f77b4; stroke-width: 2.2"/>
     <use xlink:href="#m2326e82442" x="582.298572" y="358.471658" style="fill: #1f77b4; stroke: #1f77b4; stroke-width: 2.2"/>
     <use xlink:href="#m2326e82442" x="624.993076" y="358.471658" style="fill: #1f77b4; stroke: #1f77b4; stroke-width: 2.2"/>
     <use xlink:href="#m2326e82442" x="669.934659" y="358.471658" style="fill: #1f77b4; stroke: #1f77b4; stroke-width: 2.2"/>
    </g>
   </g>
  </g>
 </g>
 <defs>
  <clipPath id="p635c271007">
   <rect x="49.40375" y="23.837812" width="650.08" height="355.48"/>
  </clipPath>
 </defs>
</svg>
