<?xml version="1.0" encoding="utf-8" standalone="no"?>
<!DOCTYPE svg PUBLIC "-//W3C//DTD SVG 1.1//EN"
  "http://www.w3.org/Graphics/SVG/1.1/DTD/svg11.dtd">
<svg xmlns:xlink="http://www.w3.org/1999/xlink" width="852.48pt" height="492.48pt" viewBox="0 0 852.48 492.48" xmlns="http://www.w3.org/2000/svg" version="1.1">
 <metadata>
  <rdf:RDF xmlns:dc="http://purl.org/dc/elements/1.1/" xmlns:cc="http://creativecommons.org/ns#" xmlns:rdf="http://www.w3.org/1999/02/22-rdf-syntax-ns#">
   <cc:Work>
    <dc:type rdf:resource="http://purl.org/dc/dcmitype/StillImage"/>
    <dc:date>2026-05-24T20:48:16.450778</dc:date>
    <dc:format>image/svg+xml</dc:format>
    <dc:creator>
     <cc:Agent>
      <dc:title>Matplotlib v3.10.9, https://matplotlib.org/</dc:title>
     </cc:Agent>
    </dc:creator>
   </cc:Work>
  </rdf:RDF>
 </metadata>
 <defs>
  <style type="text/css">*{stroke-linejoin: round; stroke-linecap: butt}</style>
 </defs>
 <g id="figure_1">
  <g id="patch_1">
   <path d="M 0 492.48 
L 852.48 492.48 
L 852.48 0 
L 0 0 
z
" style="fill: #ffffff"/>
  </g>
  <g id="axes_1">
   <g id="patch_2">
    <path d="M 53.225 451.0525 
L 845.28 451.0525 
L 845.28 23.837812 
L 53.225 23.837812 
z
" style="fill: #ffffff"/>
   </g>
   <g id="matplotlib.axis_1">
    <g id="xtick_1">
     <g id="line2d_1">
      <path d="M 61.849173 451.0525 
L 61.849173 23.837812 
" clip-path="url(#pf7096feb8d)" style="fill: none; stroke-dasharray: 2.96,1.28; stroke-dashoffset: 0; stroke: #b0b0b0; stroke-opacity: 0.3; stroke-width: 0.8"/>
     </g>
     <g id="line2d_2">
      <defs>
       <path id="m59b90fbf0a" d="M 0 0 
L 0 3.5 
" style="stroke: #000000; stroke-width: 0.8"/>
      </defs>
      <g>
       <use xlink:href="#m59b90fbf0a" x="61.849173" y="451.0525" style="stroke: #000000; stroke-width: 0.8"/>
      </g>
     </g>
     <g id="text_1">
      <!-- 0 -->
      <g transform="translate(58.031673 467.170625) scale(0.12 -0.12)">
       <defs>
        <path id="DejaVuSans-30" d="M 2034 4250 
Q 1547 4250 1301 3770 
Q 1056 3291 1056 2328 
Q 1056 1369 1301 889 
Q 1547 409 2034 409 
Q 2525 409 2770 889 
Q 3016 1369 3016 2328 
Q 3016 3291 2770 3770 
Q 2525 4250 2034 4250 
z
M 2034 4750 
Q 2819 4750 3233 4129 
Q 3647 3509 3647 2328 
Q 3647 1150 3233 529 
Q 2819 -91 2034 -91 
Q 1250 -91 836 529 
Q 422 1150 422 2328 
Q 422 3509 836 4129 
Q 1250 4750 2034 4750 
z
" transform="scale(0.015625)"/>
       </defs>
       <use xlink:href="#DejaVuSans-30"/>
      </g>
     </g>
    </g>
    <g id="xtick_2">
     <g id="line2d_3">
      <path d="M 198.740808 451.0525 
L 198.740808 23.837812 
" clip-path="url(#pf7096feb8d)" style="fill: none; stroke-dasharray: 2.96,1.28; stroke-dashoffset: 0; stroke: #b0b0b0; stroke-opacity: 0.3; stroke-width: 0.8"/>
     </g>
     <g id="line2d_4">
      <g>
       <use xlink:href="#m59b90fbf0a" x="198.740808" y="451.0525" style="stroke: #000000; stroke-width: 0.8"/>
      </g>
     </g>
     <g id="text_2">
      <!-- 500 -->
      <g transform="translate(187.288308 467.170625) scale(0.12 -0.12)">
       <defs>
        <path id="DejaVuSans-35" d="M 691 4666 
L 3169 4666 
L 3169 4134 
L 1269 4134 
L 1269 2991 
Q 1406 3038 1543 3061 
Q 1681 3084 1819 3084 
Q 2600 3084 3056 2656 
Q 3513 2228 3513 1497 
Q 3513 744 3044 326 
Q 2575 -91 1722 -91 
Q 1428 -91 1123 -41 
Q 819 9 494 109 
L 494 744 
Q 775 591 1075 516 
Q 1375 441 1709 441 
Q 2250 441 2565 725 
Q 2881 1009 2881 1497 
Q 2881 1984 2565 2268 
Q 2250 2553 1709 2553 
Q 1456 2553 1204 2497 
Q 953 2441 691 2322 
L 691 4666 
z
" transform="scale(0.015625)"/>
       </defs>
       <use xlink:href="#DejaVuSans-35"/>
       <use xlink:href="#DejaVuSans-30" transform="translate(63.623047 0)"/>
       <use xlink:href="#DejaVuSans-30" transform="translate(127.246094 0)"/>
      </g>
     </g>
    </g>
    <g id="xtick_3">
     <g id="line2d_5">
      <path d="M 335.632443 451.0525 
L 335.632443 23.837812 
" clip-path="url(#pf7096feb8d)" style="fill: none; stroke-dasharray: 2.96,1.28; stroke-dashoffset: 0; stroke: #b0b0b0; stroke-opacity: 0.3; stroke-width: 0.8"/>
     </g>
     <g id="line2d_6">
      <g>
       <use xlink:href="#m59b90fbf0a" x="335.632443" y="451.0525" style="stroke: #000000; stroke-width: 0.8"/>
      </g>
     </g>
     <g id="text_3">
      <!-- 1000 -->
      <g transform="translate(320.362443 467.170625) scale(0.12 -0.12)">
       <defs>
        <path id="DejaVuSans-31" d="M 794 531 
L 1825 531 
L 1825 4091 
L 703 3866 
L 703 4441 
L 1819 4666 
L 2450 4666 
L 2450 531 
L 3481 531 
L 3481 0 
L 794 0 
L 794 531 
z
" transform="scale(0.015625)"/>
       </defs>
       <use xlink:href="#DejaVuSans-31"/>
       <use xlink:href="#DejaVuSans-30" transform="translate(63.623047 0)"/>
       <use xlink:href="#DejaVuSans-30" transform="translate(127.246094 0)"/>
       <use xlink:href="#DejaVuSans-30" transform="translate(190.869141 0)"/>
      </g>
     </g>
    </g>
    <g id="xtick_4">
     <g id="line2d_7">
      <path d="M 472.524078 451.0525 
L 472.524078 23.837812 
" clip-path="url(#pf7096feb8d)" style="fill: none; stroke-dasharray: 2.96,1.28; stroke-dashoffset: 0; stroke: #b0b0b0; stroke-opacity: 0.3; stroke-width: 0.8"/>
     </g>
     <g id="line2d_8">
      <g>
       <use xlink:href="#m59b90fbf0a" x="472.524078" y="451.0525" style="stroke: #000000; stroke-width: 0.8"/>
      </g>
     </g>
     <g id="text_4">
      <!-- 1500 -->
      <g transform="translate(457.254078 467.170625) scale(0.12 -0.12)">
       <use xlink:href="#DejaVuSans-31"/>
       <use xlink:href="#DejaVuSans-35" transform="translate(63.623047 0)"/>
       <use xlink:href="#DejaVuSans-30" transform="translate(127.246094 0)"/>
       <use xlink:href="#DejaVuSans-30" transform="translate(190.869141 0)"/>
      </g>
     </g>
    </g>
    <g id="xtick_5">
     <g id="line2d_9">
      <path d="M 609.415713 451.0525 
L 609.415713 23.837812 
" clip-path="url(#pf7096feb8d)" style="fill: none; stroke-dasharray: 2.96,1.28; stroke-dashoffset: 0; stroke: #b0b0b0; stroke-opacity: 0.3; stroke-width: 0.8"/>
     </g>
     <g id="line2d_10">
      <g>
       <use xlink:href="#m59b90fbf0a" x="609.415713" y="451.0525" style="stroke: #000000; stroke-width: 0.8"/>
      </g>
     </g>
     <g id="text_5">
      <!-- 2000 -->
      <g transform="translate(594.145713 467.170625) scale(0.12 -0.12)">
       <defs>
        <path id="DejaVuSans-32" d="M 1228 531 
L 3431 531 
L 3431 0 
L 469 0 
L 469 531 
Q 828 903 1448 1529 
Q 2069 2156 2228 2338 
Q 2531 2678 2651 2914 
Q 2772 3150 2772 3378 
Q 2772 3750 2511 3984 
Q 2250 4219 1831 4219 
Q 1534 4219 1204 4116 
Q 875 4013 500 3803 
L 500 4441 
Q 881 4594 1212 4672 
Q 1544 4750 1819 4750 
Q 2544 4750 2975 4387 
Q 3406 4025 3406 3419 
Q 3406 3131 3298 2873 
Q 3191 2616 2906 2266 
Q 2828 2175 2409 1742 
Q 1991 1309 1228 531 
z
" transform="scale(0.015625)"/>
       </defs>
       <use xlink:href="#DejaVuSans-32"/>
       <use xlink:href="#DejaVuSans-30" transform="translate(63.623047 0)"/>
       <use xlink:href="#DejaVuSans-30" transform="translate(127.246094 0)"/>
       <use xlink:href="#DejaVuSans-30" transform="translate(190.869141 0)"/>
      </g>
     </g>
    </g>
    <g id="xtick_6">
     <g id="line2d_11">
      <path d="M 746.307348 451.0525 
L 746.307348 23.837812 
" clip-path="url(#pf7096feb8d)" style="fill: none; stroke-dasharray: 2.96,1.28; stroke-dashoffset: 0; stroke: #b0b0b0; stroke-opacity: 0.3; stroke-width: 0.8"/>
     </g>
     <g id="line2d_12">
      <g>
       <use xlink:href="#m59b90fbf0a" x="746.307348" y="451.0525" style="stroke: #000000; stroke-width: 0.8"/>
      </g>
     </g>
     <g id="text_6">
      <!-- 2500 -->
      <g transform="translate(731.037348 467.170625) scale(0.12 -0.12)">
       <use xlink:href="#DejaVuSans-32"/>
       <use xlink:href="#DejaVuSans-35" transform="translate(63.623047 0)"/>
       <use xlink:href="#DejaVuSans-30" transform="translate(127.246094 0)"/>
       <use xlink:href="#DejaVuSans-30" transform="translate(190.869141 0)"/>
      </g>
     </g>
    </g>
    <g id="text_7">
     <!-- Frequency [Hz] -->
     <g transform="translate(404.006875 482.784375) scale(0.12 -0.12)">
      <defs>
       <path id="DejaVuSans-46" d="M 628 4666 
L 3309 4666 
L 3309 4134 
L 1259 4134 
L 1259 2759 
L 3109 2759 
L 3109 2228 
L 1259 2228 
L 1259 0 
L 628 0 
L 628 4666 
z
" transform="scale(0.015625)"/>
       <path id="DejaVuSans-72" d="M 2631 2963 
Q 2534 3019 2420 3045 
Q 2306 3072 2169 3072 
Q 1681 3072 1420 2755 
Q 1159 2438 1159 1844 
L 1159 0 
L 581 0 
L 581 3500 
L 1159 3500 
L 1159 2956 
Q 1341 3275 1631 3429 
Q 1922 3584 2338 3584 
Q 2397 3584 2469 3576 
Q 2541 3569 2628 3553 
L 2631 2963 
z
" transform="scale(0.015625)"/>
       <path id="DejaVuSans-65" d="M 3597 1894 
L 3597 1613 
L 953 1613 
Q 991 1019 1311 708 
Q 1631 397 2203 397 
Q 2534 397 2845 478 
Q 3156 559 3463 722 
L 3463 178 
Q 3153 47 2828 -22 
Q 2503 -91 2169 -91 
Q 1331 -91 842 396 
Q 353 884 353 1716 
Q 353 2575 817 3079 
Q 1281 3584 2069 3584 
Q 2775 3584 3186 3129 
Q 3597 2675 3597 1894 
z
M 3022 2063 
Q 3016 2534 2758 2815 
Q 2500 3097 2075 3097 
Q 1594 3097 1305 2825 
Q 1016 2553 972 2059 
L 3022 2063 
z
" transform="scale(0.015625)"/>
       <path id="DejaVuSans-71" d="M 947 1747 
Q 947 1113 1208 752 
Q 1469 391 1925 391 
Q 2381 391 2643 752 
Q 2906 1113 2906 1747 
Q 2906 2381 2643 2742 
Q 2381 3103 1925 3103 
Q 1469 3103 1208 2742 
Q 947 2381 947 1747 
z
M 2906 525 
Q 2725 213 2448 61 
Q 2172 -91 1784 -91 
Q 1150 -91 751 415 
Q 353 922 353 1747 
Q 353 2572 751 3078 
Q 1150 3584 1784 3584 
Q 2172 3584 2448 3432 
Q 2725 3281 2906 2969 
L 2906 3500 
L 3481 3500 
L 3481 -1331 
L 2906 -1331 
L 2906 525 
z
" transform="scale(0.015625)"/>
       <path id="DejaVuSans-75" d="M 544 1381 
L 544 3500 
L 1119 3500 
L 1119 1403 
Q 1119 906 1312 657 
Q 1506 409 1894 409 
Q 2359 409 2629 706 
Q 2900 1003 2900 1516 
L 2900 3500 
L 3475 3500 
L 3475 0 
L 2900 0 
L 2900 538 
Q 2691 219 2414 64 
Q 2138 -91 1772 -91 
Q 1169 -91 856 284 
Q 544 659 544 1381 
z
M 1991 3584 
L 1991 3584 
z
" transform="scale(0.015625)"/>
       <path id="DejaVuSans-6e" d="M 3513 2113 
L 3513 0 
L 2938 0 
L 2938 2094 
Q 2938 2591 2744 2837 
Q 2550 3084 2163 3084 
Q 1697 3084 1428 2787 
Q 1159 2491 1159 1978 
L 1159 0 
L 581 0 
L 581 3500 
L 1159 3500 
L 1159 2956 
Q 1366 3272 1645 3428 
Q 1925 3584 2291 3584 
Q 2894 3584 3203 3211 
Q 3513 2838 3513 2113 
z
" transform="scale(0.015625)"/>
       <path id="DejaVuSans-63" d="M 3122 3366 
L 3122 2828 
Q 2878 2963 2633 3030 
Q 2388 3097 2138 3097 
Q 1578 3097 1268 2742 
Q 959 2388 959 1747 
Q 959 1106 1268 751 
Q 1578 397 2138 397 
Q 2388 397 2633 464 
Q 2878 531 3122 666 
L 3122 134 
Q 2881 22 2623 -34 
Q 2366 -91 2075 -91 
Q 1284 -91 818 406 
Q 353 903 353 1747 
Q 353 2603 823 3093 
Q 1294 3584 2113 3584 
Q 2378 3584 2631 3529 
Q 2884 3475 3122 3366 
z
" transform="scale(0.015625)"/>
       <path id="DejaVuSans-79" d="M 2059 -325 
Q 1816 -950 1584 -1140 
Q 1353 -1331 966 -1331 
L 506 -1331 
L 506 -850 
L 844 -850 
Q 1081 -850 1212 -737 
Q 1344 -625 1503 -206 
L 1606 56 
L 191 3500 
L 800 3500 
L 1894 763 
L 2988 3500 
L 3597 3500 
L 2059 -325 
z
" transform="scale(0.015625)"/>
       <path id="DejaVuSans-20" transform="scale(0.015625)"/>
       <path id="DejaVuSans-5b" d="M 550 4863 
L 1875 4863 
L 1875 4416 
L 1125 4416 
L 1125 -397 
L 1875 -397 
L 1875 -844 
L 550 -844 
L 550 4863 
z
" transform="scale(0.015625)"/>
       <path id="DejaVuSans-48" d="M 628 4666 
L 1259 4666 
L 1259 2753 
L 3553 2753 
L 3553 4666 
L 4184 4666 
L 4184 0 
L 3553 0 
L 3553 2222 
L 1259 2222 
L 1259 0 
L 628 0 
L 628 4666 
z
" transform="scale(0.015625)"/>
       <path id="DejaVuSans-7a" d="M 353 3500 
L 3084 3500 
L 3084 2975 
L 922 459 
L 3084 459 
L 3084 0 
L 275 0 
L 275 525 
L 2438 3041 
L 353 3041 
L 353 3500 
z
" transform="scale(0.015625)"/>
       <path id="DejaVuSans-5d" d="M 1947 4863 
L 1947 -844 
L 622 -844 
L 622 -397 
L 1369 -397 
L 1369 4416 
L 622 4416 
L 622 4863 
L 1947 4863 
z
" transform="scale(0.015625)"/>
      </defs>
      <use xlink:href="#DejaVuSans-46"/>
      <use xlink:href="#DejaVuSans-72" transform="translate(50.269531 0)"/>
      <use xlink:href="#DejaVuSans-65" transform="translate(89.132812 0)"/>
      <use xlink:href="#DejaVuSans-71" transform="translate(150.65625 0)"/>
      <use xlink:href="#DejaVuSans-75" transform="translate(214.132812 0)"/>
      <use xlink:href="#DejaVuSans-65" transform="translate(277.511719 0)"/>
      <use xlink:href="#DejaVuSans-6e" transform="translate(339.035156 0)"/>
      <use xlink:href="#DejaVuSans-63" transform="translate(402.414062 0)"/>
      <use xlink:href="#DejaVuSans-79" transform="translate(457.394531 0)"/>
      <use xlink:href="#DejaVuSans-20" transform="translate(516.574219 0)"/>
      <use xlink:href="#DejaVuSans-5b" transform="translate(548.361328 0)"/>
      <use xlink:href="#DejaVuSans-48" transform="translate(587.375 0)"/>
      <use xlink:href="#DejaVuSans-7a" transform="translate(662.570312 0)"/>
      <use xlink:href="#DejaVuSans-5d" transform="translate(715.060547 0)"/>
     </g>
    </g>
   </g>
   <g id="matplotlib.axis_2">
    <g id="ytick_1">
     <g id="line2d_13">
      <path d="M 53.225 443.91612 
L 845.28 443.91612 
" clip-path="url(#pf7096feb8d)" style="fill: none; stroke-dasharray: 2.96,1.28; stroke-dashoffset: 0; stroke: #b0b0b0; stroke-opacity: 0.3; stroke-width: 0.8"/>
     </g>
     <g id="line2d_14">
      <defs>
       <path id="m624968f080" d="M 0 0 
L -3.5 0 
" style="stroke: #000000; stroke-width: 0.8"/>
      </defs>
      <g>
       <use xlink:href="#m624968f080" x="53.225" y="443.91612" style="stroke: #000000; stroke-width: 0.8"/>
      </g>
     </g>
     <g id="text_8">
      <!-- 130 -->
      <g transform="translate(23.32 448.475182) scale(0.12 -0.12)">
       <defs>
        <path id="DejaVuSans-33" d="M 2597 2516 
Q 3050 2419 3304 2112 
Q 3559 1806 3559 1356 
Q 3559 666 3084 287 
Q 2609 -91 1734 -91 
Q 1441 -91 1130 -33 
Q 819 25 488 141 
L 488 750 
Q 750 597 1062 519 
Q 1375 441 1716 441 
Q 2309 441 2620 675 
Q 2931 909 2931 1356 
Q 2931 1769 2642 2001 
Q 2353 2234 1838 2234 
L 1294 2234 
L 1294 2753 
L 1863 2753 
Q 2328 2753 2575 2939 
Q 2822 3125 2822 3475 
Q 2822 3834 2567 4026 
Q 2313 4219 1838 4219 
Q 1578 4219 1281 4162 
Q 984 4106 628 3988 
L 628 4550 
Q 988 4650 1302 4700 
Q 1616 4750 1894 4750 
Q 2613 4750 3031 4423 
Q 3450 4097 3450 3541 
Q 3450 3153 3228 2886 
Q 3006 2619 2597 2516 
z
" transform="scale(0.015625)"/>
       </defs>
       <use xlink:href="#DejaVuSans-31"/>
       <use xlink:href="#DejaVuSans-33" transform="translate(63.623047 0)"/>
       <use xlink:href="#DejaVuSans-30" transform="translate(127.246094 0)"/>
      </g>
     </g>
    </g>
    <g id="ytick_2">
     <g id="line2d_15">
      <path d="M 53.225 375.310048 
L 845.28 375.310048 
" clip-path="url(#pf7096feb8d)" style="fill: none; stroke-dasharray: 2.96,1.28; stroke-dashoffset: 0; stroke: #b0b0b0; stroke-opacity: 0.3; stroke-width: 0.8"/>
     </g>
     <g id="line2d_16">
      <g>
       <use xlink:href="#m624968f080" x="53.225" y="375.310048" style="stroke: #000000; stroke-width: 0.8"/>
      </g>
     </g>
     <g id="text_9">
      <!-- 135 -->
      <g transform="translate(23.32 379.869111) scale(0.12 -0.12)">
       <use xlink:href="#DejaVuSans-31"/>
       <use xlink:href="#DejaVuSans-33" transform="translate(63.623047 0)"/>
       <use xlink:href="#DejaVuSans-35" transform="translate(127.246094 0)"/>
      </g>
     </g>
    </g>
    <g id="ytick_3">
     <g id="line2d_17">
      <path d="M 53.225 306.703977 
L 845.28 306.703977 
" clip-path="url(#pf7096feb8d)" style="fill: none; stroke-dasharray: 2.96,1.28; stroke-dashoffset: 0; stroke: #b0b0b0; stroke-opacity: 0.3; stroke-width: 0.8"/>
     </g>
     <g id="line2d_18">
      <g>
       <use xlink:href="#m624968f080" x="53.225" y="306.703977" style="stroke: #000000; stroke-width: 0.8"/>
      </g>
     </g>
     <g id="text_10">
      <!-- 140 -->
      <g transform="translate(23.32 311.263039) scale(0.12 -0.12)">
       <defs>
        <path id="DejaVuSans-34" d="M 2419 4116 
L 825 1625 
L 2419 1625 
L 2419 4116 
z
M 2253 4666 
L 3047 4666 
L 3047 1625 
L 3713 1625 
L 3713 1100 
L 3047 1100 
L 3047 0 
L 2419 0 
L 2419 1100 
L 313 1100 
L 313 1709 
L 2253 4666 
z
" transform="scale(0.015625)"/>
       </defs>
       <use xlink:href="#DejaVuSans-31"/>
       <use xlink:href="#DejaVuSans-34" transform="translate(63.623047 0)"/>
       <use xlink:href="#DejaVuSans-30" transform="translate(127.246094 0)"/>
      </g>
     </g>
    </g>
    <g id="ytick_4">
     <g id="line2d_19">
      <path d="M 53.225 238.097905 
L 845.28 238.097905 
" clip-path="url(#pf7096feb8d)" style="fill: none; stroke-dasharray: 2.96,1.28; stroke-dashoffset: 0; stroke: #b0b0b0; stroke-opacity: 0.3; stroke-width: 0.8"/>
     </g>
     <g id="line2d_20">
      <g>
       <use xlink:href="#m624968f080" x="53.225" y="238.097905" style="stroke: #000000; stroke-width: 0.8"/>
      </g>
     </g>
     <g id="text_11">
      <!-- 145 -->
      <g transform="translate(23.32 242.656968) scale(0.12 -0.12)">
       <use xlink:href="#DejaVuSans-31"/>
       <use xlink:href="#DejaVuSans-34" transform="translate(63.623047 0)"/>
       <use xlink:href="#DejaVuSans-35" transform="translate(127.246094 0)"/>
      </g>
     </g>
    </g>
    <g id="ytick_5">
     <g id="line2d_21">
      <path d="M 53.225 169.491834 
L 845.28 169.491834 
" clip-path="url(#pf7096feb8d)" style="fill: none; stroke-dasharray: 2.96,1.28; stroke-dashoffset: 0; stroke: #b0b0b0; stroke-opacity: 0.3; stroke-width: 0.8"/>
     </g>
     <g id="line2d_22">
      <g>
       <use xlink:href="#m624968f080" x="53.225" y="169.491834" style="stroke: #000000; stroke-width: 0.8"/>
      </g>
     </g>
     <g id="text_12">
      <!-- 150 -->
      <g transform="translate(23.32 174.050896) scale(0.12 -0.12)">
       <use xlink:href="#DejaVuSans-31"/>
       <use xlink:href="#DejaVuSans-35" transform="translate(63.623047 0)"/>
       <use xlink:href="#DejaVuSans-30" transform="translate(127.246094 0)"/>
      </g>
     </g>
    </g>
    <g id="ytick_6">
     <g id="line2d_23">
      <path d="M 53.225 100.885762 
L 845.28 100.885762 
" clip-path="url(#pf7096feb8d)" style="fill: none; stroke-dasharray: 2.96,1.28; stroke-dashoffset: 0; stroke: #b0b0b0; stroke-opacity: 0.3; stroke-width: 0.8"/>
     </g>
     <g id="line2d_24">
      <g>
       <use xlink:href="#m624968f080" x="53.225" y="100.885762" style="stroke: #000000; stroke-width: 0.8"/>
      </g>
     </g>
     <g id="text_13">
      <!-- 155 -->
      <g transform="translate(23.32 105.444825) scale(0.12 -0.12)">
       <use xlink:href="#DejaVuSans-31"/>
       <use xlink:href="#DejaVuSans-35" transform="translate(63.623047 0)"/>
       <use xlink:href="#DejaVuSans-35" transform="translate(127.246094 0)"/>
      </g>
     </g>
    </g>
    <g id="ytick_7">
     <g id="line2d_25">
      <path d="M 53.225 32.27969 
L 845.28 32.27969 
" clip-path="url(#pf7096feb8d)" style="fill: none; stroke-dasharray: 2.96,1.28; stroke-dashoffset: 0; stroke: #b0b0b0; stroke-opacity: 0.3; stroke-width: 0.8"/>
     </g>
     <g id="line2d_26">
      <g>
       <use xlink:href="#m624968f080" x="53.225" y="32.27969" style="stroke: #000000; stroke-width: 0.8"/>
      </g>
     </g>
     <g id="text_14">
      <!-- 160 -->
      <g transform="translate(23.32 36.838753) scale(0.12 -0.12)">
       <defs>
        <path id="DejaVuSans-36" d="M 2113 2584 
Q 1688 2584 1439 2293 
Q 1191 2003 1191 1497 
Q 1191 994 1439 701 
Q 1688 409 2113 409 
Q 2538 409 2786 701 
Q 3034 994 3034 1497 
Q 3034 2003 2786 2293 
Q 2538 2584 2113 2584 
z
M 3366 4563 
L 3366 3988 
Q 3128 4100 2886 4159 
Q 2644 4219 2406 4219 
Q 1781 4219 1451 3797 
Q 1122 3375 1075 2522 
Q 1259 2794 1537 2939 
Q 1816 3084 2150 3084 
Q 2853 3084 3261 2657 
Q 3669 2231 3669 1497 
Q 3669 778 3244 343 
Q 2819 -91 2113 -91 
Q 1303 -91 875 529 
Q 447 1150 447 2328 
Q 447 3434 972 4092 
Q 1497 4750 2381 4750 
Q 2619 4750 2861 4703 
Q 3103 4656 3366 4563 
z
" transform="scale(0.015625)"/>
       </defs>
       <use xlink:href="#DejaVuSans-31"/>
       <use xlink:href="#DejaVuSans-36" transform="translate(63.623047 0)"/>
       <use xlink:href="#DejaVuSans-30" transform="translate(127.246094 0)"/>
      </g>
     </g>
    </g>
    <g id="text_15">
     <!-- $|Z|$ [$\Omega$] -->
     <g transform="translate(16.44 256.825156) rotate(-90) scale(0.12 -0.12)">
      <defs>
       <path id="DejaVuSans-7c" d="M 1344 4891 
L 1344 -1509 
L 813 -1509 
L 813 4891 
L 1344 4891 
z
" transform="scale(0.015625)"/>
       <path id="DejaVuSans-Oblique-5a" d="M 838 4666 
L 4500 4666 
L 4409 4184 
L 794 531 
L 3769 531 
L 3669 0 
L -141 0 
L -50 481 
L 3566 4134 
L 738 4134 
L 838 4666 
z
" transform="scale(0.015625)"/>
       <path id="DejaVuSans-3a9" d="M 4647 556 
L 4647 0 
L 2772 0 
L 2772 556 
Q 3325 859 3634 1378 
Q 3944 1897 3944 2528 
Q 3944 3278 3531 3731 
Q 3119 4184 2444 4184 
Q 1769 4184 1355 3729 
Q 941 3275 941 2528 
Q 941 1897 1250 1378 
Q 1563 859 2119 556 
L 2119 0 
L 244 0 
L 244 556 
L 1241 556 
Q 747 991 519 1456 
Q 294 1922 294 2497 
Q 294 3491 894 4106 
Q 1491 4722 2444 4722 
Q 3391 4722 3994 4106 
Q 4594 3494 4594 2528 
Q 4594 1922 4372 1459 
Q 4150 997 3647 556 
L 4647 556 
z
" transform="scale(0.015625)"/>
      </defs>
      <use xlink:href="#DejaVuSans-7c" transform="translate(0 0.578125)"/>
      <use xlink:href="#DejaVuSans-Oblique-5a" transform="translate(33.691406 0.578125)"/>
      <use xlink:href="#DejaVuSans-7c" transform="translate(102.197266 0.578125)"/>
      <use xlink:href="#DejaVuSans-20" transform="translate(135.888672 0.578125)"/>
      <use xlink:href="#DejaVuSans-5b" transform="translate(167.675781 0.578125)"/>
      <use xlink:href="#DejaVuSans-3a9" transform="translate(206.689453 0.578125)"/>
      <use xlink:href="#DejaVuSans-5d" transform="translate(283.105469 0.578125)"/>
     </g>
    </g>
   </g>
   <g id="line2d_27">
    <path d="M 204.216473 417.845813 
L 205.532539 419.358616 
L 206.897348 420.583428 
L 208.3109 421.555179 
L 209.870681 422.354038 
L 211.625435 422.99754 
L 213.770135 423.533989 
L 216.694725 424.016483 
L 227.369479 425.594427 
L 232.341283 426.673734 
L 247.744125 430.195087 
L 252.228497 430.883219 
L 256.566639 431.324427 
L 261.002267 431.550639 
L 265.730355 431.56698 
L 271.04336 431.357058 
L 277.185 430.885206 
L 284.301503 430.110804 
L 291.661722 429.088079 
L 298.339536 427.939829 
L 304.334946 426.685942 
L 309.940411 425.288191 
L 315.448389 423.685778 
L 321.15134 421.792232 
L 327.439209 419.463839 
L 335.286859 416.306091 
L 350.835931 409.74486 
L 362.339319 404.731482 
L 368.237243 401.919875 
L 373.014073 399.401584 
L 377.352216 396.863516 
L 381.495385 394.182024 
L 385.784784 391.135363 
L 390.659101 387.387728 
L 402.844894 377.869262 
L 405.769484 375.957504 
L 408.255386 374.59013 
L 410.448829 373.63269 
L 412.447299 372.999771 
L 414.299539 372.64203 
L 416.054293 372.523193 
L 417.809047 372.629616 
L 419.515058 372.95375 
L 421.269812 373.511495 
L 423.122053 374.333384 
L 425.218009 375.515386 
L 427.898884 377.303331 
L 432.285769 380.243794 
L 433.894294 381.034409 
L 435.161616 381.420337 
L 436.233966 381.522257 
L 437.208829 381.389011 
L 438.086206 381.047107 
L 438.963583 380.457718 
L 439.84096 379.581502 
L 440.718338 378.375498 
L 441.644458 376.692929 
L 442.570578 374.530702 
L 443.545441 371.664476 
L 444.569048 367.913681 
L 445.592655 363.299782 
L 446.665004 357.414835 
L 447.786097 349.957024 
L 447.883584 349.239741 
L 447.883584 349.239741 
" clip-path="url(#pf7096feb8d)" style="fill: none; stroke-dasharray: 7.4,3.2; stroke-dashoffset: 0; stroke: #ff7f0e; stroke-width: 2"/>
   </g>
   <g id="patch_3">
    <path d="M 53.225 451.0525 
L 53.225 23.837812 
" style="fill: none; stroke: #000000; stroke-width: 0.8; stroke-linejoin: miter; stroke-linecap: square"/>
   </g>
   <g id="patch_4">
    <path d="M 53.225 451.0525 
L 845.28 451.0525 
" style="fill: none; stroke: #000000; stroke-width: 0.8; stroke-linejoin: miter; stroke-linecap: square"/>
   </g>
   <g id="line2d_28">
    <path d="M 89.2275 137.933041 
L 92.540393 166.06691 
L 94.268858 178.931969 
L 95.709246 188.01057 
L 97.149634 195.631805 
L 98.734061 202.732841 
L 100.606566 209.993082 
L 107.37639 235.135739 
L 109.248894 243.335265 
L 111.697554 255.165112 
L 116.882951 280.522998 
L 119.043533 289.757968 
L 121.204115 297.98622 
L 123.220659 304.828023 
L 125.237202 310.927233 
L 127.253745 316.351828 
L 129.558366 321.896511 
L 132.72722 328.880988 
L 137.048384 338.431434 
L 145.690713 358.168521 
L 147.851295 362.316202 
L 150.011877 365.954777 
L 152.316498 369.393336 
L 155.053235 373.064242 
L 161.102865 380.642179 
L 168.448844 389.752424 
L 171.761737 393.498536 
L 174.498474 396.279863 
L 177.523289 399.026303 
L 180.980221 401.845792 
L 185.445424 405.177581 
L 196.536412 413.079167 
L 201.001615 415.976834 
L 204.602585 418.055215 
L 208.059516 419.78422 
L 211.660487 421.333004 
L 215.549534 422.761543 
L 219.870699 424.110555 
L 225.056096 425.489277 
L 231.105726 426.865337 
L 239.02786 428.424903 
L 249.542693 430.275841 
L 255.160207 431.044704 
L 259.913487 431.472719 
L 264.090613 431.628433 
L 268.555816 431.566441 
L 273.597174 431.266521 
L 279.646804 430.672583 
L 288.289132 429.578495 
L 295.635112 428.445125 
L 301.684741 427.288183 
L 307.014177 426.045628 
L 312.199574 424.606375 
L 318.105166 422.729135 
L 325.163067 420.238045 
L 335.101745 416.467445 
L 344.464267 412.710782 
L 351.954285 409.470411 
L 358.580071 406.360949 
L 365.061817 403.066759 
L 372.263757 399.150402 
L 380.473969 394.422466 
L 390.412647 388.428301 
L 400.92748 381.827256 
L 411.586352 374.869853 
L 422.389262 367.549653 
L 433.336212 359.862262 
L 444.571239 351.698429 
L 456.238382 342.940676 
L 470.642263 331.834108 
L 500.02618 308.810403 
L 527.969708 286.703555 
L 557.209586 263.242525 
L 593.363327 233.978135 
L 610.936062 219.456618 
L 627.500525 205.470309 
L 644.785182 190.58129 
L 663.07811 174.526706 
L 686.700475 153.473885 
L 771.107216 77.720538 
L 809.2775 43.256662 
L 809.2775 43.256662 
" clip-path="url(#pf7096feb8d)" style="fill: none; stroke: #1f77b4; stroke-width: 2.5; stroke-linecap: square"/>
   </g>
   <g id="text_16">
    <!-- Natural Cubic Spline vs Polynomial Interpolation -->
    <g transform="translate(280.583125 17.837812) scale(0.14 -0.14)">
     <defs>
      <path id="DejaVuSans-4e" d="M 628 4666 
L 1478 4666 
L 3547 763 
L 3547 4666 
L 4159 4666 
L 4159 0 
L 3309 0 
L 1241 3903 
L 1241 0 
L 628 0 
L 628 4666 
z
" transform="scale(0.015625)"/>
      <path id="DejaVuSans-61" d="M 2194 1759 
Q 1497 1759 1228 1600 
Q 959 1441 959 1056 
Q 959 750 1161 570 
Q 1363 391 1709 391 
Q 2188 391 2477 730 
Q 2766 1069 2766 1631 
L 2766 1759 
L 2194 1759 
z
M 3341 1997 
L 3341 0 
L 2766 0 
L 2766 531 
Q 2569 213 2275 61 
Q 1981 -91 1556 -91 
Q 1019 -91 701 211 
Q 384 513 384 1019 
Q 384 1609 779 1909 
Q 1175 2209 1959 2209 
L 2766 2209 
L 2766 2266 
Q 2766 2663 2505 2880 
Q 2244 3097 1772 3097 
Q 1472 3097 1187 3025 
Q 903 2953 641 2809 
L 641 3341 
Q 956 3463 1253 3523 
Q 1550 3584 1831 3584 
Q 2591 3584 2966 3190 
Q 3341 2797 3341 1997 
z
" transform="scale(0.015625)"/>
      <path id="DejaVuSans-74" d="M 1172 4494 
L 1172 3500 
L 2356 3500 
L 2356 3053 
L 1172 3053 
L 1172 1153 
Q 1172 725 1289 603 
Q 1406 481 1766 481 
L 2356 481 
L 2356 0 
L 1766 0 
Q 1100 0 847 248 
Q 594 497 594 1153 
L 594 3053 
L 172 3053 
L 172 3500 
L 594 3500 
L 594 4494 
L 1172 4494 
z
" transform="scale(0.015625)"/>
      <path id="DejaVuSans-6c" d="M 603 4863 
L 1178 4863 
L 1178 0 
L 603 0 
L 603 4863 
z
" transform="scale(0.015625)"/>
      <path id="DejaVuSans-43" d="M 4122 4306 
L 4122 3641 
Q 3803 3938 3442 4084 
Q 3081 4231 2675 4231 
Q 1875 4231 1450 3742 
Q 1025 3253 1025 2328 
Q 1025 1406 1450 917 
Q 1875 428 2675 428 
Q 3081 428 3442 575 
Q 3803 722 4122 1019 
L 4122 359 
Q 3791 134 3420 21 
Q 3050 -91 2638 -91 
Q 1578 -91 968 557 
Q 359 1206 359 2328 
Q 359 3453 968 4101 
Q 1578 4750 2638 4750 
Q 3056 4750 3426 4639 
Q 3797 4528 4122 4306 
z
" transform="scale(0.015625)"/>
      <path id="DejaVuSans-62" d="M 3116 1747 
Q 3116 2381 2855 2742 
Q 2594 3103 2138 3103 
Q 1681 3103 1420 2742 
Q 1159 2381 1159 1747 
Q 1159 1113 1420 752 
Q 1681 391 2138 391 
Q 2594 391 2855 752 
Q 3116 1113 3116 1747 
z
M 1159 2969 
Q 1341 3281 1617 3432 
Q 1894 3584 2278 3584 
Q 2916 3584 3314 3078 
Q 3713 2572 3713 1747 
Q 3713 922 3314 415 
Q 2916 -91 2278 -91 
Q 1894 -91 1617 61 
Q 1341 213 1159 525 
L 1159 0 
L 581 0 
L 581 4863 
L 1159 4863 
L 1159 2969 
z
" transform="scale(0.015625)"/>
      <path id="DejaVuSans-69" d="M 603 3500 
L 1178 3500 
L 1178 0 
L 603 0 
L 603 3500 
z
M 603 4863 
L 1178 4863 
L 1178 4134 
L 603 4134 
L 603 4863 
z
" transform="scale(0.015625)"/>
      <path id="DejaVuSans-53" d="M 3425 4513 
L 3425 3897 
Q 3066 4069 2747 4153 
Q 2428 4238 2131 4238 
Q 1616 4238 1336 4038 
Q 1056 3838 1056 3469 
Q 1056 3159 1242 3001 
Q 1428 2844 1947 2747 
L 2328 2669 
Q 3034 2534 3370 2195 
Q 3706 1856 3706 1288 
Q 3706 609 3251 259 
Q 2797 -91 1919 -91 
Q 1588 -91 1214 -16 
Q 841 59 441 206 
L 441 856 
Q 825 641 1194 531 
Q 1563 422 1919 422 
Q 2459 422 2753 634 
Q 3047 847 3047 1241 
Q 3047 1584 2836 1778 
Q 2625 1972 2144 2069 
L 1759 2144 
Q 1053 2284 737 2584 
Q 422 2884 422 3419 
Q 422 4038 858 4394 
Q 1294 4750 2059 4750 
Q 2388 4750 2728 4690 
Q 3069 4631 3425 4513 
z
" transform="scale(0.015625)"/>
      <path id="DejaVuSans-70" d="M 1159 525 
L 1159 -1331 
L 581 -1331 
L 581 3500 
L 1159 3500 
L 1159 2969 
Q 1341 3281 1617 3432 
Q 1894 3584 2278 3584 
Q 2916 3584 3314 3078 
Q 3713 2572 3713 1747 
Q 3713 922 3314 415 
Q 2916 -91 2278 -91 
Q 1894 -91 1617 61 
Q 1341 213 1159 525 
z
M 3116 1747 
Q 3116 2381 2855 2742 
Q 2594 3103 2138 3103 
Q 1681 3103 1420 2742 
Q 1159 2381 1159 1747 
Q 1159 1113 1420 752 
Q 1681 391 2138 391 
Q 2594 391 2855 752 
Q 3116 1113 3116 1747 
z
" transform="scale(0.015625)"/>
      <path id="DejaVuSans-76" d="M 191 3500 
L 800 3500 
L 1894 563 
L 2988 3500 
L 3597 3500 
L 2284 0 
L 1503 0 
L 191 3500 
z
" transform="scale(0.015625)"/>
      <path id="DejaVuSans-73" d="M 2834 3397 
L 2834 2853 
Q 2591 2978 2328 3040 
Q 2066 3103 1784 3103 
Q 1356 3103 1142 2972 
Q 928 2841 928 2578 
Q 928 2378 1081 2264 
Q 1234 2150 1697 2047 
L 1894 2003 
Q 2506 1872 2764 1633 
Q 3022 1394 3022 966 
Q 3022 478 2636 193 
Q 2250 -91 1575 -91 
Q 1294 -91 989 -36 
Q 684 19 347 128 
L 347 722 
Q 666 556 975 473 
Q 1284 391 1588 391 
Q 1994 391 2212 530 
Q 2431 669 2431 922 
Q 2431 1156 2273 1281 
Q 2116 1406 1581 1522 
L 1381 1569 
Q 847 1681 609 1914 
Q 372 2147 372 2553 
Q 372 3047 722 3315 
Q 1072 3584 1716 3584 
Q 2034 3584 2315 3537 
Q 2597 3491 2834 3397 
z
" transform="scale(0.015625)"/>
      <path id="DejaVuSans-50" d="M 1259 4147 
L 1259 2394 
L 2053 2394 
Q 2494 2394 2734 2622 
Q 2975 2850 2975 3272 
Q 2975 3691 2734 3919 
Q 2494 4147 2053 4147 
L 1259 4147 
z
M 628 4666 
L 2053 4666 
Q 2838 4666 3239 4311 
Q 3641 3956 3641 3272 
Q 3641 2581 3239 2228 
Q 2838 1875 2053 1875 
L 1259 1875 
L 1259 0 
L 628 0 
L 628 4666 
z
" transform="scale(0.015625)"/>
      <path id="DejaVuSans-6f" d="M 1959 3097 
Q 1497 3097 1228 2736 
Q 959 2375 959 1747 
Q 959 1119 1226 758 
Q 1494 397 1959 397 
Q 2419 397 2687 759 
Q 2956 1122 2956 1747 
Q 2956 2369 2687 2733 
Q 2419 3097 1959 3097 
z
M 1959 3584 
Q 2709 3584 3137 3096 
Q 3566 2609 3566 1747 
Q 3566 888 3137 398 
Q 2709 -91 1959 -91 
Q 1206 -91 779 398 
Q 353 888 353 1747 
Q 353 2609 779 3096 
Q 1206 3584 1959 3584 
z
" transform="scale(0.015625)"/>
      <path id="DejaVuSans-6d" d="M 3328 2828 
Q 3544 3216 3844 3400 
Q 4144 3584 4550 3584 
Q 5097 3584 5394 3201 
Q 5691 2819 5691 2113 
L 5691 0 
L 5113 0 
L 5113 2094 
Q 5113 2597 4934 2840 
Q 4756 3084 4391 3084 
Q 3944 3084 3684 2787 
Q 3425 2491 3425 1978 
L 3425 0 
L 2847 0 
L 2847 2094 
Q 2847 2600 2669 2842 
Q 2491 3084 2119 3084 
Q 1678 3084 1418 2786 
Q 1159 2488 1159 1978 
L 1159 0 
L 581 0 
L 581 3500 
L 1159 3500 
L 1159 2956 
Q 1356 3278 1631 3431 
Q 1906 3584 2284 3584 
Q 2666 3584 2933 3390 
Q 3200 3197 3328 2828 
z
" transform="scale(0.015625)"/>
      <path id="DejaVuSans-49" d="M 628 4666 
L 1259 4666 
L 1259 0 
L 628 0 
L 628 4666 
z
" transform="scale(0.015625)"/>
     </defs>
     <use xlink:href="#DejaVuSans-4e"/>
     <use xlink:href="#DejaVuSans-61" transform="translate(74.804688 0)"/>
     <use xlink:href="#DejaVuSans-74" transform="translate(136.083984 0)"/>
     <use xlink:href="#DejaVuSans-75" transform="translate(175.292969 0)"/>
     <use xlink:href="#DejaVuSans-72" transform="translate(238.671875 0)"/>
     <use xlink:href="#DejaVuSans-61" transform="translate(279.785156 0)"/>
     <use xlink:href="#DejaVuSans-6c" transform="translate(341.064453 0)"/>
     <use xlink:href="#DejaVuSans-20" transform="translate(368.847656 0)"/>
     <use xlink:href="#DejaVuSans-43" transform="translate(400.634766 0)"/>
     <use xlink:href="#DejaVuSans-75" transform="translate(470.458984 0)"/>
     <use xlink:href="#DejaVuSans-62" transform="translate(533.837891 0)"/>
     <use xlink:href="#DejaVuSans-69" transform="translate(597.314453 0)"/>
     <use xlink:href="#DejaVuSans-63" transform="translate(625.097656 0)"/>
     <use xlink:href="#DejaVuSans-20" transform="translate(680.078125 0)"/>
     <use xlink:href="#DejaVuSans-53" transform="translate(711.865234 0)"/>
     <use xlink:href="#DejaVuSans-70" transform="translate(775.341797 0)"/>
     <use xlink:href="#DejaVuSans-6c" transform="translate(838.818359 0)"/>
     <use xlink:href="#DejaVuSans-69" transform="translate(866.601562 0)"/>
     <use xlink:href="#DejaVuSans-6e" transform="translate(894.384766 0)"/>
     <use xlink:href="#DejaVuSans-65" transform="translate(957.763672 0)"/>
     <use xlink:href="#DejaVuSans-20" transform="translate(1019.287109 0)"/>
     <use xlink:href="#DejaVuSans-76" transform="translate(1051.074219 0)"/>
     <use xlink:href="#DejaVuSans-73" transform="translate(1110.253906 0)"/>
     <use xlink:href="#DejaVuSans-20" transform="translate(1162.353516 0)"/>
     <use xlink:href="#DejaVuSans-50" transform="translate(1194.140625 0)"/>
     <use xlink:href="#DejaVuSans-6f" transform="translate(1250.818359 0)"/>
     <use xlink:href="#DejaVuSans-6c" transform="translate(1312 0)"/>
     <use xlink:href="#DejaVuSans-79" transform="translate(1339.783203 0)"/>
     <use xlink:href="#DejaVuSans-6e" transform="translate(1398.962891 0)"/>
     <use xlink:href="#DejaVuSans-6f" transform="translate(1462.341797 0)"/>
     <use xlink:href="#DejaVuSans-6d" transform="translate(1523.523438 0)"/>
     <use xlink:href="#DejaVuSans-69" transform="translate(1620.935547 0)"/>
     <use xlink:href="#DejaVuSans-61" transform="translate(1648.71875 0)"/>
     <use xlink:href="#DejaVuSans-6c" transform="translate(1709.998047 0)"/>
     <use xlink:href="#DejaVuSans-20" transform="translate(1737.78125 0)"/>
     <use xlink:href="#DejaVuSans-49" transform="translate(1769.568359 0)"/>
     <use xlink:href="#DejaVuSans-6e" transform="translate(1799.060547 0)"/>
     <use xlink:href="#DejaVuSans-74" transform="translate(1862.439453 0)"/>
     <use xlink:href="#DejaVuSans-65" transform="translate(1901.648438 0)"/>
     <use xlink:href="#DejaVuSans-72" transform="translate(1963.171875 0)"/>
     <use xlink:href="#DejaVuSans-70" transform="translate(2004.285156 0)"/>
     <use xlink:href="#DejaVuSans-6f" transform="translate(2067.761719 0)"/>
     <use xlink:href="#DejaVuSans-6c" transform="translate(2128.943359 0)"/>
     <use xlink:href="#DejaVuSans-61" transform="translate(2156.726562 0)"/>
     <use xlink:href="#DejaVuSans-74" transform="translate(2218.005859 0)"/>
     <use xlink:href="#DejaVuSans-69" transform="translate(2257.214844 0)"/>
     <use xlink:href="#DejaVuSans-6f" transform="translate(2284.998047 0)"/>
     <use xlink:href="#DejaVuSans-6e" transform="translate(2346.179688 0)"/>
    </g>
   </g>
   <g id="PathCollection_1">
    <defs>
     <path id="m192a25f4fd" d="M 0 3.162278 
C 0.838646 3.162278 1.643056 2.82908 2.236068 2.236068 
C 2.82908 1.643056 3.162278 0.838646 3.162278 0 
C 3.162278 -0.838646 2.82908 -1.643056 2.236068 -2.236068 
C 1.643056 -2.82908 0.838646 -3.162278 0 -3.162278 
C -0.838646 -3.162278 -1.643056 -2.82908 -2.236068 -2.236068 
C -2.82908 -1.643056 -3.162278 -0.838646 -3.162278 0 
C -3.162278 0.838646 -2.82908 1.643056 -2.236068 2.236068 
C -1.643056 2.82908 -0.838646 3.162278 0 3.162278 
z
" style="stroke: #1f77b4; stroke-opacity: 0.75"/>
    </defs>
    <g clip-path="url(#pf7096feb8d)">
     <use xlink:href="#m192a25f4fd" x="89.2275" y="137.933041" style="fill: #1f77b4; fill-opacity: 0.75; stroke: #1f77b4; stroke-opacity: 0.75"/>
     <use xlink:href="#m192a25f4fd" x="94.703165" y="181.840926" style="fill: #1f77b4; fill-opacity: 0.75; stroke: #1f77b4; stroke-opacity: 0.75"/>
     <use xlink:href="#m192a25f4fd" x="101.547747" y="213.399719" style="fill: #1f77b4; fill-opacity: 0.75; stroke: #1f77b4; stroke-opacity: 0.75"/>
     <use xlink:href="#m192a25f4fd" x="108.392329" y="239.470027" style="fill: #1f77b4; fill-opacity: 0.75; stroke: #1f77b4; stroke-opacity: 0.75"/>
     <use xlink:href="#m192a25f4fd" x="116.605827" y="279.261548" style="fill: #1f77b4; fill-opacity: 0.75; stroke: #1f77b4; stroke-opacity: 0.75"/>
     <use xlink:href="#m192a25f4fd" x="126.188241" y="313.564584" style="fill: #1f77b4; fill-opacity: 0.75; stroke: #1f77b4; stroke-opacity: 0.75"/>
     <use xlink:href="#m192a25f4fd" x="135.770656" y="335.518527" style="fill: #1f77b4; fill-opacity: 0.75; stroke: #1f77b4; stroke-opacity: 0.75"/>
     <use xlink:href="#m192a25f4fd" x="146.721987" y="360.216712" style="fill: #1f77b4; fill-opacity: 0.75; stroke: #1f77b4; stroke-opacity: 0.75"/>
     <use xlink:href="#m192a25f4fd" x="159.042234" y="378.054291" style="fill: #1f77b4; fill-opacity: 0.75; stroke: #1f77b4; stroke-opacity: 0.75"/>
     <use xlink:href="#m192a25f4fd" x="172.731397" y="394.519748" style="fill: #1f77b4; fill-opacity: 0.75; stroke: #1f77b4; stroke-opacity: 0.75"/>
     <use xlink:href="#m192a25f4fd" x="187.789477" y="406.868841" style="fill: #1f77b4; fill-opacity: 0.75; stroke: #1f77b4; stroke-opacity: 0.75"/>
     <use xlink:href="#m192a25f4fd" x="204.216473" y="417.845813" style="fill: #1f77b4; fill-opacity: 0.75; stroke: #1f77b4; stroke-opacity: 0.75"/>
     <use xlink:href="#m192a25f4fd" x="222.012386" y="424.70642" style="fill: #1f77b4; fill-opacity: 0.75; stroke: #1f77b4; stroke-opacity: 0.75"/>
     <use xlink:href="#m192a25f4fd" x="241.177215" y="428.822784" style="fill: #1f77b4; fill-opacity: 0.75; stroke: #1f77b4; stroke-opacity: 0.75"/>
     <use xlink:href="#m192a25f4fd" x="261.71096" y="431.567027" style="fill: #1f77b4; fill-opacity: 0.75; stroke: #1f77b4; stroke-opacity: 0.75"/>
     <use xlink:href="#m192a25f4fd" x="283.613622" y="430.194905" style="fill: #1f77b4; fill-opacity: 0.75; stroke: #1f77b4; stroke-opacity: 0.75"/>
     <use xlink:href="#m192a25f4fd" x="306.8852" y="426.078541" style="fill: #1f77b4; fill-opacity: 0.75; stroke: #1f77b4; stroke-opacity: 0.75"/>
     <use xlink:href="#m192a25f4fd" x="331.525694" y="417.845813" style="fill: #1f77b4; fill-opacity: 0.75; stroke: #1f77b4; stroke-opacity: 0.75"/>
     <use xlink:href="#m192a25f4fd" x="357.535105" y="406.868841" style="fill: #1f77b4; fill-opacity: 0.75; stroke: #1f77b4; stroke-opacity: 0.75"/>
     <use xlink:href="#m192a25f4fd" x="384.913432" y="391.775505" style="fill: #1f77b4; fill-opacity: 0.75; stroke: #1f77b4; stroke-opacity: 0.75"/>
     <use xlink:href="#m192a25f4fd" x="415.029591" y="372.565805" style="fill: #1f77b4; fill-opacity: 0.75; stroke: #1f77b4; stroke-opacity: 0.75"/>
     <use xlink:href="#m192a25f4fd" x="447.883584" y="349.239741" style="fill: #1f77b4; fill-opacity: 0.75; stroke: #1f77b4; stroke-opacity: 0.75"/>
     <use xlink:href="#m192a25f4fd" x="483.475409" y="321.797312" style="fill: #1f77b4; fill-opacity: 0.75; stroke: #1f77b4; stroke-opacity: 0.75"/>
     <use xlink:href="#m192a25f4fd" x="521.805067" y="291.610641" style="fill: #1f77b4; fill-opacity: 0.75; stroke: #1f77b4; stroke-opacity: 0.75"/>
     <use xlink:href="#m192a25f4fd" x="562.872557" y="258.679727" style="fill: #1f77b4; fill-opacity: 0.75; stroke: #1f77b4; stroke-opacity: 0.75"/>
     <use xlink:href="#m192a25f4fd" x="606.67788" y="223.004569" style="fill: #1f77b4; fill-opacity: 0.75; stroke: #1f77b4; stroke-opacity: 0.75"/>
     <use xlink:href="#m192a25f4fd" x="653.221036" y="183.213048" style="fill: #1f77b4; fill-opacity: 0.75; stroke: #1f77b4; stroke-opacity: 0.75"/>
     <use xlink:href="#m192a25f4fd" x="702.502025" y="139.305162" style="fill: #1f77b4; fill-opacity: 0.75; stroke: #1f77b4; stroke-opacity: 0.75"/>
     <use xlink:href="#m192a25f4fd" x="754.520846" y="92.653033" style="fill: #1f77b4; fill-opacity: 0.75; stroke: #1f77b4; stroke-opacity: 0.75"/>
     <use xlink:href="#m192a25f4fd" x="809.2775" y="43.256662" style="fill: #1f77b4; fill-opacity: 0.75; stroke: #1f77b4; stroke-opacity: 0.75"/>
    </g>
   </g>
   <g id="legend_1">
    <g id="patch_5">
     <path d="M 60.225 105.228437 
L 228.257812 105.228437 
Q 230.257812 105.228437 230.257812 103.228437 
L 230.257812 30.837812 
Q 230.257812 28.837812 228.257812 28.837812 
L 60.225 28.837812 
Q 58.225 28.837812 58.225 30.837812 
L 58.225 103.228437 
Q 58.225 105.228437 60.225 105.228437 
z
" style="fill: #ffffff; opacity: 0.8; stroke: #cccccc; stroke-linejoin: miter"/>
    </g>
    <g id="PathCollection_2">
     <g>
      <use xlink:href="#m192a25f4fd" x="72.225" y="37.81125" style="fill: #1f77b4; fill-opacity: 0.75; stroke: #1f77b4; stroke-opacity: 0.75"/>
     </g>
    </g>
    <g id="text_17">
     <!-- Experimental data -->
     <g transform="translate(90.225 40.43625) scale(0.1 -0.1)">
      <defs>
       <path id="DejaVuSans-45" d="M 628 4666 
L 3578 4666 
L 3578 4134 
L 1259 4134 
L 1259 2753 
L 3481 2753 
L 3481 2222 
L 1259 2222 
L 1259 531 
L 3634 531 
L 3634 0 
L 628 0 
L 628 4666 
z
" transform="scale(0.015625)"/>
       <path id="DejaVuSans-78" d="M 3513 3500 
L 2247 1797 
L 3578 0 
L 2900 0 
L 1881 1375 
L 863 0 
L 184 0 
L 1544 1831 
L 300 3500 
L 978 3500 
L 1906 2253 
L 2834 3500 
L 3513 3500 
z
" transform="scale(0.015625)"/>
       <path id="DejaVuSans-64" d="M 2906 2969 
L 2906 4863 
L 3481 4863 
L 3481 0 
L 2906 0 
L 2906 525 
Q 2725 213 2448 61 
Q 2172 -91 1784 -91 
Q 1150 -91 751 415 
Q 353 922 353 1747 
Q 353 2572 751 3078 
Q 1150 3584 1784 3584 
Q 2172 3584 2448 3432 
Q 2725 3281 2906 2969 
z
M 947 1747 
Q 947 1113 1208 752 
Q 1469 391 1925 391 
Q 2381 391 2643 752 
Q 2906 1113 2906 1747 
Q 2906 2381 2643 2742 
Q 2381 3103 1925 3103 
Q 1469 3103 1208 2742 
Q 947 2381 947 1747 
z
" transform="scale(0.015625)"/>
      </defs>
      <use xlink:href="#DejaVuSans-45"/>
      <use xlink:href="#DejaVuSans-78" transform="translate(63.183594 0)"/>
      <use xlink:href="#DejaVuSans-70" transform="translate(122.363281 0)"/>
      <use xlink:href="#DejaVuSans-65" transform="translate(185.839844 0)"/>
      <use xlink:href="#DejaVuSans-72" transform="translate(247.363281 0)"/>
      <use xlink:href="#DejaVuSans-69" transform="translate(288.476562 0)"/>
      <use xlink:href="#DejaVuSans-6d" transform="translate(316.259766 0)"/>
      <use xlink:href="#DejaVuSans-65" transform="translate(413.671875 0)"/>
      <use xlink:href="#DejaVuSans-6e" transform="translate(475.195312 0)"/>
      <use xlink:href="#DejaVuSans-74" transform="translate(538.574219 0)"/>
      <use xlink:href="#DejaVuSans-61" transform="translate(577.783203 0)"/>
      <use xlink:href="#DejaVuSans-6c" transform="translate(639.0625 0)"/>
      <use xlink:href="#DejaVuSans-20" transform="translate(666.845703 0)"/>
      <use xlink:href="#DejaVuSans-64" transform="translate(698.632812 0)"/>
      <use xlink:href="#DejaVuSans-61" transform="translate(762.109375 0)"/>
      <use xlink:href="#DejaVuSans-74" transform="translate(823.388672 0)"/>
      <use xlink:href="#DejaVuSans-61" transform="translate(862.597656 0)"/>
     </g>
    </g>
    <g id="line2d_29">
     <path d="M 62.225 51.614375 
L 72.225 51.614375 
L 82.225 51.614375 
" style="fill: none; stroke: #1f77b4; stroke-width: 2.5; stroke-linecap: square"/>
    </g>
    <g id="text_18">
     <!-- Natural cubic spline -->
     <g transform="translate(90.225 55.114375) scale(0.1 -0.1)">
      <use xlink:href="#DejaVuSans-4e"/>
      <use xlink:href="#DejaVuSans-61" transform="translate(74.804688 0)"/>
      <use xlink:href="#DejaVuSans-74" transform="translate(136.083984 0)"/>
      <use xlink:href="#DejaVuSans-75" transform="translate(175.292969 0)"/>
      <use xlink:href="#DejaVuSans-72" transform="translate(238.671875 0)"/>
      <use xlink:href="#DejaVuSans-61" transform="translate(279.785156 0)"/>
      <use xlink:href="#DejaVuSans-6c" transform="translate(341.064453 0)"/>
      <use xlink:href="#DejaVuSans-20" transform="translate(368.847656 0)"/>
      <use xlink:href="#DejaVuSans-63" transform="translate(400.634766 0)"/>
      <use xlink:href="#DejaVuSans-75" transform="translate(455.615234 0)"/>
      <use xlink:href="#DejaVuSans-62" transform="translate(518.994141 0)"/>
      <use xlink:href="#DejaVuSans-69" transform="translate(582.470703 0)"/>
      <use xlink:href="#DejaVuSans-63" transform="translate(610.253906 0)"/>
      <use xlink:href="#DejaVuSans-20" transform="translate(665.234375 0)"/>
      <use xlink:href="#DejaVuSans-73" transform="translate(697.021484 0)"/>
      <use xlink:href="#DejaVuSans-70" transform="translate(749.121094 0)"/>
      <use xlink:href="#DejaVuSans-6c" transform="translate(812.597656 0)"/>
      <use xlink:href="#DejaVuSans-69" transform="translate(840.380859 0)"/>
      <use xlink:href="#DejaVuSans-6e" transform="translate(868.164062 0)"/>
      <use xlink:href="#DejaVuSans-65" transform="translate(931.542969 0)"/>
     </g>
    </g>
    <g id="line2d_30">
     <path d="M 62.225 66.2925 
L 72.225 66.2925 
L 82.225 66.2925 
" style="fill: none; stroke-dasharray: 7.4,3.2; stroke-dashoffset: 0; stroke: #ff7f0e; stroke-width: 2"/>
    </g>
    <g id="text_19">
     <!-- Lagrange deg=10 -->
     <g transform="translate(90.225 69.7925) scale(0.1 -0.1)">
      <defs>
       <path id="DejaVuSans-4c" d="M 628 4666 
L 1259 4666 
L 1259 531 
L 3531 531 
L 3531 0 
L 628 0 
L 628 4666 
z
" transform="scale(0.015625)"/>
       <path id="DejaVuSans-67" d="M 2906 1791 
Q 2906 2416 2648 2759 
Q 2391 3103 1925 3103 
Q 1463 3103 1205 2759 
Q 947 2416 947 1791 
Q 947 1169 1205 825 
Q 1463 481 1925 481 
Q 2391 481 2648 825 
Q 2906 1169 2906 1791 
z
M 3481 434 
Q 3481 -459 3084 -895 
Q 2688 -1331 1869 -1331 
Q 1566 -1331 1297 -1286 
Q 1028 -1241 775 -1147 
L 775 -588 
Q 1028 -725 1275 -790 
Q 1522 -856 1778 -856 
Q 2344 -856 2625 -561 
Q 2906 -266 2906 331 
L 2906 616 
Q 2728 306 2450 153 
Q 2172 0 1784 0 
Q 1141 0 747 490 
Q 353 981 353 1791 
Q 353 2603 747 3093 
Q 1141 3584 1784 3584 
Q 2172 3584 2450 3431 
Q 2728 3278 2906 2969 
L 2906 3500 
L 3481 3500 
L 3481 434 
z
" transform="scale(0.015625)"/>
       <path id="DejaVuSans-3d" d="M 678 2906 
L 4684 2906 
L 4684 2381 
L 678 2381 
L 678 2906 
z
M 678 1631 
L 4684 1631 
L 4684 1100 
L 678 1100 
L 678 1631 
z
" transform="scale(0.015625)"/>
      </defs>
      <use xlink:href="#DejaVuSans-4c"/>
      <use xlink:href="#DejaVuSans-61" transform="translate(55.712891 0)"/>
      <use xlink:href="#DejaVuSans-67" transform="translate(116.992188 0)"/>
      <use xlink:href="#DejaVuSans-72" transform="translate(180.46875 0)"/>
      <use xlink:href="#DejaVuSans-61" transform="translate(221.582031 0)"/>
      <use xlink:href="#DejaVuSans-6e" transform="translate(282.861328 0)"/>
      <use xlink:href="#DejaVuSans-67" transform="translate(346.240234 0)"/>
      <use xlink:href="#DejaVuSans-65" transform="translate(409.716797 0)"/>
      <use xlink:href="#DejaVuSans-20" transform="translate(471.240234 0)"/>
      <use xlink:href="#DejaVuSans-64" transform="translate(503.027344 0)"/>
      <use xlink:href="#DejaVuSans-65" transform="translate(566.503906 0)"/>
      <use xlink:href="#DejaVuSans-67" transform="translate(628.027344 0)"/>
      <use xlink:href="#DejaVuSans-3d" transform="translate(691.503906 0)"/>
      <use xlink:href="#DejaVuSans-31" transform="translate(775.292969 0)"/>
      <use xlink:href="#DejaVuSans-30" transform="translate(838.916016 0)"/>
     </g>
    </g>
    <g id="PathCollection_3">
     <defs>
      <path id="m51fc464d09" d="M -5.477226 5.477226 
L 5.477226 -5.477226 
M -5.477226 -5.477226 
L 5.477226 5.477226 
" style="stroke: #ff7f0e; stroke-width: 2.2"/>
     </defs>
     <g>
      <use xlink:href="#m51fc464d09" x="72.225" y="81.845625" style="fill: #ff7f0e; stroke: #ff7f0e; stroke-width: 2.2"/>
     </g>
    </g>
    <g id="text_20">
     <!-- Spline(1000 Hz) = 132.016 -->
     <g transform="translate(90.225 84.470625) scale(0.1 -0.1)">
      <defs>
       <path id="DejaVuSans-28" d="M 1984 4856 
Q 1566 4138 1362 3434 
Q 1159 2731 1159 2009 
Q 1159 1288 1364 580 
Q 1569 -128 1984 -844 
L 1484 -844 
Q 1016 -109 783 600 
Q 550 1309 550 2009 
Q 550 2706 781 3412 
Q 1013 4119 1484 4856 
L 1984 4856 
z
" transform="scale(0.015625)"/>
       <path id="DejaVuSans-29" d="M 513 4856 
L 1013 4856 
Q 1481 4119 1714 3412 
Q 1947 2706 1947 2009 
Q 1947 1309 1714 600 
Q 1481 -109 1013 -844 
L 513 -844 
Q 928 -128 1133 580 
Q 1338 1288 1338 2009 
Q 1338 2731 1133 3434 
Q 928 4138 513 4856 
z
" transform="scale(0.015625)"/>
       <path id="DejaVuSans-2e" d="M 684 794 
L 1344 794 
L 1344 0 
L 684 0 
L 684 794 
z
" transform="scale(0.015625)"/>
      </defs>
      <use xlink:href="#DejaVuSans-53"/>
      <use xlink:href="#DejaVuSans-70" transform="translate(63.476562 0)"/>
      <use xlink:href="#DejaVuSans-6c" transform="translate(126.953125 0)"/>
      <use xlink:href="#DejaVuSans-69" transform="translate(154.736328 0)"/>
      <use xlink:href="#DejaVuSans-6e" transform="translate(182.519531 0)"/>
      <use xlink:href="#DejaVuSans-65" transform="translate(245.898438 0)"/>
      <use xlink:href="#DejaVuSans-28" transform="translate(307.421875 0)"/>
      <use xlink:href="#DejaVuSans-31" transform="translate(346.435547 0)"/>
      <use xlink:href="#DejaVuSans-30" transform="translate(410.058594 0)"/>
      <use xlink:href="#DejaVuSans-30" transform="translate(473.681641 0)"/>
      <use xlink:href="#DejaVuSans-30" transform="translate(537.304688 0)"/>
      <use xlink:href="#DejaVuSans-20" transform="translate(600.927734 0)"/>
      <use xlink:href="#DejaVuSans-48" transform="translate(632.714844 0)"/>
      <use xlink:href="#DejaVuSans-7a" transform="translate(707.910156 0)"/>
      <use xlink:href="#DejaVuSans-29" transform="translate(760.400391 0)"/>
      <use xlink:href="#DejaVuSans-20" transform="translate(799.414062 0)"/>
      <use xlink:href="#DejaVuSans-3d" transform="translate(831.201172 0)"/>
      <use xlink:href="#DejaVuSans-20" transform="translate(914.990234 0)"/>
      <use xlink:href="#DejaVuSans-31" transform="translate(946.777344 0)"/>
      <use xlink:href="#DejaVuSans-33" transform="translate(1010.400391 0)"/>
      <use xlink:href="#DejaVuSans-32" transform="translate(1074.023438 0)"/>
      <use xlink:href="#DejaVuSans-2e" transform="translate(1137.646484 0)"/>
      <use xlink:href="#DejaVuSans-30" transform="translate(1169.433594 0)"/>
      <use xlink:href="#DejaVuSans-31" transform="translate(1233.056641 0)"/>
      <use xlink:href="#DejaVuSans-36" transform="translate(1296.679688 0)"/>
     </g>
    </g>
    <g id="PathCollection_4"/>
    <g id="text_21">
     <!-- Poly(1000 Hz) = 132.023 -->
     <g transform="translate(90.225 99.14875) scale(0.1 -0.1)">
      <use xlink:href="#DejaVuSans-50"/>
      <use xlink:href="#DejaVuSans-6f" transform="translate(56.677734 0)"/>
      <use xlink:href="#DejaVuSans-6c" transform="translate(117.859375 0)"/>
      <use xlink:href="#DejaVuSans-79" transform="translate(145.642578 0)"/>
      <use xlink:href="#DejaVuSans-28" transform="translate(204.822266 0)"/>
      <use xlink:href="#DejaVuSans-31" transform="translate(243.835938 0)"/>
      <use xlink:href="#DejaVuSans-30" transform="translate(307.458984 0)"/>
      <use xlink:href="#DejaVuSans-30" transform="translate(371.082031 0)"/>
      <use xlink:href="#DejaVuSans-30" transform="translate(434.705078 0)"/>
      <use xlink:href="#DejaVuSans-20" transform="translate(498.328125 0)"/>
      <use xlink:href="#DejaVuSans-48" transform="translate(530.115234 0)"/>
      <use xlink:href="#DejaVuSans-7a" transform="translate(605.310547 0)"/>
      <use xlink:href="#DejaVuSans-29" transform="translate(657.800781 0)"/>
      <use xlink:href="#DejaVuSans-20" transform="translate(696.814453 0)"/>
      <use xlink:href="#DejaVuSans-3d" transform="translate(728.601562 0)"/>
      <use xlink:href="#DejaVuSans-20" transform="translate(812.390625 0)"/>
      <use xlink:href="#DejaVuSans-31" transform="translate(844.177734 0)"/>
      <use xlink:href="#DejaVuSans-33" transform="translate(907.800781 0)"/>
      <use xlink:href="#DejaVuSans-32" transform="translate(971.423828 0)"/>
      <use xlink:href="#DejaVuSans-2e" transform="translate(1035.046875 0)"/>
      <use xlink:href="#DejaVuSans-30" transform="translate(1066.833984 0)"/>
      <use xlink:href="#DejaVuSans-32" transform="translate(1130.457031 0)"/>
      <use xlink:href="#DejaVuSans-33" transform="translate(1194.080078 0)"/>
     </g>
    </g>
   </g>
   <g id="PathCollection_5">
    <g clip-path="url(#pf7096feb8d)">
     <use xlink:href="#m51fc464d09" x="335.632443" y="416.260833" style="fill: #ff7f0e; stroke: #ff7f0e; stroke-width: 2.2"/>
    </g>
   </g>
   <g id="PathCollection_6"/>
  </g>
 </g>
 <defs>
  <clipPath id="pf7096feb8d">
   <rect x="53.225" y="23.837812" width="792.055" height="427.214688"/>
  </clipPath>
 </defs>
</svg>
