<?xml version="1.0" encoding="utf-8" standalone="no"?>
<!DOCTYPE svg PUBLIC "-//W3C//DTD SVG 1.1//EN"
  "http://www.w3.org/Graphics/SVG/1.1/DTD/svg11.dtd">
<svg xmlns:xlink="http://www.w3.org/1999/xlink" width="852.48pt" height="492.48pt" viewBox="0 0 852.48 492.48" xmlns="http://www.w3.org/2000/svg" version="1.1">
 <metadata>
  <rdf:RDF xmlns:dc="http://purl.org/dc/elements/1.1/" xmlns:cc="http://creativecommons.org/ns#" xmlns:rdf="http://www.w3.org/1999/02/22-rdf-syntax-ns#">
   <cc:Work>
    <dc:type rdf:resource="http://purl.org/dc/dcmitype/StillImage"/>
    <dc:date>2026-05-24T20:47:53.611524</dc:date>
    <dc:format>image/svg+xml</dc:format>
    <dc:creator>
     <cc:Agent>
      <dc:title>Matplotlib v3.10.9, https://matplotlib.org/</dc:title>
     </cc:Agent>
    </dc:creator>
   </cc:Work>
  </rdf:RDF>
 </metadata>
 <defs>
  <style type="text/css">*{stroke-linejoin: round; stroke-linecap: butt}</style>
 </defs>
 <g id="figure_1">
  <g id="patch_1">
   <path d="M 0 492.48 
L 852.48 492.48 
L 852.48 0 
L 0 0 
z
" style="fill: #ffffff"/>
  </g>
  <g id="axes_1">
   <g id="patch_2">
    <path d="M 49.40375 451.0525 
L 845.28 451.0525 
L 845.28 23.837812 
L 49.40375 23.837812 
z
" style="fill: #ffffff"/>
   </g>
   <g id="matplotlib.axis_1">
    <g id="xtick_1">
     <g id="line2d_1">
      <path d="M 58.06953 451.0525 
L 58.06953 23.837812 
" clip-path="url(#p8cfabb1da8)" style="fill: none; stroke-dasharray: 2.96,1.28; stroke-dashoffset: 0; stroke: #b0b0b0; stroke-opacity: 0.3; stroke-width: 0.8"/>
     </g>
     <g id="line2d_2">
      <defs>
       <path id="m4229c788ef" d="M 0 0 
L 0 3.5 
" style="stroke: #000000; stroke-width: 0.8"/>
      </defs>
      <g>
       <use xlink:href="#m4229c788ef" x="58.06953" y="451.0525" style="stroke: #000000; stroke-width: 0.8"/>
      </g>
     </g>
     <g id="text_1">
      <!-- 0 -->
      <g transform="translate(54.25203 467.170625) scale(0.12 -0.12)">
       <defs>
        <path id="DejaVuSans-30" d="M 2034 4250 
Q 1547 4250 1301 3770 
Q 1056 3291 1056 2328 
Q 1056 1369 1301 889 
Q 1547 409 2034 409 
Q 2525 409 2770 889 
Q 3016 1369 3016 2328 
Q 3016 3291 2770 3770 
Q 2525 4250 2034 4250 
z
M 2034 4750 
Q 2819 4750 3233 4129 
Q 3647 3509 3647 2328 
Q 3647 1150 3233 529 
Q 2819 -91 2034 -91 
Q 1250 -91 836 529 
Q 422 1150 422 2328 
Q 422 3509 836 4129 
Q 1250 4750 2034 4750 
z
" transform="scale(0.015625)"/>
       </defs>
       <use xlink:href="#DejaVuSans-30"/>
      </g>
     </g>
    </g>
    <g id="xtick_2">
     <g id="line2d_3">
      <path d="M 195.621595 451.0525 
L 195.621595 23.837812 
" clip-path="url(#p8cfabb1da8)" style="fill: none; stroke-dasharray: 2.96,1.28; stroke-dashoffset: 0; stroke: #b0b0b0; stroke-opacity: 0.3; stroke-width: 0.8"/>
     </g>
     <g id="line2d_4">
      <g>
       <use xlink:href="#m4229c788ef" x="195.621595" y="451.0525" style="stroke: #000000; stroke-width: 0.8"/>
      </g>
     </g>
     <g id="text_2">
      <!-- 500 -->
      <g transform="translate(184.169095 467.170625) scale(0.12 -0.12)">
       <defs>
        <path id="DejaVuSans-35" d="M 691 4666 
L 3169 4666 
L 3169 4134 
L 1269 4134 
L 1269 2991 
Q 1406 3038 1543 3061 
Q 1681 3084 1819 3084 
Q 2600 3084 3056 2656 
Q 3513 2228 3513 1497 
Q 3513 744 3044 326 
Q 2575 -91 1722 -91 
Q 1428 -91 1123 -41 
Q 819 9 494 109 
L 494 744 
Q 775 591 1075 516 
Q 1375 441 1709 441 
Q 2250 441 2565 725 
Q 2881 1009 2881 1497 
Q 2881 1984 2565 2268 
Q 2250 2553 1709 2553 
Q 1456 2553 1204 2497 
Q 953 2441 691 2322 
L 691 4666 
z
" transform="scale(0.015625)"/>
       </defs>
       <use xlink:href="#DejaVuSans-35"/>
       <use xlink:href="#DejaVuSans-30" transform="translate(63.623047 0)"/>
       <use xlink:href="#DejaVuSans-30" transform="translate(127.246094 0)"/>
      </g>
     </g>
    </g>
    <g id="xtick_3">
     <g id="line2d_5">
      <path d="M 333.173661 451.0525 
L 333.173661 23.837812 
" clip-path="url(#p8cfabb1da8)" style="fill: none; stroke-dasharray: 2.96,1.28; stroke-dashoffset: 0; stroke: #b0b0b0; stroke-opacity: 0.3; stroke-width: 0.8"/>
     </g>
     <g id="line2d_6">
      <g>
       <use xlink:href="#m4229c788ef" x="333.173661" y="451.0525" style="stroke: #000000; stroke-width: 0.8"/>
      </g>
     </g>
     <g id="text_3">
      <!-- 1000 -->
      <g transform="translate(317.903661 467.170625) scale(0.12 -0.12)">
       <defs>
        <path id="DejaVuSans-31" d="M 794 531 
L 1825 531 
L 1825 4091 
L 703 3866 
L 703 4441 
L 1819 4666 
L 2450 4666 
L 2450 531 
L 3481 531 
L 3481 0 
L 794 0 
L 794 531 
z
" transform="scale(0.015625)"/>
       </defs>
       <use xlink:href="#DejaVuSans-31"/>
       <use xlink:href="#DejaVuSans-30" transform="translate(63.623047 0)"/>
       <use xlink:href="#DejaVuSans-30" transform="translate(127.246094 0)"/>
       <use xlink:href="#DejaVuSans-30" transform="translate(190.869141 0)"/>
      </g>
     </g>
    </g>
    <g id="xtick_4">
     <g id="line2d_7">
      <path d="M 470.725726 451.0525 
L 470.725726 23.837812 
" clip-path="url(#p8cfabb1da8)" style="fill: none; stroke-dasharray: 2.96,1.28; stroke-dashoffset: 0; stroke: #b0b0b0; stroke-opacity: 0.3; stroke-width: 0.8"/>
     </g>
     <g id="line2d_8">
      <g>
       <use xlink:href="#m4229c788ef" x="470.725726" y="451.0525" style="stroke: #000000; stroke-width: 0.8"/>
      </g>
     </g>
     <g id="text_4">
      <!-- 1500 -->
      <g transform="translate(455.455726 467.170625) scale(0.12 -0.12)">
       <use xlink:href="#DejaVuSans-31"/>
       <use xlink:href="#DejaVuSans-35" transform="translate(63.623047 0)"/>
       <use xlink:href="#DejaVuSans-30" transform="translate(127.246094 0)"/>
       <use xlink:href="#DejaVuSans-30" transform="translate(190.869141 0)"/>
      </g>
     </g>
    </g>
    <g id="xtick_5">
     <g id="line2d_9">
      <path d="M 608.277791 451.0525 
L 608.277791 23.837812 
" clip-path="url(#p8cfabb1da8)" style="fill: none; stroke-dasharray: 2.96,1.28; stroke-dashoffset: 0; stroke: #b0b0b0; stroke-opacity: 0.3; stroke-width: 0.8"/>
     </g>
     <g id="line2d_10">
      <g>
       <use xlink:href="#m4229c788ef" x="608.277791" y="451.0525" style="stroke: #000000; stroke-width: 0.8"/>
      </g>
     </g>
     <g id="text_5">
      <!-- 2000 -->
      <g transform="translate(593.007791 467.170625) scale(0.12 -0.12)">
       <defs>
        <path id="DejaVuSans-32" d="M 1228 531 
L 3431 531 
L 3431 0 
L 469 0 
L 469 531 
Q 828 903 1448 1529 
Q 2069 2156 2228 2338 
Q 2531 2678 2651 2914 
Q 2772 3150 2772 3378 
Q 2772 3750 2511 3984 
Q 2250 4219 1831 4219 
Q 1534 4219 1204 4116 
Q 875 4013 500 3803 
L 500 4441 
Q 881 4594 1212 4672 
Q 1544 4750 1819 4750 
Q 2544 4750 2975 4387 
Q 3406 4025 3406 3419 
Q 3406 3131 3298 2873 
Q 3191 2616 2906 2266 
Q 2828 2175 2409 1742 
Q 1991 1309 1228 531 
z
" transform="scale(0.015625)"/>
       </defs>
       <use xlink:href="#DejaVuSans-32"/>
       <use xlink:href="#DejaVuSans-30" transform="translate(63.623047 0)"/>
       <use xlink:href="#DejaVuSans-30" transform="translate(127.246094 0)"/>
       <use xlink:href="#DejaVuSans-30" transform="translate(190.869141 0)"/>
      </g>
     </g>
    </g>
    <g id="xtick_6">
     <g id="line2d_11">
      <path d="M 745.829857 451.0525 
L 745.829857 23.837812 
" clip-path="url(#p8cfabb1da8)" style="fill: none; stroke-dasharray: 2.96,1.28; stroke-dashoffset: 0; stroke: #b0b0b0; stroke-opacity: 0.3; stroke-width: 0.8"/>
     </g>
     <g id="line2d_12">
      <g>
       <use xlink:href="#m4229c788ef" x="745.829857" y="451.0525" style="stroke: #000000; stroke-width: 0.8"/>
      </g>
     </g>
     <g id="text_6">
      <!-- 2500 -->
      <g transform="translate(730.559857 467.170625) scale(0.12 -0.12)">
       <use xlink:href="#DejaVuSans-32"/>
       <use xlink:href="#DejaVuSans-35" transform="translate(63.623047 0)"/>
       <use xlink:href="#DejaVuSans-30" transform="translate(127.246094 0)"/>
       <use xlink:href="#DejaVuSans-30" transform="translate(190.869141 0)"/>
      </g>
     </g>
    </g>
    <g id="text_7">
     <!-- Frequency [Hz] -->
     <g transform="translate(402.09625 482.784375) scale(0.12 -0.12)">
      <defs>
       <path id="DejaVuSans-46" d="M 628 4666 
L 3309 4666 
L 3309 4134 
L 1259 4134 
L 1259 2759 
L 3109 2759 
L 3109 2228 
L 1259 2228 
L 1259 0 
L 628 0 
L 628 4666 
z
" transform="scale(0.015625)"/>
       <path id="DejaVuSans-72" d="M 2631 2963 
Q 2534 3019 2420 3045 
Q 2306 3072 2169 3072 
Q 1681 3072 1420 2755 
Q 1159 2438 1159 1844 
L 1159 0 
L 581 0 
L 581 3500 
L 1159 3500 
L 1159 2956 
Q 1341 3275 1631 3429 
Q 1922 3584 2338 3584 
Q 2397 3584 2469 3576 
Q 2541 3569 2628 3553 
L 2631 2963 
z
" transform="scale(0.015625)"/>
       <path id="DejaVuSans-65" d="M 3597 1894 
L 3597 1613 
L 953 1613 
Q 991 1019 1311 708 
Q 1631 397 2203 397 
Q 2534 397 2845 478 
Q 3156 559 3463 722 
L 3463 178 
Q 3153 47 2828 -22 
Q 2503 -91 2169 -91 
Q 1331 -91 842 396 
Q 353 884 353 1716 
Q 353 2575 817 3079 
Q 1281 3584 2069 3584 
Q 2775 3584 3186 3129 
Q 3597 2675 3597 1894 
z
M 3022 2063 
Q 3016 2534 2758 2815 
Q 2500 3097 2075 3097 
Q 1594 3097 1305 2825 
Q 1016 2553 972 2059 
L 3022 2063 
z
" transform="scale(0.015625)"/>
       <path id="DejaVuSans-71" d="M 947 1747 
Q 947 1113 1208 752 
Q 1469 391 1925 391 
Q 2381 391 2643 752 
Q 2906 1113 2906 1747 
Q 2906 2381 2643 2742 
Q 2381 3103 1925 3103 
Q 1469 3103 1208 2742 
Q 947 2381 947 1747 
z
M 2906 525 
Q 2725 213 2448 61 
Q 2172 -91 1784 -91 
Q 1150 -91 751 415 
Q 353 922 353 1747 
Q 353 2572 751 3078 
Q 1150 3584 1784 3584 
Q 2172 3584 2448 3432 
Q 2725 3281 2906 2969 
L 2906 3500 
L 3481 3500 
L 3481 -1331 
L 2906 -1331 
L 2906 525 
z
" transform="scale(0.015625)"/>
       <path id="DejaVuSans-75" d="M 544 1381 
L 544 3500 
L 1119 3500 
L 1119 1403 
Q 1119 906 1312 657 
Q 1506 409 1894 409 
Q 2359 409 2629 706 
Q 2900 1003 2900 1516 
L 2900 3500 
L 3475 3500 
L 3475 0 
L 2900 0 
L 2900 538 
Q 2691 219 2414 64 
Q 2138 -91 1772 -91 
Q 1169 -91 856 284 
Q 544 659 544 1381 
z
M 1991 3584 
L 1991 3584 
z
" transform="scale(0.015625)"/>
       <path id="DejaVuSans-6e" d="M 3513 2113 
L 3513 0 
L 2938 0 
L 2938 2094 
Q 2938 2591 2744 2837 
Q 2550 3084 2163 3084 
Q 1697 3084 1428 2787 
Q 1159 2491 1159 1978 
L 1159 0 
L 581 0 
L 581 3500 
L 1159 3500 
L 1159 2956 
Q 1366 3272 1645 3428 
Q 1925 3584 2291 3584 
Q 2894 3584 3203 3211 
Q 3513 2838 3513 2113 
z
" transform="scale(0.015625)"/>
       <path id="DejaVuSans-63" d="M 3122 3366 
L 3122 2828 
Q 2878 2963 2633 3030 
Q 2388 3097 2138 3097 
Q 1578 3097 1268 2742 
Q 959 2388 959 1747 
Q 959 1106 1268 751 
Q 1578 397 2138 397 
Q 2388 397 2633 464 
Q 2878 531 3122 666 
L 3122 134 
Q 2881 22 2623 -34 
Q 2366 -91 2075 -91 
Q 1284 -91 818 406 
Q 353 903 353 1747 
Q 353 2603 823 3093 
Q 1294 3584 2113 3584 
Q 2378 3584 2631 3529 
Q 2884 3475 3122 3366 
z
" transform="scale(0.015625)"/>
       <path id="DejaVuSans-79" d="M 2059 -325 
Q 1816 -950 1584 -1140 
Q 1353 -1331 966 -1331 
L 506 -1331 
L 506 -850 
L 844 -850 
Q 1081 -850 1212 -737 
Q 1344 -625 1503 -206 
L 1606 56 
L 191 3500 
L 800 3500 
L 1894 763 
L 2988 3500 
L 3597 3500 
L 2059 -325 
z
" transform="scale(0.015625)"/>
       <path id="DejaVuSans-20" transform="scale(0.015625)"/>
       <path id="DejaVuSans-5b" d="M 550 4863 
L 1875 4863 
L 1875 4416 
L 1125 4416 
L 1125 -397 
L 1875 -397 
L 1875 -844 
L 550 -844 
L 550 4863 
z
" transform="scale(0.015625)"/>
       <path id="DejaVuSans-48" d="M 628 4666 
L 1259 4666 
L 1259 2753 
L 3553 2753 
L 3553 4666 
L 4184 4666 
L 4184 0 
L 3553 0 
L 3553 2222 
L 1259 2222 
L 1259 0 
L 628 0 
L 628 4666 
z
" transform="scale(0.015625)"/>
       <path id="DejaVuSans-7a" d="M 353 3500 
L 3084 3500 
L 3084 2975 
L 922 459 
L 3084 459 
L 3084 0 
L 275 0 
L 275 525 
L 2438 3041 
L 353 3041 
L 353 3500 
z
" transform="scale(0.015625)"/>
       <path id="DejaVuSans-5d" d="M 1947 4863 
L 1947 -844 
L 622 -844 
L 622 -397 
L 1369 -397 
L 1369 4416 
L 622 4416 
L 622 4863 
L 1947 4863 
z
" transform="scale(0.015625)"/>
      </defs>
      <use xlink:href="#DejaVuSans-46"/>
      <use xlink:href="#DejaVuSans-72" transform="translate(50.269531 0)"/>
      <use xlink:href="#DejaVuSans-65" transform="translate(89.132812 0)"/>
      <use xlink:href="#DejaVuSans-71" transform="translate(150.65625 0)"/>
      <use xlink:href="#DejaVuSans-75" transform="translate(214.132812 0)"/>
      <use xlink:href="#DejaVuSans-65" transform="translate(277.511719 0)"/>
      <use xlink:href="#DejaVuSans-6e" transform="translate(339.035156 0)"/>
      <use xlink:href="#DejaVuSans-63" transform="translate(402.414062 0)"/>
      <use xlink:href="#DejaVuSans-79" transform="translate(457.394531 0)"/>
      <use xlink:href="#DejaVuSans-20" transform="translate(516.574219 0)"/>
      <use xlink:href="#DejaVuSans-5b" transform="translate(548.361328 0)"/>
      <use xlink:href="#DejaVuSans-48" transform="translate(587.375 0)"/>
      <use xlink:href="#DejaVuSans-7a" transform="translate(662.570312 0)"/>
      <use xlink:href="#DejaVuSans-5d" transform="translate(715.060547 0)"/>
     </g>
    </g>
   </g>
   <g id="matplotlib.axis_2">
    <g id="ytick_1">
     <g id="line2d_13">
      <path d="M 49.40375 425.99966 
L 845.28 425.99966 
" clip-path="url(#p8cfabb1da8)" style="fill: none; stroke-dasharray: 2.96,1.28; stroke-dashoffset: 0; stroke: #b0b0b0; stroke-opacity: 0.3; stroke-width: 0.8"/>
     </g>
     <g id="line2d_14">
      <defs>
       <path id="ma4cbf2b818" d="M 0 0 
L -3.5 0 
" style="stroke: #000000; stroke-width: 0.8"/>
      </defs>
      <g>
       <use xlink:href="#ma4cbf2b818" x="49.40375" y="425.99966" style="stroke: #000000; stroke-width: 0.8"/>
      </g>
     </g>
     <g id="text_8">
      <!-- 0.0 -->
      <g transform="translate(23.32 430.558722) scale(0.12 -0.12)">
       <defs>
        <path id="DejaVuSans-2e" d="M 684 794 
L 1344 794 
L 1344 0 
L 684 0 
L 684 794 
z
" transform="scale(0.015625)"/>
       </defs>
       <use xlink:href="#DejaVuSans-30"/>
       <use xlink:href="#DejaVuSans-2e" transform="translate(63.623047 0)"/>
       <use xlink:href="#DejaVuSans-30" transform="translate(95.410156 0)"/>
      </g>
     </g>
    </g>
    <g id="ytick_2">
     <g id="line2d_15">
      <path d="M 49.40375 372.486322 
L 845.28 372.486322 
" clip-path="url(#p8cfabb1da8)" style="fill: none; stroke-dasharray: 2.96,1.28; stroke-dashoffset: 0; stroke: #b0b0b0; stroke-opacity: 0.3; stroke-width: 0.8"/>
     </g>
     <g id="line2d_16">
      <g>
       <use xlink:href="#ma4cbf2b818" x="49.40375" y="372.486322" style="stroke: #000000; stroke-width: 0.8"/>
      </g>
     </g>
     <g id="text_9">
      <!-- 0.5 -->
      <g transform="translate(23.32 377.045384) scale(0.12 -0.12)">
       <use xlink:href="#DejaVuSans-30"/>
       <use xlink:href="#DejaVuSans-2e" transform="translate(63.623047 0)"/>
       <use xlink:href="#DejaVuSans-35" transform="translate(95.410156 0)"/>
      </g>
     </g>
    </g>
    <g id="ytick_3">
     <g id="line2d_17">
      <path d="M 49.40375 318.972983 
L 845.28 318.972983 
" clip-path="url(#p8cfabb1da8)" style="fill: none; stroke-dasharray: 2.96,1.28; stroke-dashoffset: 0; stroke: #b0b0b0; stroke-opacity: 0.3; stroke-width: 0.8"/>
     </g>
     <g id="line2d_18">
      <g>
       <use xlink:href="#ma4cbf2b818" x="49.40375" y="318.972983" style="stroke: #000000; stroke-width: 0.8"/>
      </g>
     </g>
     <g id="text_10">
      <!-- 1.0 -->
      <g transform="translate(23.32 323.532046) scale(0.12 -0.12)">
       <use xlink:href="#DejaVuSans-31"/>
       <use xlink:href="#DejaVuSans-2e" transform="translate(63.623047 0)"/>
       <use xlink:href="#DejaVuSans-30" transform="translate(95.410156 0)"/>
      </g>
     </g>
    </g>
    <g id="ytick_4">
     <g id="line2d_19">
      <path d="M 49.40375 265.459645 
L 845.28 265.459645 
" clip-path="url(#p8cfabb1da8)" style="fill: none; stroke-dasharray: 2.96,1.28; stroke-dashoffset: 0; stroke: #b0b0b0; stroke-opacity: 0.3; stroke-width: 0.8"/>
     </g>
     <g id="line2d_20">
      <g>
       <use xlink:href="#ma4cbf2b818" x="49.40375" y="265.459645" style="stroke: #000000; stroke-width: 0.8"/>
      </g>
     </g>
     <g id="text_11">
      <!-- 1.5 -->
      <g transform="translate(23.32 270.018707) scale(0.12 -0.12)">
       <use xlink:href="#DejaVuSans-31"/>
       <use xlink:href="#DejaVuSans-2e" transform="translate(63.623047 0)"/>
       <use xlink:href="#DejaVuSans-35" transform="translate(95.410156 0)"/>
      </g>
     </g>
    </g>
    <g id="ytick_5">
     <g id="line2d_21">
      <path d="M 49.40375 211.946307 
L 845.28 211.946307 
" clip-path="url(#p8cfabb1da8)" style="fill: none; stroke-dasharray: 2.96,1.28; stroke-dashoffset: 0; stroke: #b0b0b0; stroke-opacity: 0.3; stroke-width: 0.8"/>
     </g>
     <g id="line2d_22">
      <g>
       <use xlink:href="#ma4cbf2b818" x="49.40375" y="211.946307" style="stroke: #000000; stroke-width: 0.8"/>
      </g>
     </g>
     <g id="text_12">
      <!-- 2.0 -->
      <g transform="translate(23.32 216.505369) scale(0.12 -0.12)">
       <use xlink:href="#DejaVuSans-32"/>
       <use xlink:href="#DejaVuSans-2e" transform="translate(63.623047 0)"/>
       <use xlink:href="#DejaVuSans-30" transform="translate(95.410156 0)"/>
      </g>
     </g>
    </g>
    <g id="ytick_6">
     <g id="line2d_23">
      <path d="M 49.40375 158.432968 
L 845.28 158.432968 
" clip-path="url(#p8cfabb1da8)" style="fill: none; stroke-dasharray: 2.96,1.28; stroke-dashoffset: 0; stroke: #b0b0b0; stroke-opacity: 0.3; stroke-width: 0.8"/>
     </g>
     <g id="line2d_24">
      <g>
       <use xlink:href="#ma4cbf2b818" x="49.40375" y="158.432968" style="stroke: #000000; stroke-width: 0.8"/>
      </g>
     </g>
     <g id="text_13">
      <!-- 2.5 -->
      <g transform="translate(23.32 162.992031) scale(0.12 -0.12)">
       <use xlink:href="#DejaVuSans-32"/>
       <use xlink:href="#DejaVuSans-2e" transform="translate(63.623047 0)"/>
       <use xlink:href="#DejaVuSans-35" transform="translate(95.410156 0)"/>
      </g>
     </g>
    </g>
    <g id="ytick_7">
     <g id="line2d_25">
      <path d="M 49.40375 104.91963 
L 845.28 104.91963 
" clip-path="url(#p8cfabb1da8)" style="fill: none; stroke-dasharray: 2.96,1.28; stroke-dashoffset: 0; stroke: #b0b0b0; stroke-opacity: 0.3; stroke-width: 0.8"/>
     </g>
     <g id="line2d_26">
      <g>
       <use xlink:href="#ma4cbf2b818" x="49.40375" y="104.91963" style="stroke: #000000; stroke-width: 0.8"/>
      </g>
     </g>
     <g id="text_14">
      <!-- 3.0 -->
      <g transform="translate(23.32 109.478692) scale(0.12 -0.12)">
       <defs>
        <path id="DejaVuSans-33" d="M 2597 2516 
Q 3050 2419 3304 2112 
Q 3559 1806 3559 1356 
Q 3559 666 3084 287 
Q 2609 -91 1734 -91 
Q 1441 -91 1130 -33 
Q 819 25 488 141 
L 488 750 
Q 750 597 1062 519 
Q 1375 441 1716 441 
Q 2309 441 2620 675 
Q 2931 909 2931 1356 
Q 2931 1769 2642 2001 
Q 2353 2234 1838 2234 
L 1294 2234 
L 1294 2753 
L 1863 2753 
Q 2328 2753 2575 2939 
Q 2822 3125 2822 3475 
Q 2822 3834 2567 4026 
Q 2313 4219 1838 4219 
Q 1578 4219 1281 4162 
Q 984 4106 628 3988 
L 628 4550 
Q 988 4650 1302 4700 
Q 1616 4750 1894 4750 
Q 2613 4750 3031 4423 
Q 3450 4097 3450 3541 
Q 3450 3153 3228 2886 
Q 3006 2619 2597 2516 
z
" transform="scale(0.015625)"/>
       </defs>
       <use xlink:href="#DejaVuSans-33"/>
       <use xlink:href="#DejaVuSans-2e" transform="translate(63.623047 0)"/>
       <use xlink:href="#DejaVuSans-30" transform="translate(95.410156 0)"/>
      </g>
     </g>
    </g>
    <g id="ytick_8">
     <g id="line2d_27">
      <path d="M 49.40375 51.406291 
L 845.28 51.406291 
" clip-path="url(#p8cfabb1da8)" style="fill: none; stroke-dasharray: 2.96,1.28; stroke-dashoffset: 0; stroke: #b0b0b0; stroke-opacity: 0.3; stroke-width: 0.8"/>
     </g>
     <g id="line2d_28">
      <g>
       <use xlink:href="#ma4cbf2b818" x="49.40375" y="51.406291" style="stroke: #000000; stroke-width: 0.8"/>
      </g>
     </g>
     <g id="text_15">
      <!-- 3.5 -->
      <g transform="translate(23.32 55.965354) scale(0.12 -0.12)">
       <use xlink:href="#DejaVuSans-33"/>
       <use xlink:href="#DejaVuSans-2e" transform="translate(63.623047 0)"/>
       <use xlink:href="#DejaVuSans-35" transform="translate(95.410156 0)"/>
      </g>
     </g>
    </g>
    <g id="text_16">
     <!-- $|Z|$ [$\Omega$] -->
     <g transform="translate(16.44 256.825156) rotate(-90) scale(0.12 -0.12)">
      <defs>
       <path id="DejaVuSans-7c" d="M 1344 4891 
L 1344 -1509 
L 813 -1509 
L 813 4891 
L 1344 4891 
z
" transform="scale(0.015625)"/>
       <path id="DejaVuSans-Oblique-5a" d="M 838 4666 
L 4500 4666 
L 4409 4184 
L 794 531 
L 3769 531 
L 3669 0 
L -141 0 
L -50 481 
L 3566 4134 
L 738 4134 
L 838 4666 
z
" transform="scale(0.015625)"/>
       <path id="DejaVuSans-3a9" d="M 4647 556 
L 4647 0 
L 2772 0 
L 2772 556 
Q 3325 859 3634 1378 
Q 3944 1897 3944 2528 
Q 3944 3278 3531 3731 
Q 3119 4184 2444 4184 
Q 1769 4184 1355 3729 
Q 941 3275 941 2528 
Q 941 1897 1250 1378 
Q 1563 859 2119 556 
L 2119 0 
L 244 0 
L 244 556 
L 1241 556 
Q 747 991 519 1456 
Q 294 1922 294 2497 
Q 294 3491 894 4106 
Q 1491 4722 2444 4722 
Q 3391 4722 3994 4106 
Q 4594 3494 4594 2528 
Q 4594 1922 4372 1459 
Q 4150 997 3647 556 
L 4647 556 
z
" transform="scale(0.015625)"/>
      </defs>
      <use xlink:href="#DejaVuSans-7c" transform="translate(0 0.578125)"/>
      <use xlink:href="#DejaVuSans-Oblique-5a" transform="translate(33.691406 0.578125)"/>
      <use xlink:href="#DejaVuSans-7c" transform="translate(102.197266 0.578125)"/>
      <use xlink:href="#DejaVuSans-20" transform="translate(135.888672 0.578125)"/>
      <use xlink:href="#DejaVuSans-5b" transform="translate(167.675781 0.578125)"/>
      <use xlink:href="#DejaVuSans-3a9" transform="translate(206.689453 0.578125)"/>
      <use xlink:href="#DejaVuSans-5d" transform="translate(283.105469 0.578125)"/>
     </g>
    </g>
    <g id="text_17">
     <!-- 1e13 -->
     <g transform="translate(49.40375 20.837812) scale(0.12 -0.12)">
      <use xlink:href="#DejaVuSans-31"/>
      <use xlink:href="#DejaVuSans-65" transform="translate(63.623047 0)"/>
      <use xlink:href="#DejaVuSans-31" transform="translate(125.146484 0)"/>
      <use xlink:href="#DejaVuSans-33" transform="translate(188.769531 0)"/>
     </g>
    </g>
   </g>
   <g id="line2d_29">
    <path d="M 85.579943 425.99966 
L 677.540856 425.889106 
L 696.211506 425.871815 
L 704.027126 426.085754 
L 710.105943 426.463917 
L 715.46109 427.014441 
L 720.526771 427.757887 
L 725.737184 428.744559 
L 738.184284 431.308819 
L 741.368426 431.612695 
L 743.973633 431.561838 
L 745.999905 431.244351 
L 747.591976 430.783417 
L 749.184047 430.086923 
L 750.631384 429.216831 
L 752.078721 428.082578 
L 753.526059 426.643428 
L 754.973396 424.856672 
L 756.420733 422.675557 
L 757.86807 420.041557 
L 759.170674 417.262094 
L 761.052212 412.424565 
L 762.644283 407.49056 
L 764.236354 401.745378 
L 766.841561 390.334766 
L 767.420496 387.237398 
L 771.038839 365.639251 
L 771.328306 363.572173 
L 774.22298 340.607566 
L 774.512448 337.800672 
L 775.525584 327.878085 
L 775.670318 328.615556 
L 776.104519 322.582566 
L 776.393986 319.361505 
L 776.53872 318.97775 
L 777.117655 312.650594 
L 777.262389 310.577103 
L 777.407122 310.348553 
L 777.69659 306.451524 
L 777.841323 304.250752 
L 777.986057 303.997254 
L 778.130791 299.746851 
L 778.275525 299.923565 
L 778.420258 298.396313 
L 778.709726 294.341661 
L 778.854459 295.131167 
L 778.999193 292.58428 
L 779.143927 292.120675 
L 779.578128 282.253906 
L 779.722862 282.356356 
L 779.867595 283.927127 
L 780.012329 277.94424 
L 780.157063 278.370152 
L 780.301797 275.932427 
L 780.44653 275.802696 
L 780.591264 273.52278 
L 780.735998 274.460647 
L 781.025465 265.466665 
L 781.170199 265.942767 
L 781.314933 261.664389 
L 781.459666 263.980876 
L 781.893868 252.111413 
L 782.038601 256.940482 
L 782.183335 255.012318 
L 782.472802 246.34585 
L 782.617536 244.347808 
L 782.76227 246.161138 
L 782.907004 245.300818 
L 783.051737 241.630195 
L 783.196471 241.685021 
L 783.341205 235.927719 
L 783.485938 239.543003 
L 783.630672 229.865582 
L 783.775406 229.808156 
L 784.209607 222.68646 
L 784.354341 226.248179 
L 784.499075 220.873989 
L 784.643808 221.04228 
L 784.788542 218.487573 
L 784.933276 212.925588 
L 785.078009 213.135416 
L 785.222743 213.804969 
L 785.367477 203.708957 
L 785.512211 208.993868 
L 785.801678 194.904517 
L 785.946412 199.174184 
L 786.091145 195.177144 
L 786.235879 199.425265 
L 786.380613 199.399051 
L 786.525347 190.698703 
L 786.67008 198.637256 
L 786.959548 183.081869 
L 787.104281 185.582442 
L 787.393749 171.549777 
L 787.82795 181.218127 
L 788.117417 162.980651 
L 788.262151 164.620062 
L 788.406885 172.503608 
L 788.551619 160.023989 
L 788.696352 164.618981 
L 788.841086 158.894589 
L 788.98582 159.402057 
L 789.275287 147.353795 
L 789.420021 146.335028 
L 789.564755 157.58279 
L 789.854222 131.228268 
L 789.998956 133.988573 
L 790.14369 133.11907 
L 790.433157 140.339298 
L 790.577891 124.333671 
L 790.722624 124.830534 
L 790.867358 138.297362 
L 791.012092 137.016247 
L 791.156826 138.004611 
L 791.301559 120.220254 
L 791.446293 125.917787 
L 791.591027 103.18929 
L 791.73576 121.522275 
L 791.880494 110.657408 
L 792.025228 124.482139 
L 792.314695 98.956475 
L 792.459429 102.431843 
L 792.604163 115.095219 
L 792.748897 108.915037 
L 792.89363 85.97632 
L 793.038364 98.912061 
L 793.183098 81.235182 
L 793.327831 91.55813 
L 793.472565 83.981797 
L 793.617299 94.987939 
L 793.762033 83.479284 
L 793.906766 94.748523 
L 794.0515 78.351355 
L 794.196234 84.959917 
L 794.340967 81.633023 
L 794.485701 82.414067 
L 794.630435 91.642465 
L 794.775169 66.558065 
L 794.919902 64.311039 
L 795.064636 90.192961 
L 795.20937 71.054363 
L 795.354103 74.414887 
L 795.498837 60.476468 
L 795.643571 70.411111 
L 795.788305 67.675391 
L 795.933038 51.465016 
L 796.222506 70.012999 
L 796.36724 44.847043 
L 796.656707 71.754373 
L 796.801441 53.076078 
L 796.946174 73.169779 
L 797.090908 73.459268 
L 797.235642 69.877248 
L 797.525109 43.256662 
L 797.669843 47.92446 
L 797.814577 63.966557 
L 797.95931 63.849299 
L 798.104044 58.576256 
L 798.248778 47.494953 
L 798.538245 58.454948 
L 798.682979 52.131051 
L 798.972446 80.022027 
L 799.261914 62.798445 
L 799.406648 51.543743 
L 799.551381 55.354116 
L 799.696115 68.091029 
L 799.985582 61.244149 
L 800.130316 67.959026 
L 800.27505 67.132015 
L 800.419784 69.112745 
L 800.709251 75.524663 
L 800.853985 58.957369 
L 800.998719 70.813611 
L 801.143452 46.97582 
L 801.288186 83.77898 
L 801.43292 75.643369 
L 801.722387 83.121516 
L 801.867121 97.520325 
L 802.011855 80.782931 
L 802.156588 88.138227 
L 802.301322 77.184836 
L 802.446056 108.03086 
L 802.735523 90.578108 
L 802.880257 99.808868 
L 803.024991 86.747617 
L 803.169724 109.033688 
L 803.314458 113.333894 
L 803.459192 121.139937 
L 803.603925 120.886918 
L 803.748659 123.99946 
L 804.472328 153.507168 
L 804.617062 152.729592 
L 804.761795 162.973408 
L 804.906529 163.622624 
L 805.34073 184.27974 
L 805.485464 189.102999 
L 805.630198 201.604862 
L 805.774931 199.444815 
L 806.064399 222.203642 
L 806.353866 232.807457 
L 807.077535 276.251214 
L 808.380138 366.419764 
L 809.103807 425.99966 
L 809.103807 425.99966 
" clip-path="url(#p8cfabb1da8)" style="fill: none; stroke-dasharray: 7.4,3.2; stroke-dashoffset: 0; stroke: #ff7f0e; stroke-width: 2"/>
   </g>
   <g id="patch_3">
    <path d="M 49.40375 451.0525 
L 49.40375 23.837812 
" style="fill: none; stroke: #000000; stroke-width: 0.8; stroke-linejoin: miter; stroke-linecap: square"/>
   </g>
   <g id="patch_4">
    <path d="M 49.40375 451.0525 
L 845.28 451.0525 
" style="fill: none; stroke: #000000; stroke-width: 0.8; stroke-linejoin: miter; stroke-linecap: square"/>
   </g>
   <g id="line2d_30">
    <path d="M 85.579943 425.99966 
L 809.103807 425.99966 
L 809.103807 425.99966 
" clip-path="url(#p8cfabb1da8)" style="fill: none; stroke: #1f77b4; stroke-width: 2.5; stroke-linecap: square"/>
   </g>
   <g id="text_18">
    <!-- Natural Cubic Spline vs Polynomial Interpolation -->
    <g transform="translate(278.6725 17.837812) scale(0.14 -0.14)">
     <defs>
      <path id="DejaVuSans-4e" d="M 628 4666 
L 1478 4666 
L 3547 763 
L 3547 4666 
L 4159 4666 
L 4159 0 
L 3309 0 
L 1241 3903 
L 1241 0 
L 628 0 
L 628 4666 
z
" transform="scale(0.015625)"/>
      <path id="DejaVuSans-61" d="M 2194 1759 
Q 1497 1759 1228 1600 
Q 959 1441 959 1056 
Q 959 750 1161 570 
Q 1363 391 1709 391 
Q 2188 391 2477 730 
Q 2766 1069 2766 1631 
L 2766 1759 
L 2194 1759 
z
M 3341 1997 
L 3341 0 
L 2766 0 
L 2766 531 
Q 2569 213 2275 61 
Q 1981 -91 1556 -91 
Q 1019 -91 701 211 
Q 384 513 384 1019 
Q 384 1609 779 1909 
Q 1175 2209 1959 2209 
L 2766 2209 
L 2766 2266 
Q 2766 2663 2505 2880 
Q 2244 3097 1772 3097 
Q 1472 3097 1187 3025 
Q 903 2953 641 2809 
L 641 3341 
Q 956 3463 1253 3523 
Q 1550 3584 1831 3584 
Q 2591 3584 2966 3190 
Q 3341 2797 3341 1997 
z
" transform="scale(0.015625)"/>
      <path id="DejaVuSans-74" d="M 1172 4494 
L 1172 3500 
L 2356 3500 
L 2356 3053 
L 1172 3053 
L 1172 1153 
Q 1172 725 1289 603 
Q 1406 481 1766 481 
L 2356 481 
L 2356 0 
L 1766 0 
Q 1100 0 847 248 
Q 594 497 594 1153 
L 594 3053 
L 172 3053 
L 172 3500 
L 594 3500 
L 594 4494 
L 1172 4494 
z
" transform="scale(0.015625)"/>
      <path id="DejaVuSans-6c" d="M 603 4863 
L 1178 4863 
L 1178 0 
L 603 0 
L 603 4863 
z
" transform="scale(0.015625)"/>
      <path id="DejaVuSans-43" d="M 4122 4306 
L 4122 3641 
Q 3803 3938 3442 4084 
Q 3081 4231 2675 4231 
Q 1875 4231 1450 3742 
Q 1025 3253 1025 2328 
Q 1025 1406 1450 917 
Q 1875 428 2675 428 
Q 3081 428 3442 575 
Q 3803 722 4122 1019 
L 4122 359 
Q 3791 134 3420 21 
Q 3050 -91 2638 -91 
Q 1578 -91 968 557 
Q 359 1206 359 2328 
Q 359 3453 968 4101 
Q 1578 4750 2638 4750 
Q 3056 4750 3426 4639 
Q 3797 4528 4122 4306 
z
" transform="scale(0.015625)"/>
      <path id="DejaVuSans-62" d="M 3116 1747 
Q 3116 2381 2855 2742 
Q 2594 3103 2138 3103 
Q 1681 3103 1420 2742 
Q 1159 2381 1159 1747 
Q 1159 1113 1420 752 
Q 1681 391 2138 391 
Q 2594 391 2855 752 
Q 3116 1113 3116 1747 
z
M 1159 2969 
Q 1341 3281 1617 3432 
Q 1894 3584 2278 3584 
Q 2916 3584 3314 3078 
Q 3713 2572 3713 1747 
Q 3713 922 3314 415 
Q 2916 -91 2278 -91 
Q 1894 -91 1617 61 
Q 1341 213 1159 525 
L 1159 0 
L 581 0 
L 581 4863 
L 1159 4863 
L 1159 2969 
z
" transform="scale(0.015625)"/>
      <path id="DejaVuSans-69" d="M 603 3500 
L 1178 3500 
L 1178 0 
L 603 0 
L 603 3500 
z
M 603 4863 
L 1178 4863 
L 1178 4134 
L 603 4134 
L 603 4863 
z
" transform="scale(0.015625)"/>
      <path id="DejaVuSans-53" d="M 3425 4513 
L 3425 3897 
Q 3066 4069 2747 4153 
Q 2428 4238 2131 4238 
Q 1616 4238 1336 4038 
Q 1056 3838 1056 3469 
Q 1056 3159 1242 3001 
Q 1428 2844 1947 2747 
L 2328 2669 
Q 3034 2534 3370 2195 
Q 3706 1856 3706 1288 
Q 3706 609 3251 259 
Q 2797 -91 1919 -91 
Q 1588 -91 1214 -16 
Q 841 59 441 206 
L 441 856 
Q 825 641 1194 531 
Q 1563 422 1919 422 
Q 2459 422 2753 634 
Q 3047 847 3047 1241 
Q 3047 1584 2836 1778 
Q 2625 1972 2144 2069 
L 1759 2144 
Q 1053 2284 737 2584 
Q 422 2884 422 3419 
Q 422 4038 858 4394 
Q 1294 4750 2059 4750 
Q 2388 4750 2728 4690 
Q 3069 4631 3425 4513 
z
" transform="scale(0.015625)"/>
      <path id="DejaVuSans-70" d="M 1159 525 
L 1159 -1331 
L 581 -1331 
L 581 3500 
L 1159 3500 
L 1159 2969 
Q 1341 3281 1617 3432 
Q 1894 3584 2278 3584 
Q 2916 3584 3314 3078 
Q 3713 2572 3713 1747 
Q 3713 922 3314 415 
Q 2916 -91 2278 -91 
Q 1894 -91 1617 61 
Q 1341 213 1159 525 
z
M 3116 1747 
Q 3116 2381 2855 2742 
Q 2594 3103 2138 3103 
Q 1681 3103 1420 2742 
Q 1159 2381 1159 1747 
Q 1159 1113 1420 752 
Q 1681 391 2138 391 
Q 2594 391 2855 752 
Q 3116 1113 3116 1747 
z
" transform="scale(0.015625)"/>
      <path id="DejaVuSans-76" d="M 191 3500 
L 800 3500 
L 1894 563 
L 2988 3500 
L 3597 3500 
L 2284 0 
L 1503 0 
L 191 3500 
z
" transform="scale(0.015625)"/>
      <path id="DejaVuSans-73" d="M 2834 3397 
L 2834 2853 
Q 2591 2978 2328 3040 
Q 2066 3103 1784 3103 
Q 1356 3103 1142 2972 
Q 928 2841 928 2578 
Q 928 2378 1081 2264 
Q 1234 2150 1697 2047 
L 1894 2003 
Q 2506 1872 2764 1633 
Q 3022 1394 3022 966 
Q 3022 478 2636 193 
Q 2250 -91 1575 -91 
Q 1294 -91 989 -36 
Q 684 19 347 128 
L 347 722 
Q 666 556 975 473 
Q 1284 391 1588 391 
Q 1994 391 2212 530 
Q 2431 669 2431 922 
Q 2431 1156 2273 1281 
Q 2116 1406 1581 1522 
L 1381 1569 
Q 847 1681 609 1914 
Q 372 2147 372 2553 
Q 372 3047 722 3315 
Q 1072 3584 1716 3584 
Q 2034 3584 2315 3537 
Q 2597 3491 2834 3397 
z
" transform="scale(0.015625)"/>
      <path id="DejaVuSans-50" d="M 1259 4147 
L 1259 2394 
L 2053 2394 
Q 2494 2394 2734 2622 
Q 2975 2850 2975 3272 
Q 2975 3691 2734 3919 
Q 2494 4147 2053 4147 
L 1259 4147 
z
M 628 4666 
L 2053 4666 
Q 2838 4666 3239 4311 
Q 3641 3956 3641 3272 
Q 3641 2581 3239 2228 
Q 2838 1875 2053 1875 
L 1259 1875 
L 1259 0 
L 628 0 
L 628 4666 
z
" transform="scale(0.015625)"/>
      <path id="DejaVuSans-6f" d="M 1959 3097 
Q 1497 3097 1228 2736 
Q 959 2375 959 1747 
Q 959 1119 1226 758 
Q 1494 397 1959 397 
Q 2419 397 2687 759 
Q 2956 1122 2956 1747 
Q 2956 2369 2687 2733 
Q 2419 3097 1959 3097 
z
M 1959 3584 
Q 2709 3584 3137 3096 
Q 3566 2609 3566 1747 
Q 3566 888 3137 398 
Q 2709 -91 1959 -91 
Q 1206 -91 779 398 
Q 353 888 353 1747 
Q 353 2609 779 3096 
Q 1206 3584 1959 3584 
z
" transform="scale(0.015625)"/>
      <path id="DejaVuSans-6d" d="M 3328 2828 
Q 3544 3216 3844 3400 
Q 4144 3584 4550 3584 
Q 5097 3584 5394 3201 
Q 5691 2819 5691 2113 
L 5691 0 
L 5113 0 
L 5113 2094 
Q 5113 2597 4934 2840 
Q 4756 3084 4391 3084 
Q 3944 3084 3684 2787 
Q 3425 2491 3425 1978 
L 3425 0 
L 2847 0 
L 2847 2094 
Q 2847 2600 2669 2842 
Q 2491 3084 2119 3084 
Q 1678 3084 1418 2786 
Q 1159 2488 1159 1978 
L 1159 0 
L 581 0 
L 581 3500 
L 1159 3500 
L 1159 2956 
Q 1356 3278 1631 3431 
Q 1906 3584 2284 3584 
Q 2666 3584 2933 3390 
Q 3200 3197 3328 2828 
z
" transform="scale(0.015625)"/>
      <path id="DejaVuSans-49" d="M 628 4666 
L 1259 4666 
L 1259 0 
L 628 0 
L 628 4666 
z
" transform="scale(0.015625)"/>
     </defs>
     <use xlink:href="#DejaVuSans-4e"/>
     <use xlink:href="#DejaVuSans-61" transform="translate(74.804688 0)"/>
     <use xlink:href="#DejaVuSans-74" transform="translate(136.083984 0)"/>
     <use xlink:href="#DejaVuSans-75" transform="translate(175.292969 0)"/>
     <use xlink:href="#DejaVuSans-72" transform="translate(238.671875 0)"/>
     <use xlink:href="#DejaVuSans-61" transform="translate(279.785156 0)"/>
     <use xlink:href="#DejaVuSans-6c" transform="translate(341.064453 0)"/>
     <use xlink:href="#DejaVuSans-20" transform="translate(368.847656 0)"/>
     <use xlink:href="#DejaVuSans-43" transform="translate(400.634766 0)"/>
     <use xlink:href="#DejaVuSans-75" transform="translate(470.458984 0)"/>
     <use xlink:href="#DejaVuSans-62" transform="translate(533.837891 0)"/>
     <use xlink:href="#DejaVuSans-69" transform="translate(597.314453 0)"/>
     <use xlink:href="#DejaVuSans-63" transform="translate(625.097656 0)"/>
     <use xlink:href="#DejaVuSans-20" transform="translate(680.078125 0)"/>
     <use xlink:href="#DejaVuSans-53" transform="translate(711.865234 0)"/>
     <use xlink:href="#DejaVuSans-70" transform="translate(775.341797 0)"/>
     <use xlink:href="#DejaVuSans-6c" transform="translate(838.818359 0)"/>
     <use xlink:href="#DejaVuSans-69" transform="translate(866.601562 0)"/>
     <use xlink:href="#DejaVuSans-6e" transform="translate(894.384766 0)"/>
     <use xlink:href="#DejaVuSans-65" transform="translate(957.763672 0)"/>
     <use xlink:href="#DejaVuSans-20" transform="translate(1019.287109 0)"/>
     <use xlink:href="#DejaVuSans-76" transform="translate(1051.074219 0)"/>
     <use xlink:href="#DejaVuSans-73" transform="translate(1110.253906 0)"/>
     <use xlink:href="#DejaVuSans-20" transform="translate(1162.353516 0)"/>
     <use xlink:href="#DejaVuSans-50" transform="translate(1194.140625 0)"/>
     <use xlink:href="#DejaVuSans-6f" transform="translate(1250.818359 0)"/>
     <use xlink:href="#DejaVuSans-6c" transform="translate(1312 0)"/>
     <use xlink:href="#DejaVuSans-79" transform="translate(1339.783203 0)"/>
     <use xlink:href="#DejaVuSans-6e" transform="translate(1398.962891 0)"/>
     <use xlink:href="#DejaVuSans-6f" transform="translate(1462.341797 0)"/>
     <use xlink:href="#DejaVuSans-6d" transform="translate(1523.523438 0)"/>
     <use xlink:href="#DejaVuSans-69" transform="translate(1620.935547 0)"/>
     <use xlink:href="#DejaVuSans-61" transform="translate(1648.71875 0)"/>
     <use xlink:href="#DejaVuSans-6c" transform="translate(1709.998047 0)"/>
     <use xlink:href="#DejaVuSans-20" transform="translate(1737.78125 0)"/>
     <use xlink:href="#DejaVuSans-49" transform="translate(1769.568359 0)"/>
     <use xlink:href="#DejaVuSans-6e" transform="translate(1799.060547 0)"/>
     <use xlink:href="#DejaVuSans-74" transform="translate(1862.439453 0)"/>
     <use xlink:href="#DejaVuSans-65" transform="translate(1901.648438 0)"/>
     <use xlink:href="#DejaVuSans-72" transform="translate(1963.171875 0)"/>
     <use xlink:href="#DejaVuSans-70" transform="translate(2004.285156 0)"/>
     <use xlink:href="#DejaVuSans-6f" transform="translate(2067.761719 0)"/>
     <use xlink:href="#DejaVuSans-6c" transform="translate(2128.943359 0)"/>
     <use xlink:href="#DejaVuSans-61" transform="translate(2156.726562 0)"/>
     <use xlink:href="#DejaVuSans-74" transform="translate(2218.005859 0)"/>
     <use xlink:href="#DejaVuSans-69" transform="translate(2257.214844 0)"/>
     <use xlink:href="#DejaVuSans-6f" transform="translate(2284.998047 0)"/>
     <use xlink:href="#DejaVuSans-6e" transform="translate(2346.179688 0)"/>
    </g>
   </g>
   <g id="PathCollection_1">
    <defs>
     <path id="mcf271a975b" d="M 0 3.162278 
C 0.838646 3.162278 1.643056 2.82908 2.236068 2.236068 
C 2.82908 1.643056 3.162278 0.838646 3.162278 0 
C 3.162278 -0.838646 2.82908 -1.643056 2.236068 -2.236068 
C 1.643056 -2.82908 0.838646 -3.162278 0 -3.162278 
C -0.838646 -3.162278 -1.643056 -2.82908 -2.236068 -2.236068 
C -2.82908 -1.643056 -3.162278 -0.838646 -3.162278 0 
C -3.162278 0.838646 -2.82908 1.643056 -2.236068 2.236068 
C -1.643056 2.82908 -0.838646 3.162278 0 3.162278 
z
" style="stroke: #1f77b4; stroke-opacity: 0.75"/>
    </defs>
    <g clip-path="url(#p8cfabb1da8)">
     <use xlink:href="#mcf271a975b" x="85.579943" y="425.99966" style="fill: #1f77b4; fill-opacity: 0.75; stroke: #1f77b4; stroke-opacity: 0.75"/>
     <use xlink:href="#mcf271a975b" x="91.082026" y="425.99966" style="fill: #1f77b4; fill-opacity: 0.75; stroke: #1f77b4; stroke-opacity: 0.75"/>
     <use xlink:href="#mcf271a975b" x="97.959629" y="425.99966" style="fill: #1f77b4; fill-opacity: 0.75; stroke: #1f77b4; stroke-opacity: 0.75"/>
     <use xlink:href="#mcf271a975b" x="104.837232" y="425.99966" style="fill: #1f77b4; fill-opacity: 0.75; stroke: #1f77b4; stroke-opacity: 0.75"/>
     <use xlink:href="#mcf271a975b" x="113.090356" y="425.99966" style="fill: #1f77b4; fill-opacity: 0.75; stroke: #1f77b4; stroke-opacity: 0.75"/>
     <use xlink:href="#mcf271a975b" x="122.719001" y="425.99966" style="fill: #1f77b4; fill-opacity: 0.75; stroke: #1f77b4; stroke-opacity: 0.75"/>
     <use xlink:href="#mcf271a975b" x="132.347645" y="425.99966" style="fill: #1f77b4; fill-opacity: 0.75; stroke: #1f77b4; stroke-opacity: 0.75"/>
     <use xlink:href="#mcf271a975b" x="143.351811" y="425.99966" style="fill: #1f77b4; fill-opacity: 0.75; stroke: #1f77b4; stroke-opacity: 0.75"/>
     <use xlink:href="#mcf271a975b" x="155.731497" y="425.99966" style="fill: #1f77b4; fill-opacity: 0.75; stroke: #1f77b4; stroke-opacity: 0.75"/>
     <use xlink:href="#mcf271a975b" x="169.486703" y="425.99966" style="fill: #1f77b4; fill-opacity: 0.75; stroke: #1f77b4; stroke-opacity: 0.75"/>
     <use xlink:href="#mcf271a975b" x="184.61743" y="425.99966" style="fill: #1f77b4; fill-opacity: 0.75; stroke: #1f77b4; stroke-opacity: 0.75"/>
     <use xlink:href="#mcf271a975b" x="201.123678" y="425.99966" style="fill: #1f77b4; fill-opacity: 0.75; stroke: #1f77b4; stroke-opacity: 0.75"/>
     <use xlink:href="#mcf271a975b" x="219.005447" y="425.99966" style="fill: #1f77b4; fill-opacity: 0.75; stroke: #1f77b4; stroke-opacity: 0.75"/>
     <use xlink:href="#mcf271a975b" x="238.262736" y="425.99966" style="fill: #1f77b4; fill-opacity: 0.75; stroke: #1f77b4; stroke-opacity: 0.75"/>
     <use xlink:href="#mcf271a975b" x="258.895545" y="425.99966" style="fill: #1f77b4; fill-opacity: 0.75; stroke: #1f77b4; stroke-opacity: 0.75"/>
     <use xlink:href="#mcf271a975b" x="280.903876" y="425.99966" style="fill: #1f77b4; fill-opacity: 0.75; stroke: #1f77b4; stroke-opacity: 0.75"/>
     <use xlink:href="#mcf271a975b" x="304.287727" y="425.99966" style="fill: #1f77b4; fill-opacity: 0.75; stroke: #1f77b4; stroke-opacity: 0.75"/>
     <use xlink:href="#mcf271a975b" x="329.047099" y="425.99966" style="fill: #1f77b4; fill-opacity: 0.75; stroke: #1f77b4; stroke-opacity: 0.75"/>
     <use xlink:href="#mcf271a975b" x="355.181991" y="425.99966" style="fill: #1f77b4; fill-opacity: 0.75; stroke: #1f77b4; stroke-opacity: 0.75"/>
     <use xlink:href="#mcf271a975b" x="382.692404" y="425.99966" style="fill: #1f77b4; fill-opacity: 0.75; stroke: #1f77b4; stroke-opacity: 0.75"/>
     <use xlink:href="#mcf271a975b" x="412.953859" y="425.99966" style="fill: #1f77b4; fill-opacity: 0.75; stroke: #1f77b4; stroke-opacity: 0.75"/>
     <use xlink:href="#mcf271a975b" x="445.966354" y="425.99966" style="fill: #1f77b4; fill-opacity: 0.75; stroke: #1f77b4; stroke-opacity: 0.75"/>
     <use xlink:href="#mcf271a975b" x="481.729891" y="425.99966" style="fill: #1f77b4; fill-opacity: 0.75; stroke: #1f77b4; stroke-opacity: 0.75"/>
     <use xlink:href="#mcf271a975b" x="520.24447" y="425.99966" style="fill: #1f77b4; fill-opacity: 0.75; stroke: #1f77b4; stroke-opacity: 0.75"/>
     <use xlink:href="#mcf271a975b" x="561.510089" y="425.99966" style="fill: #1f77b4; fill-opacity: 0.75; stroke: #1f77b4; stroke-opacity: 0.75"/>
     <use xlink:href="#mcf271a975b" x="605.52675" y="425.99966" style="fill: #1f77b4; fill-opacity: 0.75; stroke: #1f77b4; stroke-opacity: 0.75"/>
     <use xlink:href="#mcf271a975b" x="652.294452" y="425.99966" style="fill: #1f77b4; fill-opacity: 0.75; stroke: #1f77b4; stroke-opacity: 0.75"/>
     <use xlink:href="#mcf271a975b" x="701.813196" y="425.99966" style="fill: #1f77b4; fill-opacity: 0.75; stroke: #1f77b4; stroke-opacity: 0.75"/>
     <use xlink:href="#mcf271a975b" x="754.082981" y="425.99966" style="fill: #1f77b4; fill-opacity: 0.75; stroke: #1f77b4; stroke-opacity: 0.75"/>
     <use xlink:href="#mcf271a975b" x="809.103807" y="425.99966" style="fill: #1f77b4; fill-opacity: 0.75; stroke: #1f77b4; stroke-opacity: 0.75"/>
    </g>
   </g>
   <g id="legend_1">
    <g id="patch_5">
     <path d="M 56.40375 105.228437 
L 224.436563 105.228437 
Q 226.436563 105.228437 226.436563 103.228437 
L 226.436563 30.837812 
Q 226.436563 28.837812 224.436563 28.837812 
L 56.40375 28.837812 
Q 54.40375 28.837812 54.40375 30.837812 
L 54.40375 103.228437 
Q 54.40375 105.228437 56.40375 105.228437 
z
" style="fill: #ffffff; opacity: 0.8; stroke: #cccccc; stroke-linejoin: miter"/>
    </g>
    <g id="PathCollection_2">
     <g>
      <use xlink:href="#mcf271a975b" x="68.40375" y="37.81125" style="fill: #1f77b4; fill-opacity: 0.75; stroke: #1f77b4; stroke-opacity: 0.75"/>
     </g>
    </g>
    <g id="text_19">
     <!-- Experimental data -->
     <g transform="translate(86.40375 40.43625) scale(0.1 -0.1)">
      <defs>
       <path id="DejaVuSans-45" d="M 628 4666 
L 3578 4666 
L 3578 4134 
L 1259 4134 
L 1259 2753 
L 3481 2753 
L 3481 2222 
L 1259 2222 
L 1259 531 
L 3634 531 
L 3634 0 
L 628 0 
L 628 4666 
z
" transform="scale(0.015625)"/>
       <path id="DejaVuSans-78" d="M 3513 3500 
L 2247 1797 
L 3578 0 
L 2900 0 
L 1881 1375 
L 863 0 
L 184 0 
L 1544 1831 
L 300 3500 
L 978 3500 
L 1906 2253 
L 2834 3500 
L 3513 3500 
z
" transform="scale(0.015625)"/>
       <path id="DejaVuSans-64" d="M 2906 2969 
L 2906 4863 
L 3481 4863 
L 3481 0 
L 2906 0 
L 2906 525 
Q 2725 213 2448 61 
Q 2172 -91 1784 -91 
Q 1150 -91 751 415 
Q 353 922 353 1747 
Q 353 2572 751 3078 
Q 1150 3584 1784 3584 
Q 2172 3584 2448 3432 
Q 2725 3281 2906 2969 
z
M 947 1747 
Q 947 1113 1208 752 
Q 1469 391 1925 391 
Q 2381 391 2643 752 
Q 2906 1113 2906 1747 
Q 2906 2381 2643 2742 
Q 2381 3103 1925 3103 
Q 1469 3103 1208 2742 
Q 947 2381 947 1747 
z
" transform="scale(0.015625)"/>
      </defs>
      <use xlink:href="#DejaVuSans-45"/>
      <use xlink:href="#DejaVuSans-78" transform="translate(63.183594 0)"/>
      <use xlink:href="#DejaVuSans-70" transform="translate(122.363281 0)"/>
      <use xlink:href="#DejaVuSans-65" transform="translate(185.839844 0)"/>
      <use xlink:href="#DejaVuSans-72" transform="translate(247.363281 0)"/>
      <use xlink:href="#DejaVuSans-69" transform="translate(288.476562 0)"/>
      <use xlink:href="#DejaVuSans-6d" transform="translate(316.259766 0)"/>
      <use xlink:href="#DejaVuSans-65" transform="translate(413.671875 0)"/>
      <use xlink:href="#DejaVuSans-6e" transform="translate(475.195312 0)"/>
      <use xlink:href="#DejaVuSans-74" transform="translate(538.574219 0)"/>
      <use xlink:href="#DejaVuSans-61" transform="translate(577.783203 0)"/>
      <use xlink:href="#DejaVuSans-6c" transform="translate(639.0625 0)"/>
      <use xlink:href="#DejaVuSans-20" transform="translate(666.845703 0)"/>
      <use xlink:href="#DejaVuSans-64" transform="translate(698.632812 0)"/>
      <use xlink:href="#DejaVuSans-61" transform="translate(762.109375 0)"/>
      <use xlink:href="#DejaVuSans-74" transform="translate(823.388672 0)"/>
      <use xlink:href="#DejaVuSans-61" transform="translate(862.597656 0)"/>
     </g>
    </g>
    <g id="line2d_31">
     <path d="M 58.40375 51.614375 
L 68.40375 51.614375 
L 78.40375 51.614375 
" style="fill: none; stroke: #1f77b4; stroke-width: 2.5; stroke-linecap: square"/>
    </g>
    <g id="text_20">
     <!-- Natural cubic spline -->
     <g transform="translate(86.40375 55.114375) scale(0.1 -0.1)">
      <use xlink:href="#DejaVuSans-4e"/>
      <use xlink:href="#DejaVuSans-61" transform="translate(74.804688 0)"/>
      <use xlink:href="#DejaVuSans-74" transform="translate(136.083984 0)"/>
      <use xlink:href="#DejaVuSans-75" transform="translate(175.292969 0)"/>
      <use xlink:href="#DejaVuSans-72" transform="translate(238.671875 0)"/>
      <use xlink:href="#DejaVuSans-61" transform="translate(279.785156 0)"/>
      <use xlink:href="#DejaVuSans-6c" transform="translate(341.064453 0)"/>
      <use xlink:href="#DejaVuSans-20" transform="translate(368.847656 0)"/>
      <use xlink:href="#DejaVuSans-63" transform="translate(400.634766 0)"/>
      <use xlink:href="#DejaVuSans-75" transform="translate(455.615234 0)"/>
      <use xlink:href="#DejaVuSans-62" transform="translate(518.994141 0)"/>
      <use xlink:href="#DejaVuSans-69" transform="translate(582.470703 0)"/>
      <use xlink:href="#DejaVuSans-63" transform="translate(610.253906 0)"/>
      <use xlink:href="#DejaVuSans-20" transform="translate(665.234375 0)"/>
      <use xlink:href="#DejaVuSans-73" transform="translate(697.021484 0)"/>
      <use xlink:href="#DejaVuSans-70" transform="translate(749.121094 0)"/>
      <use xlink:href="#DejaVuSans-6c" transform="translate(812.597656 0)"/>
      <use xlink:href="#DejaVuSans-69" transform="translate(840.380859 0)"/>
      <use xlink:href="#DejaVuSans-6e" transform="translate(868.164062 0)"/>
      <use xlink:href="#DejaVuSans-65" transform="translate(931.542969 0)"/>
     </g>
    </g>
    <g id="line2d_32">
     <path d="M 58.40375 66.2925 
L 68.40375 66.2925 
L 78.40375 66.2925 
" style="fill: none; stroke-dasharray: 7.4,3.2; stroke-dashoffset: 0; stroke: #ff7f0e; stroke-width: 2"/>
    </g>
    <g id="text_21">
     <!-- Lagrange deg=29 -->
     <g transform="translate(86.40375 69.7925) scale(0.1 -0.1)">
      <defs>
       <path id="DejaVuSans-4c" d="M 628 4666 
L 1259 4666 
L 1259 531 
L 3531 531 
L 3531 0 
L 628 0 
L 628 4666 
z
" transform="scale(0.015625)"/>
       <path id="DejaVuSans-67" d="M 2906 1791 
Q 2906 2416 2648 2759 
Q 2391 3103 1925 3103 
Q 1463 3103 1205 2759 
Q 947 2416 947 1791 
Q 947 1169 1205 825 
Q 1463 481 1925 481 
Q 2391 481 2648 825 
Q 2906 1169 2906 1791 
z
M 3481 434 
Q 3481 -459 3084 -895 
Q 2688 -1331 1869 -1331 
Q 1566 -1331 1297 -1286 
Q 1028 -1241 775 -1147 
L 775 -588 
Q 1028 -725 1275 -790 
Q 1522 -856 1778 -856 
Q 2344 -856 2625 -561 
Q 2906 -266 2906 331 
L 2906 616 
Q 2728 306 2450 153 
Q 2172 0 1784 0 
Q 1141 0 747 490 
Q 353 981 353 1791 
Q 353 2603 747 3093 
Q 1141 3584 1784 3584 
Q 2172 3584 2450 3431 
Q 2728 3278 2906 2969 
L 2906 3500 
L 3481 3500 
L 3481 434 
z
" transform="scale(0.015625)"/>
       <path id="DejaVuSans-3d" d="M 678 2906 
L 4684 2906 
L 4684 2381 
L 678 2381 
L 678 2906 
z
M 678 1631 
L 4684 1631 
L 4684 1100 
L 678 1100 
L 678 1631 
z
" transform="scale(0.015625)"/>
       <path id="DejaVuSans-39" d="M 703 97 
L 703 672 
Q 941 559 1184 500 
Q 1428 441 1663 441 
Q 2288 441 2617 861 
Q 2947 1281 2994 2138 
Q 2813 1869 2534 1725 
Q 2256 1581 1919 1581 
Q 1219 1581 811 2004 
Q 403 2428 403 3163 
Q 403 3881 828 4315 
Q 1253 4750 1959 4750 
Q 2769 4750 3195 4129 
Q 3622 3509 3622 2328 
Q 3622 1225 3098 567 
Q 2575 -91 1691 -91 
Q 1453 -91 1209 -44 
Q 966 3 703 97 
z
M 1959 2075 
Q 2384 2075 2632 2365 
Q 2881 2656 2881 3163 
Q 2881 3666 2632 3958 
Q 2384 4250 1959 4250 
Q 1534 4250 1286 3958 
Q 1038 3666 1038 3163 
Q 1038 2656 1286 2365 
Q 1534 2075 1959 2075 
z
" transform="scale(0.015625)"/>
      </defs>
      <use xlink:href="#DejaVuSans-4c"/>
      <use xlink:href="#DejaVuSans-61" transform="translate(55.712891 0)"/>
      <use xlink:href="#DejaVuSans-67" transform="translate(116.992188 0)"/>
      <use xlink:href="#DejaVuSans-72" transform="translate(180.46875 0)"/>
      <use xlink:href="#DejaVuSans-61" transform="translate(221.582031 0)"/>
      <use xlink:href="#DejaVuSans-6e" transform="translate(282.861328 0)"/>
      <use xlink:href="#DejaVuSans-67" transform="translate(346.240234 0)"/>
      <use xlink:href="#DejaVuSans-65" transform="translate(409.716797 0)"/>
      <use xlink:href="#DejaVuSans-20" transform="translate(471.240234 0)"/>
      <use xlink:href="#DejaVuSans-64" transform="translate(503.027344 0)"/>
      <use xlink:href="#DejaVuSans-65" transform="translate(566.503906 0)"/>
      <use xlink:href="#DejaVuSans-67" transform="translate(628.027344 0)"/>
      <use xlink:href="#DejaVuSans-3d" transform="translate(691.503906 0)"/>
      <use xlink:href="#DejaVuSans-32" transform="translate(775.292969 0)"/>
      <use xlink:href="#DejaVuSans-39" transform="translate(838.916016 0)"/>
     </g>
    </g>
    <g id="PathCollection_3">
     <defs>
      <path id="m27dcbe43c5" d="M -5.477226 5.477226 
L 5.477226 -5.477226 
M -5.477226 -5.477226 
L 5.477226 5.477226 
" style="stroke: #ff7f0e; stroke-width: 2.2"/>
     </defs>
     <g>
      <use xlink:href="#m27dcbe43c5" x="68.40375" y="81.845625" style="fill: #ff7f0e; stroke: #ff7f0e; stroke-width: 2.2"/>
     </g>
    </g>
    <g id="text_22">
     <!-- Spline(1000 Hz) = 132.016 -->
     <g transform="translate(86.40375 84.470625) scale(0.1 -0.1)">
      <defs>
       <path id="DejaVuSans-28" d="M 1984 4856 
Q 1566 4138 1362 3434 
Q 1159 2731 1159 2009 
Q 1159 1288 1364 580 
Q 1569 -128 1984 -844 
L 1484 -844 
Q 1016 -109 783 600 
Q 550 1309 550 2009 
Q 550 2706 781 3412 
Q 1013 4119 1484 4856 
L 1984 4856 
z
" transform="scale(0.015625)"/>
       <path id="DejaVuSans-29" d="M 513 4856 
L 1013 4856 
Q 1481 4119 1714 3412 
Q 1947 2706 1947 2009 
Q 1947 1309 1714 600 
Q 1481 -109 1013 -844 
L 513 -844 
Q 928 -128 1133 580 
Q 1338 1288 1338 2009 
Q 1338 2731 1133 3434 
Q 928 4138 513 4856 
z
" transform="scale(0.015625)"/>
       <path id="DejaVuSans-36" d="M 2113 2584 
Q 1688 2584 1439 2293 
Q 1191 2003 1191 1497 
Q 1191 994 1439 701 
Q 1688 409 2113 409 
Q 2538 409 2786 701 
Q 3034 994 3034 1497 
Q 3034 2003 2786 2293 
Q 2538 2584 2113 2584 
z
M 3366 4563 
L 3366 3988 
Q 3128 4100 2886 4159 
Q 2644 4219 2406 4219 
Q 1781 4219 1451 3797 
Q 1122 3375 1075 2522 
Q 1259 2794 1537 2939 
Q 1816 3084 2150 3084 
Q 2853 3084 3261 2657 
Q 3669 2231 3669 1497 
Q 3669 778 3244 343 
Q 2819 -91 2113 -91 
Q 1303 -91 875 529 
Q 447 1150 447 2328 
Q 447 3434 972 4092 
Q 1497 4750 2381 4750 
Q 2619 4750 2861 4703 
Q 3103 4656 3366 4563 
z
" transform="scale(0.015625)"/>
      </defs>
      <use xlink:href="#DejaVuSans-53"/>
      <use xlink:href="#DejaVuSans-70" transform="translate(63.476562 0)"/>
      <use xlink:href="#DejaVuSans-6c" transform="translate(126.953125 0)"/>
      <use xlink:href="#DejaVuSans-69" transform="translate(154.736328 0)"/>
      <use xlink:href="#DejaVuSans-6e" transform="translate(182.519531 0)"/>
      <use xlink:href="#DejaVuSans-65" transform="translate(245.898438 0)"/>
      <use xlink:href="#DejaVuSans-28" transform="translate(307.421875 0)"/>
      <use xlink:href="#DejaVuSans-31" transform="translate(346.435547 0)"/>
      <use xlink:href="#DejaVuSans-30" transform="translate(410.058594 0)"/>
      <use xlink:href="#DejaVuSans-30" transform="translate(473.681641 0)"/>
      <use xlink:href="#DejaVuSans-30" transform="translate(537.304688 0)"/>
      <use xlink:href="#DejaVuSans-20" transform="translate(600.927734 0)"/>
      <use xlink:href="#DejaVuSans-48" transform="translate(632.714844 0)"/>
      <use xlink:href="#DejaVuSans-7a" transform="translate(707.910156 0)"/>
      <use xlink:href="#DejaVuSans-29" transform="translate(760.400391 0)"/>
      <use xlink:href="#DejaVuSans-20" transform="translate(799.414062 0)"/>
      <use xlink:href="#DejaVuSans-3d" transform="translate(831.201172 0)"/>
      <use xlink:href="#DejaVuSans-20" transform="translate(914.990234 0)"/>
      <use xlink:href="#DejaVuSans-31" transform="translate(946.777344 0)"/>
      <use xlink:href="#DejaVuSans-33" transform="translate(1010.400391 0)"/>
      <use xlink:href="#DejaVuSans-32" transform="translate(1074.023438 0)"/>
      <use xlink:href="#DejaVuSans-2e" transform="translate(1137.646484 0)"/>
      <use xlink:href="#DejaVuSans-30" transform="translate(1169.433594 0)"/>
      <use xlink:href="#DejaVuSans-31" transform="translate(1233.056641 0)"/>
      <use xlink:href="#DejaVuSans-36" transform="translate(1296.679688 0)"/>
     </g>
    </g>
    <g id="PathCollection_4"/>
    <g id="text_23">
     <!-- Poly(1000 Hz) = 124.761 -->
     <g transform="translate(86.40375 99.14875) scale(0.1 -0.1)">
      <defs>
       <path id="DejaVuSans-34" d="M 2419 4116 
L 825 1625 
L 2419 1625 
L 2419 4116 
z
M 2253 4666 
L 3047 4666 
L 3047 1625 
L 3713 1625 
L 3713 1100 
L 3047 1100 
L 3047 0 
L 2419 0 
L 2419 1100 
L 313 1100 
L 313 1709 
L 2253 4666 
z
" transform="scale(0.015625)"/>
       <path id="DejaVuSans-37" d="M 525 4666 
L 3525 4666 
L 3525 4397 
L 1831 0 
L 1172 0 
L 2766 4134 
L 525 4134 
L 525 4666 
z
" transform="scale(0.015625)"/>
      </defs>
      <use xlink:href="#DejaVuSans-50"/>
      <use xlink:href="#DejaVuSans-6f" transform="translate(56.677734 0)"/>
      <use xlink:href="#DejaVuSans-6c" transform="translate(117.859375 0)"/>
      <use xlink:href="#DejaVuSans-79" transform="translate(145.642578 0)"/>
      <use xlink:href="#DejaVuSans-28" transform="translate(204.822266 0)"/>
      <use xlink:href="#DejaVuSans-31" transform="translate(243.835938 0)"/>
      <use xlink:href="#DejaVuSans-30" transform="translate(307.458984 0)"/>
      <use xlink:href="#DejaVuSans-30" transform="translate(371.082031 0)"/>
      <use xlink:href="#DejaVuSans-30" transform="translate(434.705078 0)"/>
      <use xlink:href="#DejaVuSans-20" transform="translate(498.328125 0)"/>
      <use xlink:href="#DejaVuSans-48" transform="translate(530.115234 0)"/>
      <use xlink:href="#DejaVuSans-7a" transform="translate(605.310547 0)"/>
      <use xlink:href="#DejaVuSans-29" transform="translate(657.800781 0)"/>
      <use xlink:href="#DejaVuSans-20" transform="translate(696.814453 0)"/>
      <use xlink:href="#DejaVuSans-3d" transform="translate(728.601562 0)"/>
      <use xlink:href="#DejaVuSans-20" transform="translate(812.390625 0)"/>
      <use xlink:href="#DejaVuSans-31" transform="translate(844.177734 0)"/>
      <use xlink:href="#DejaVuSans-32" transform="translate(907.800781 0)"/>
      <use xlink:href="#DejaVuSans-34" transform="translate(971.423828 0)"/>
      <use xlink:href="#DejaVuSans-2e" transform="translate(1035.046875 0)"/>
      <use xlink:href="#DejaVuSans-37" transform="translate(1066.833984 0)"/>
      <use xlink:href="#DejaVuSans-36" transform="translate(1130.457031 0)"/>
      <use xlink:href="#DejaVuSans-31" transform="translate(1194.080078 0)"/>
     </g>
    </g>
   </g>
   <g id="PathCollection_5">
    <g clip-path="url(#p8cfabb1da8)">
     <use xlink:href="#m27dcbe43c5" x="333.173661" y="425.99966" style="fill: #ff7f0e; stroke: #ff7f0e; stroke-width: 2.2"/>
    </g>
   </g>
   <g id="PathCollection_6"/>
  </g>
 </g>
 <defs>
  <clipPath id="p8cfabb1da8">
   <rect x="49.40375" y="23.837812" width="795.87625" height="427.214688"/>
  </clipPath>
 </defs>
</svg>
